<svg xmlns="http://www.w3.org/2000/svg" width="116.782" height="144.808" viewBox="0 0 116.782 144.808"><defs><style>.a{fill:#e0dfdf;}.b{fill:#003145;}</style></defs><path class="a" d="M48.356,79.657a4.671,4.671,0,1,1-4.671,4.671A4.671,4.671,0,0,1,48.356,79.657Zm23.637,1.658A15.345,15.345,0,0,0,75.193,94a15.158,15.158,0,0,0,17.961,4.157,4.671,4.671,0,0,1,6.587,4.227v12.309a7.007,7.007,0,0,1-7.007,7.007H64.706A39.706,39.706,0,0,1,25,81.993V53.965a7.007,7.007,0,0,1,7.007-7.007H44.316a19.315,19.315,0,0,1-1.8-8.175A19.782,19.782,0,0,1,49.711,23.6a20.063,20.063,0,0,1,16.56-4.181,19.853,19.853,0,0,1,14.2,27.537H92.734a7.007,7.007,0,0,1,7.007,7.007V66.251a4.671,4.671,0,0,1-6.633,4.227A15.182,15.182,0,0,0,72.086,81.315ZM71.713,59.8a5.839,5.839,0,0,0-11.188-2.336H55.363a2.336,2.336,0,0,0-1.658.677l-6.843,6.867a2.336,2.336,0,0,0-.677,1.635v8.618a9.343,9.343,0,1,0,4.671,0V67.629l5.465-5.489h4.2A5.839,5.839,0,0,0,71.713,59.8Z" transform="translate(17.042 23.11)"/><path class="b" d="M14.007,89.753H35.028v25.692a2.336,2.336,0,0,0,4.671,0V87.417a2.336,2.336,0,0,0-2.336-2.336H14.007a2.336,2.336,0,0,1-2.336-2.336V75.739H25.685a2.336,2.336,0,1,0,0-4.671H11.671V54.719H23.349a9.342,9.342,0,1,0,0-18.685H11.788A32.7,32.7,0,0,1,43.2,5.671v17.19a4.671,4.671,0,0,0,6.33,4.344,8.035,8.035,0,0,1,4.671-.444A8.175,8.175,0,1,1,49.7,42.41a4.671,4.671,0,0,0-6.4,4.321V61.726A7.007,7.007,0,0,0,50.3,68.733H54.3a13.009,13.009,0,0,0-.3,5.7,12.846,12.846,0,0,0,25.412-2.2,13.079,13.079,0,0,0-.49-3.5h5.162v46.712a2.336,2.336,0,0,0,4.671,0V38.37A37.37,37.37,0,0,0,51.377,1H44.37A37.37,37.37,0,0,0,7,38.37V82.746A7.007,7.007,0,0,0,14.007,89.753ZM84.076,38.37V64.061H78.914a4.671,4.671,0,0,0-4.484,5.979,7.778,7.778,0,0,1,.3,2.2,8.175,8.175,0,0,1-16.233,1.4,8.291,8.291,0,0,1,.187-3.644,4.671,4.671,0,0,0-4.671-5.932H50.209a2.336,2.336,0,0,1-2.336-2.336v-14.9a12.846,12.846,0,1,0,7.007-24.571,12.356,12.356,0,0,0-7.007.677V5.671h3.5a32.7,32.7,0,0,1,32.7,32.7ZM28.021,45.377a4.671,4.671,0,0,1-4.671,4.671H11.671V40.705H23.349A4.671,4.671,0,0,1,28.021,45.377Z" transform="translate(-7 -1)"/></svg>