<svg xmlns="http://www.w3.org/2000/svg" width="157.785" height="157.893" viewBox="0 0 157.785 157.893"><defs><style>.a{fill:#a1e2ec;}.b{fill:#003145;}</style></defs><path class="a" d="M104.767,72.8A33.089,33.089,0,0,0,74.223,42.053V28.487a5.091,5.091,0,1,0-5.091,0V42.053A33.089,33.089,0,0,0,38.589,72.8a10.181,10.181,0,0,0,0,19.675v35.99a2.545,2.545,0,0,0,2.545,2.545h61.087a2.545,2.545,0,0,0,2.545-2.545V92.475a10.181,10.181,0,0,0,0-19.675ZM38.589,87.028a5.091,5.091,0,0,1,0-8.756ZM86.95,108.1H56.406a2.545,2.545,0,1,1,0-5.091H86.95a2.545,2.545,0,1,1,0,5.091ZM92.04,87.741a2.545,2.545,0,0,1-2.545,2.545H53.861a2.545,2.545,0,0,1-2.545-2.545V75.015a2.545,2.545,0,0,1,2.545-2.545H89.495a2.545,2.545,0,0,1,2.545,2.545Zm12.727-.713V78.273a5.091,5.091,0,0,1,0,8.756ZM56.406,77.56H86.95V85.2H56.406Z" transform="translate(45.46 26.882)"/><path class="b" d="M99.994,4.768a12.727,12.727,0,0,0-9.01-3.716H76.526a13.058,13.058,0,0,0-9.01,3.716L64.97,7.314A13.974,13.974,0,0,0,40.714,8.79a24.053,24.053,0,0,0-2.774-.1A21.635,21.635,0,0,0,16.3,29.432a48.207,48.207,0,0,0,0,70.5,21.66,21.66,0,0,0,21.584,20.54,19.318,19.318,0,0,0,2.723-.178,14,14,0,0,0,24.18,1.6l2.673,2.7a12.727,12.727,0,0,0,9.061,3.716H90.983a12.727,12.727,0,0,0,9.01-3.716l24.588-24.587A13.083,13.083,0,0,0,128.3,91V38.366a12.726,12.726,0,0,0-3.716-9.01ZM53.211,123.022A8.883,8.883,0,0,1,47.281,107.5,2.55,2.55,0,1,0,43.87,103.7a14,14,0,0,0-4.658,10.41v1.222H37.888A16.57,16.57,0,0,1,21.395,98.841a16.391,16.391,0,0,1,5.091-11.963,2.547,2.547,0,1,0-3.614-3.589A21.686,21.686,0,0,0,16.89,93.471a43.269,43.269,0,0,1,0-57.447A21.686,21.686,0,0,0,23.1,46.333a2.549,2.549,0,1,0,3.462-3.742A16.544,16.544,0,0,1,37.939,13.779h1.324v1.2A14.05,14.05,0,0,0,43.921,25.41a2.55,2.55,0,1,0,3.411-3.792A8.908,8.908,0,1,1,62.12,15.051V36.966A17.817,17.817,0,0,0,49.393,31.6a2.545,2.545,0,1,0,0,5.091A12.726,12.726,0,0,1,62.12,49.412V82.832A17.817,17.817,0,0,0,49.393,77.41a2.545,2.545,0,1,0,0,5.091A12.726,12.726,0,0,1,62.12,95.227v18.835a8.909,8.909,0,0,1-8.909,8.959Zm43.27-2.036a7.636,7.636,0,0,1-5.4,2.24H76.526a7.636,7.636,0,0,1-5.4-2.24l-2.876-2.851,11.988-11.988a2.673,2.673,0,0,1,1.807-.738h5.981a7.636,7.636,0,1,0,0-5.091H82.049a7.636,7.636,0,0,0-5.4,2.24L67.21,112V96.271l6.9-6.872a2.556,2.556,0,0,0-3.614-3.614L67.21,89.093V73.363L80.242,60.332a2.673,2.673,0,0,1,1.807-.738H95.667a7.636,7.636,0,1,0,0-5.091H82.049a7.636,7.636,0,0,0-5.4,2.24L67.21,66.186V40.275l6.9-6.872a2.556,2.556,0,0,0-3.614-3.614L67.21,33.1V12.277l3.92-3.894a7.305,7.305,0,0,1,1.3-1.044l5.7,5.7a2.556,2.556,0,0,0,3.614-3.614L78.435,6.143H90.983a7.636,7.636,0,0,1,5.4,2.24l5.422,5.4H95.209a2.545,2.545,0,1,0,0,5.091h11.683l14.076,14.1a7.636,7.636,0,0,1,2.24,5.4v4.912l-9.443-9.443a7.636,7.636,0,0,0-5.4-2.24H94.751a7.636,7.636,0,1,0,0,5.091h13.617a2.673,2.673,0,0,1,1.807.738l13.032,13.032v15.73l-3.283-3.309a2.556,2.556,0,0,0-3.614,3.614l6.9,6.872v15.73l-9.443-9.443a7.636,7.636,0,0,0-5.4-2.24H97.3a7.636,7.636,0,1,0,0,5.091h11.072a2.673,2.673,0,0,1,1.807.738l11.836,11.836a6.643,6.643,0,0,1-1.044,1.324Zm-3.818-18.122a2.545,2.545,0,1,1,2.545,2.545A2.545,2.545,0,0,1,92.663,102.863ZM100.3,57.048a2.545,2.545,0,1,1,2.545,2.545A2.545,2.545,0,0,1,100.3,57.048ZM90.118,34.141A2.545,2.545,0,1,1,87.573,31.6,2.545,2.545,0,0,1,90.118,34.141Zm2.545,45.815a2.545,2.545,0,1,1-2.545-2.545A2.545,2.545,0,0,1,92.663,79.956ZM36.514,57.048a2.545,2.545,0,0,1-2.545,2.545A12.726,12.726,0,0,0,21.395,72.167a2.545,2.545,0,0,1-5.091,0A17.664,17.664,0,0,1,33.969,54.5,2.545,2.545,0,0,1,36.514,57.048Z" transform="translate(-0.979 -0.966)"/></svg>