<svg xmlns="http://www.w3.org/2000/svg" width="135" height="135" viewBox="0 0 135 135"><defs><style>.a{fill:#fff;}.b{fill:#003145;}</style></defs><g transform="translate(39.426 39.078)"><rect class="a" width="30" height="31" rx="3" transform="translate(-0.079 -0.078)"/><rect class="a" width="28" height="28" rx="1" transform="translate(49.921 49.922)"/><path class="a" d="M101.21,25H51.129a4.355,4.355,0,0,0-4.355,4.355V33.71A13.064,13.064,0,0,1,33.71,46.774H29.355A4.355,4.355,0,0,0,25,51.129v50.08a6.532,6.532,0,0,0,6.532,6.532H101.21a6.532,6.532,0,0,0,6.532-6.532V31.532A6.532,6.532,0,0,0,101.21,25ZM94.677,88.145a6.532,6.532,0,0,1-6.532,6.532H64.194a6.532,6.532,0,0,1-6.532-6.532V64.193a6.532,6.532,0,0,1,6.532-6.532H88.145a6.532,6.532,0,0,1,6.532,6.532Z" transform="translate(-12.168 -11.82)"/></g><path class="b" d="M103.339,1H72.855a6.532,6.532,0,0,0-6.532,6.532V20.6H44.548V7.532A6.532,6.532,0,0,0,38.016,1H7.532A6.532,6.532,0,0,0,1,7.532V38.016a6.532,6.532,0,0,0,6.532,6.532H20.6V66.322H7.532A6.532,6.532,0,0,0,1,72.855v30.484a6.532,6.532,0,0,0,6.532,6.532H38.016a6.532,6.532,0,0,0,6.532-6.532V90.274H66.323v13.064a6.532,6.532,0,0,0,6.532,6.532h30.484a6.532,6.532,0,0,0,6.532-6.532V72.855a6.532,6.532,0,0,0-6.532-6.532H90.274V44.548h13.065a6.532,6.532,0,0,0,6.532-6.532V7.532A6.532,6.532,0,0,0,103.339,1ZM7.532,40.193a2.177,2.177,0,0,1-2.177-2.177V7.532A2.177,2.177,0,0,1,7.532,5.355H38.016a2.177,2.177,0,0,1,2.177,2.177V38.016a2.177,2.177,0,0,1-2.177,2.177H24.952V22.774a2.177,2.177,0,0,0-4.355,0V40.193Zm32.661,63.145a2.177,2.177,0,0,1-2.177,2.177H7.532a2.177,2.177,0,0,1-2.177-2.177V72.855a2.177,2.177,0,0,1,2.177-2.177H38.016a2.177,2.177,0,0,1,2.177,2.177V85.919H22.774a2.177,2.177,0,1,0,0,4.355H40.194Zm63.145-32.661a2.177,2.177,0,0,1,2.177,2.177v30.484a2.177,2.177,0,0,1-2.177,2.177H72.855a2.177,2.177,0,0,1-2.177-2.177V72.855a2.177,2.177,0,0,1,2.177-2.177H85.919V88.1a2.177,2.177,0,1,0,4.355,0V70.677ZM85.919,66.322H72.855a6.532,6.532,0,0,0-6.532,6.532V85.919H44.548V72.855a6.532,6.532,0,0,0-6.532-6.532H24.952V44.548H38.016a6.532,6.532,0,0,0,6.532-6.532V24.952H66.323V38.016a6.532,6.532,0,0,0,6.532,6.532H85.919Zm19.6-28.306a2.177,2.177,0,0,1-2.177,2.177H72.855a2.177,2.177,0,0,1-2.177-2.177V24.952H88.1a2.177,2.177,0,0,0,0-4.355H70.677V7.532a2.177,2.177,0,0,1,2.177-2.177h30.484a2.177,2.177,0,0,1,2.177,2.177Z" transform="translate(-1 -1)"/></svg>