<svg xmlns="http://www.w3.org/2000/svg" width="124.726" height="124.731" viewBox="0 0 124.726 124.731">
  <g id="system" transform="translate(-0.012 -0.003)">
    <path id="Path_2815" data-name="Path 2815" d="M61.779,67.306l5.537-5.537a1.392,1.392,0,0,0,0-1.968l-3.9-3.9a1.393,1.393,0,0,1-.181-1.742,30.045,30.045,0,0,0,4.115-9.944,1.394,1.394,0,0,1,1.36-1.105h5.516a1.391,1.391,0,0,0,1.391-1.391v-7.83A1.391,1.391,0,0,0,74.228,32.5H68.713a1.394,1.394,0,0,1-1.36-1.105,30.045,30.045,0,0,0-4.115-9.944,1.393,1.393,0,0,1,.181-1.742l3.9-3.9a1.392,1.392,0,0,0,0-1.968L61.779,8.307a1.392,1.392,0,0,0-1.968,0l-3.9,3.9a1.393,1.393,0,0,1-1.742.181A30.045,30.045,0,0,0,44.227,8.27a1.394,1.394,0,0,1-1.105-1.36V1.394A1.391,1.391,0,0,0,41.731,0H33.9A1.391,1.391,0,0,0,32.51,1.394V6.91A1.394,1.394,0,0,1,31.4,8.27a30.048,30.048,0,0,0-9.944,4.115,1.393,1.393,0,0,1-1.742-.181l-3.9-3.9a1.392,1.392,0,0,0-1.968,0L8.316,13.843a1.392,1.392,0,0,0,0,1.968l3.9,3.9a1.393,1.393,0,0,1,.181,1.742,30.045,30.045,0,0,0-4.115,9.944A1.394,1.394,0,0,1,6.919,32.5H1.4A1.391,1.391,0,0,0,.012,33.891v7.83A1.391,1.391,0,0,0,1.4,43.112H6.919a1.394,1.394,0,0,1,1.36,1.105,30.05,30.05,0,0,0,4.115,9.944,1.393,1.393,0,0,1-.181,1.742l-3.9,3.9a1.392,1.392,0,0,0,0,1.968l5.537,5.537a1.392,1.392,0,0,0,1.968,0l3.9-3.9a1.393,1.393,0,0,1,1.742-.181A30.045,30.045,0,0,0,31.4,67.342a1.394,1.394,0,0,1,1.105,1.36v5.516A1.391,1.391,0,0,0,33.9,75.609h7.83a1.391,1.391,0,0,0,1.391-1.391V68.7a1.394,1.394,0,0,1,1.105-1.36,30.048,30.048,0,0,0,9.944-4.115,1.393,1.393,0,0,1,1.742.181l3.9,3.9a1.392,1.392,0,0,0,1.968,0Z" fill="#003145"/>
    <circle id="Ellipse_204" data-name="Ellipse 204" cx="12.378" cy="12.378" r="12.378" transform="translate(25.438 25.428)" fill="#f1f1f1"/>
    <path id="Path_2818" data-name="Path 2818" d="M138.64,127a12.375,12.375,0,0,1-16.9.562,12.379,12.379,0,0,0,12.184-20.648c-.2-.2-.4-.384-.6-.562A12.378,12.378,0,0,1,138.64,127Z" transform="translate(-92.071 -80.444)" fill="#f1f1f1"/>
    <g id="Group_1901" data-name="Group 1901" transform="translate(31.188 31.184)">
      <path id="Path_2819" data-name="Path 2819" d="M204.407,211.269l6.851-6.851a1.721,1.721,0,0,0,0-2.435l-4.822-4.822a1.724,1.724,0,0,1-.224-2.155,37.177,37.177,0,0,0,5.092-12.3,1.724,1.724,0,0,1,1.683-1.367h6.825a1.722,1.722,0,0,0,1.722-1.722v-9.688a1.722,1.722,0,0,0-1.722-1.722h-6.825a1.725,1.725,0,0,1-1.683-1.367,37.173,37.173,0,0,0-5.092-12.3,1.724,1.724,0,0,1,.224-2.155l4.822-4.822a1.722,1.722,0,0,0,0-2.435l-6.851-6.851a1.722,1.722,0,0,0-2.435,0l-4.822,4.822a1.724,1.724,0,0,1-2.155.224,37.177,37.177,0,0,0-12.3-5.092,1.724,1.724,0,0,1-1.367-1.683v-6.825a1.722,1.722,0,0,0-1.722-1.722h-9.688a1.722,1.722,0,0,0-1.722,1.722v6.825a1.725,1.725,0,0,1-1.367,1.683,37.173,37.173,0,0,0-12.3,5.092,1.724,1.724,0,0,1-2.155-.224l-4.822-4.822a1.722,1.722,0,0,0-2.435,0l-6.851,6.851a1.722,1.722,0,0,0,0,2.435l4.822,4.822a1.724,1.724,0,0,1,.224,2.155,37.177,37.177,0,0,0-5.092,12.3,1.724,1.724,0,0,1-1.683,1.367H129.7a1.722,1.722,0,0,0-1.722,1.722v9.688a1.722,1.722,0,0,0,1.722,1.722h6.825a1.725,1.725,0,0,1,1.683,1.367,37.173,37.173,0,0,0,5.092,12.3,1.724,1.724,0,0,1-.224,2.155l-4.822,4.822a1.722,1.722,0,0,0,0,2.435l6.851,6.851a1.722,1.722,0,0,0,2.435,0l4.822-4.822a1.724,1.724,0,0,1,2.155-.224,37.178,37.178,0,0,0,12.3,5.092A1.724,1.724,0,0,1,168.191,213v6.825a1.722,1.722,0,0,0,1.722,1.722H179.6a1.722,1.722,0,0,0,1.722-1.722V213a1.725,1.725,0,0,1,1.367-1.683,37.177,37.177,0,0,0,12.3-5.092,1.724,1.724,0,0,1,2.155.224l4.822,4.822a1.721,1.721,0,0,0,2.434,0Z" transform="translate(-127.982 -127.994)" fill="#003145"/>
      <g id="Group_1900" data-name="Group 1900" transform="translate(72.331 9.769)">
        <path id="Path_2820" data-name="Path 2820" d="M430.784,362.126a1.723,1.723,0,0,0,.226,2.155l4.821,4.821a1.723,1.723,0,0,1,0,2.436l-6.851,6.851a1.723,1.723,0,0,1-2.436,0l-1.658-1.658,5.509-5.511a1.723,1.723,0,0,0,0-2.436l-4.821-4.821a1.726,1.726,0,0,1-.223-2.157,33.246,33.246,0,0,0,5.09-11.5,1.727,1.727,0,0,1,1.683-1.367h4.242a1.74,1.74,0,0,0-.489.883A37.154,37.154,0,0,1,430.784,362.126Z" transform="translate(-424.886 -304.882)" fill="#003145"/>
        <path id="Path_2821" data-name="Path 2821" d="M437.143,198.214H432.7a1.724,1.724,0,0,1-1.683-1.367,37.153,37.153,0,0,0-5.09-12.3,1.723,1.723,0,0,1,.223-2.155l4.821-4.824a1.72,1.72,0,0,0,0-2.433l-5.19-5.19,1.34-1.342a1.723,1.723,0,0,1,2.436,0l6.851,6.851a1.723,1.723,0,0,1,0,2.436l-4.821,4.821a1.727,1.727,0,0,0-.226,2.157,37.159,37.159,0,0,1,5.092,12.3,1.725,1.725,0,0,0,.69,1.046Z" transform="translate(-425.463 -168.094)" fill="#003145"/>
        <path id="Path_2822" data-name="Path 2822" d="M492.866,294.768v9.688a1.722,1.722,0,0,1-1.721,1.723H486.9a1.7,1.7,0,0,0,.527-1.237V294.449a1.723,1.723,0,0,0-.722-1.4h4.438A1.72,1.72,0,0,1,492.866,294.768Z" transform="translate(-471.647 -262.606)" fill="#003145"/>
      </g>
      <circle id="Ellipse_205" data-name="Ellipse 205" cx="22.268" cy="22.268" r="22.268" transform="translate(24.507 24.507)" fill="#003145"/>
      <path id="Path_2823" data-name="Path 2823" d="M306.258,268.161a22.275,22.275,0,0,1-25.238,4.4,22.273,22.273,0,0,0,14.193-41.916,22.268,22.268,0,0,1,11.045,37.512Z" transform="translate(-243.737 -205.641)" fill="#003145"/>
      <circle id="Ellipse_206" data-name="Ellipse 206" cx="12.788" cy="12.788" r="12.788" transform="translate(33.987 33.987)" fill="#f1f1f1"/>
    </g>
  </g>
</svg>
