<svg xmlns="http://www.w3.org/2000/svg" width="170.469" height="170.419" viewBox="0 0 170.469 170.419"><defs><style>.a{fill:#a1e2ec;}.b{fill:#003145;}</style></defs><path class="a" d="M79.5,19A60.471,60.471,0,0,0,43.769,128.288v-20.12l-7.449-7.449a2.749,2.749,0,0,1-.8-2.007V78.784a5.5,5.5,0,1,1,5.5,0V97.64l7.449,7.449a2.749,2.749,0,0,1,.8,1.869V131.7a60.115,60.115,0,0,0,10.995,4.975V105.419l-10.2-10.2a2.749,2.749,0,0,1-.8-2.007V59.543a5.5,5.5,0,1,1,5.5,0v32.6l10.2,10.2a2.749,2.749,0,0,1,.8,1.869v34.221a60.2,60.2,0,0,0,10.995,1.512V117.266a5.5,5.5,0,1,1,5.5,0v22.677a60.2,60.2,0,0,0,10.995-1.512V104.209a2.749,2.749,0,0,1,.8-1.952l10.2-10.115v-32.6a5.5,5.5,0,1,1,5.5,0V93.215a2.749,2.749,0,0,1-.8,1.924l-10.2,10.28v31.445a60.115,60.115,0,0,0,10.995-4.975V106.958a2.749,2.749,0,0,1,.8-1.952l7.449-7.366V78.784a5.5,5.5,0,1,1,5.5,0V98.712a2.749,2.749,0,0,1-.8,1.924l-7.449,7.531v20.12A60.471,60.471,0,0,0,79.5,19Zm0,74.215A13.743,13.743,0,1,1,93.246,79.471,13.744,13.744,0,0,1,79.5,93.215Z" transform="translate(30.446 30.476)"/><path class="b" d="M107.87,5.013A13.744,13.744,0,0,0,98.14,1H82.527A14.183,14.183,0,0,0,72.8,5.013L69.718,8.119,66.64,5.013A14.019,14.019,0,0,0,56.909,1H41.3a13.744,13.744,0,0,0-9.73,4.013L5.013,31.565A13.743,13.743,0,0,0,1,41.3V98.139a14.018,14.018,0,0,0,4.013,9.73l26.553,26.552a13.744,13.744,0,0,0,9.73,4.013H56.909a13.744,13.744,0,0,0,9.73-4.013l3.079-3.106,3.079,3.106a13.744,13.744,0,0,0,9.73,4.013H98.14a13.744,13.744,0,0,0,9.73-4.013l26.553-26.552a14.128,14.128,0,0,0,4.013-9.73V41.3a13.743,13.743,0,0,0-4.013-9.73ZM56.909,132.937H41.3a8.246,8.246,0,0,1-5.827-2.419L8.916,103.966a7.174,7.174,0,0,1-1.127-1.429L20.571,89.755a2.886,2.886,0,0,1,1.952-.8H34.479a8.246,8.246,0,1,0,0-5.5H22.523A8.246,8.246,0,0,0,16.7,85.88L6.5,96.077V79.09l7.449-7.421a2.76,2.76,0,0,0-3.9-3.9L6.5,71.339V54.352L20.571,40.279a2.886,2.886,0,0,1,1.952-.8H37.228a8.246,8.246,0,1,0,0-5.5H22.523A8.246,8.246,0,0,0,16.7,36.4L6.5,46.6V41.3a8.246,8.246,0,0,1,2.419-5.827l15.2-15.228H36.733a2.749,2.749,0,1,0,0-5.5H29.614l5.855-5.827A8.246,8.246,0,0,1,41.3,6.5H54.848l-3.573,3.546a2.76,2.76,0,0,0,3.9,3.9l6.295-6.157a7.889,7.889,0,0,1,1.4,1.127l4.1,4.205V35.606l-3.546-3.573a2.76,2.76,0,1,0-3.9,3.9l7.449,7.421V71.339l-10.2-10.2a8.246,8.246,0,0,0-5.827-2.419H36.239a8.246,8.246,0,1,0,0,5.5H50.944a2.886,2.886,0,0,1,1.952.8L66.969,79.09V96.077L63.424,92.5a2.76,2.76,0,0,0-3.9,3.9l7.449,7.421v16.987l-10.2-10.2a8.246,8.246,0,0,0-5.827-2.419h-6.46a8.246,8.246,0,1,0,0,5.5h6.46a2.886,2.886,0,0,1,1.952.8L65.842,127.44l-3.106,3.079a8.246,8.246,0,0,1-5.827,2.419ZM39.482,86.209a2.749,2.749,0,1,1,2.749,2.749A2.749,2.749,0,0,1,39.482,86.209Zm2.749-49.476a2.749,2.749,0,1,1,2.749,2.749A2.749,2.749,0,0,1,42.231,36.733ZM31.236,61.471a2.749,2.749,0,1,1-2.749-2.749A2.749,2.749,0,0,1,31.236,61.471Zm8.246,49.476a2.749,2.749,0,1,1-2.749-2.749A2.749,2.749,0,0,1,39.482,110.948Zm64.485,19.571a8.246,8.246,0,0,1-5.827,2.419H82.527a8.246,8.246,0,0,1-5.827-2.419l-3.106-3.079L86.54,114.494a2.886,2.886,0,0,1,1.952-.8h6.459a8.246,8.246,0,1,0,0-5.5H88.492a8.246,8.246,0,0,0-5.827,2.419l-10.2,10.2V103.829l7.449-7.421a2.76,2.76,0,0,0-3.9-3.9l-3.546,3.573V79.09L86.54,65.017a2.886,2.886,0,0,1,1.952-.8H103.2a8.246,8.246,0,1,0,0-5.5H88.492a8.246,8.246,0,0,0-5.827,2.419l-10.2,10.2V43.357l7.449-7.421a2.76,2.76,0,0,0-3.9-3.9l-3.546,3.573V13.122L76.7,8.916a7.174,7.174,0,0,1,1.429-1.127l6.13,6.157a2.76,2.76,0,0,0,3.9-3.9L84.589,6.5H98.14a8.246,8.246,0,0,1,5.827,2.419l5.855,5.827H102.7a2.749,2.749,0,1,0,0,5.5h12.617l15.2,15.228a8.246,8.246,0,0,1,2.419,5.827v5.3l-10.2-10.2a8.246,8.246,0,0,0-5.827-2.419H102.208a8.246,8.246,0,1,0,0,5.5h14.706a2.886,2.886,0,0,1,1.952.8l14.073,14.073V71.339l-3.546-3.573a2.76,2.76,0,0,0-3.9,3.9l7.449,7.421V96.077l-10.2-10.2a8.246,8.246,0,0,0-5.827-2.419H104.957a8.246,8.246,0,1,0,0,5.5h11.957a2.886,2.886,0,0,1,1.952.8l12.782,12.781a7.173,7.173,0,0,1-1.127,1.429Zm-4.013-19.571A2.749,2.749,0,1,1,102.7,113.7,2.749,2.749,0,0,1,99.954,110.948ZM108.2,61.471a2.749,2.749,0,1,1,2.749,2.749A2.749,2.749,0,0,1,108.2,61.471ZM97.205,36.733a2.749,2.749,0,1,1-2.749-2.749A2.749,2.749,0,0,1,97.205,36.733Zm2.749,49.476a2.749,2.749,0,1,1-2.749-2.749A2.749,2.749,0,0,1,99.954,86.209Z" transform="translate(-1 -1)"/></svg>