<svg xmlns="http://www.w3.org/2000/svg" width="144.522" height="144.48" viewBox="0 0 144.522 144.48"><defs><style>.a{fill:#e0dfdf;}.b{fill:#003145;}</style></defs><path class="a" d="M70.291,19A51.267,51.267,0,0,0,40,111.653V94.6L33.681,88.28a2.33,2.33,0,0,1-.676-1.7V69.684a4.661,4.661,0,1,1,4.661,0V85.67l6.315,6.315a2.33,2.33,0,0,1,.676,1.585v20.973a50.965,50.965,0,0,0,9.321,4.218v-26.5L45.333,83.62a2.33,2.33,0,0,1-.676-1.7V53.372a4.661,4.661,0,1,1,4.661,0V81.01l8.646,8.645a2.33,2.33,0,0,1,.676,1.585v29.012a51.037,51.037,0,0,0,9.321,1.282V102.309a4.661,4.661,0,1,1,4.661,0v19.225a51.036,51.036,0,0,0,9.321-1.282V91.24a2.33,2.33,0,0,1,.676-1.655l8.646-8.576V53.372a4.661,4.661,0,1,1,4.661,0V81.919a2.33,2.33,0,0,1-.676,1.631L86.6,92.265v26.659a50.965,50.965,0,0,0,9.321-4.218V93.57a2.33,2.33,0,0,1,.676-1.655l6.315-6.245V69.684a4.661,4.661,0,1,1,4.661,0V86.579a2.33,2.33,0,0,1-.676,1.631L100.585,94.6v17.058A51.267,51.267,0,0,0,70.291,19Zm0,62.919A11.652,11.652,0,1,1,81.943,70.267,11.652,11.652,0,0,1,70.291,81.919Z" transform="translate(22.923 22.946)"/><path class="b" d="M91.6,4.4A11.652,11.652,0,0,0,83.354,1H70.118a12.025,12.025,0,0,0-8.249,3.4l-2.61,2.633L56.649,4.4A11.885,11.885,0,0,0,48.4,1H35.163a11.652,11.652,0,0,0-8.249,3.4L4.4,26.913A11.652,11.652,0,0,0,1,35.162V83.353A11.885,11.885,0,0,0,4.4,91.6l22.511,22.511a11.652,11.652,0,0,0,8.249,3.4H48.4a11.652,11.652,0,0,0,8.249-3.4l2.61-2.633,2.61,2.633a11.652,11.652,0,0,0,8.249,3.4H83.354a11.652,11.652,0,0,0,8.249-3.4L114.115,91.6a11.978,11.978,0,0,0,3.4-8.249V35.162a11.652,11.652,0,0,0-3.4-8.249ZM48.4,112.855H35.163a6.991,6.991,0,0,1-4.94-2.051L7.711,88.294a6.081,6.081,0,0,1-.955-1.212L17.592,76.246a2.447,2.447,0,0,1,1.655-.676H29.384a6.991,6.991,0,1,0,0-4.661H19.247a6.991,6.991,0,0,0-4.94,2.051L5.661,81.606V67.2l6.315-6.292A2.34,2.34,0,0,0,8.667,57.6L5.661,60.633v-14.4L17.592,34.3a2.447,2.447,0,0,1,1.655-.676H31.714a6.991,6.991,0,1,0,0-4.661H19.247a6.991,6.991,0,0,0-4.94,2.051L5.661,39.66v-4.5a6.991,6.991,0,0,1,2.051-4.94L20.6,17.312h10.7a2.33,2.33,0,1,0,0-4.661H25.259l4.964-4.94a6.991,6.991,0,0,1,4.94-2.051H46.651L43.622,8.667a2.34,2.34,0,0,0,3.309,3.309l5.336-5.22a6.688,6.688,0,0,1,1.188.955l3.472,3.565V30.339l-3.006-3.029a2.34,2.34,0,1,0-3.309,3.309l6.315,6.292V60.633l-8.646-8.645a6.991,6.991,0,0,0-4.94-2.051H30.875a6.991,6.991,0,1,0,0,4.661H43.342A2.447,2.447,0,0,1,45,55.273L56.928,67.2v14.4l-3.006-3.029a2.34,2.34,0,0,0-3.309,3.309l6.315,6.292v14.4l-8.646-8.645a6.991,6.991,0,0,0-4.94-2.051H37.866a6.991,6.991,0,1,0,0,4.661h5.476A2.447,2.447,0,0,1,45,97.219l10.976,10.976L53.34,110.8a6.991,6.991,0,0,1-4.94,2.051ZM33.625,73.24a2.33,2.33,0,1,1,2.33,2.33A2.33,2.33,0,0,1,33.625,73.24Zm2.33-41.946a2.33,2.33,0,1,1,2.33,2.33A2.33,2.33,0,0,1,35.955,31.294ZM26.634,52.267a2.33,2.33,0,1,1-2.33-2.33A2.33,2.33,0,0,1,26.634,52.267Zm6.991,41.946a2.33,2.33,0,1,1-2.33-2.33A2.33,2.33,0,0,1,33.625,94.213ZM88.295,110.8a6.991,6.991,0,0,1-4.94,2.051H70.118a6.991,6.991,0,0,1-4.94-2.051l-2.633-2.61L73.52,97.219a2.447,2.447,0,0,1,1.655-.676h5.476a6.991,6.991,0,1,0,0-4.661H75.175a6.991,6.991,0,0,0-4.94,2.051l-8.646,8.645v-14.4L67.9,81.885A2.34,2.34,0,0,0,64.6,78.576l-3.006,3.029V67.2L73.52,55.273a2.447,2.447,0,0,1,1.655-.676H87.642a6.991,6.991,0,1,0,0-4.661H75.175a6.991,6.991,0,0,0-4.94,2.051l-8.646,8.645V36.91L67.9,30.618A2.34,2.34,0,0,0,64.6,27.309l-3.006,3.029V11.277l3.589-3.565a6.082,6.082,0,0,1,1.212-.955l5.2,5.22A2.34,2.34,0,0,0,74.9,8.667L71.866,5.661H83.354a6.991,6.991,0,0,1,4.94,2.051l4.964,4.94H87.223a2.33,2.33,0,1,0,0,4.661h10.7l12.887,12.91a6.991,6.991,0,0,1,2.051,4.94v4.5l-8.646-8.645a6.991,6.991,0,0,0-4.94-2.051H86.8a6.991,6.991,0,1,0,0,4.661H99.271a2.447,2.447,0,0,1,1.655.676l11.931,11.931v14.4L109.85,57.6a2.34,2.34,0,0,0-3.309,3.309l6.315,6.292v14.4l-8.646-8.645a6.991,6.991,0,0,0-4.94-2.051H89.134a6.991,6.991,0,1,0,0,4.661H99.271a2.447,2.447,0,0,1,1.655.676l10.836,10.836a6.081,6.081,0,0,1-.955,1.212Zm-3.4-16.592a2.33,2.33,0,1,1,2.33,2.33A2.33,2.33,0,0,1,84.892,94.213Zm6.991-41.946a2.33,2.33,0,1,1,2.33,2.33A2.33,2.33,0,0,1,91.883,52.267ZM82.562,31.294a2.33,2.33,0,1,1-2.33-2.33A2.33,2.33,0,0,1,82.562,31.294Zm2.33,41.946a2.33,2.33,0,1,1-2.33-2.33A2.33,2.33,0,0,1,84.892,73.24Z" transform="translate(-1 -1)"/></svg>