<svg xmlns="http://www.w3.org/2000/svg" width="139.997" height="157.872" viewBox="0 0 139.997 157.872"><defs><style>.a{fill:#a1e2ec;}.b{fill:#003145;}</style></defs><path class="a" d="M68.225,19a40.725,40.725,0,0,1,39.452,30.543H83.5a10.181,10.181,0,1,0,0,20.362H108.95V87.722H88.587a2.545,2.545,0,1,0,0,5.091H108.95v12.726a7.636,7.636,0,0,1-7.636,7.636H78.406v15.272a2.545,2.545,0,0,1-2.545,2.545H68.225V89.555a5.091,5.091,0,1,0-5.091,0v41.437H55.5V69.549a10.181,10.181,0,1,0-5.091,0v61.443H44.044V89.555a5.091,5.091,0,1,0-5.091,0v41.437H30.045a2.545,2.545,0,0,1-2.545-2.545V59.724A40.725,40.725,0,0,1,68.225,19ZM108.95,64.815V59.724a42.048,42.048,0,0,0-.356-5.091H83.5a5.091,5.091,0,1,0,0,10.181Zm-56,0a5.091,5.091,0,1,0-5.091-5.091A5.091,5.091,0,0,0,52.953,64.815Z" transform="translate(31.047 26.88)"/><path class="b" d="M31.229,98.7v16.875A12.726,12.726,0,0,0,43.955,128.3H69.408a12.726,12.726,0,0,0,12.727-12.726V98.7a52.179,52.179,0,1,0-50.906,0ZM77.044,99.77v8.17H36.319V99.77ZM56.682,41.764a2.545,2.545,0,1,1,2.545-2.545A2.545,2.545,0,0,1,56.682,41.764Zm12.727,81.449H43.955a7.636,7.636,0,0,1-7.636-7.636v-2.545H77.044v2.545A7.636,7.636,0,0,1,69.408,123.212ZM56.682,6.13A47.062,47.062,0,0,1,78.953,94.68H74.5V80.986l6.9-6.872a2.545,2.545,0,0,0,.738-1.807V56.577a7.636,7.636,0,1,0-5.091,0V71.263l-6.9,6.872a2.545,2.545,0,0,0-.738,1.807V94.68H59.227V46.32a7.636,7.636,0,1,0-5.091,0V94.68H43.955V79.943a2.545,2.545,0,0,0-.738-1.807l-6.9-6.872v-9.6a7.636,7.636,0,1,0-5.091,0V72.307a2.545,2.545,0,0,0,.738,1.807l6.9,6.872V94.68H34.41A47.062,47.062,0,0,1,56.682,6.13ZM79.589,51.945A2.545,2.545,0,1,1,82.135,49.4,2.545,2.545,0,0,1,79.589,51.945ZM33.774,57.035a2.545,2.545,0,1,1,2.545-2.545A2.545,2.545,0,0,1,33.774,57.035Z" transform="translate(-4.498 -0.974)"/></svg>