<svg xmlns="http://www.w3.org/2000/svg" width="116.683" height="124.729" viewBox="0 0 116.683 124.729"><defs><style>.a{fill:#fff;}.b{fill:#003145;}</style></defs><path class="a" d="M26.041,45.188c0,7.508,5.957,13.254,8.1,15.076a22.1,22.1,0,0,0,44.134.467c8.013-3.271,8.122-15.016,8.122-15.543V31.106c0-4.7-4.066-18.106-22.129-18.106C49.822,13,43.837,15.549,41.7,16.875a11.467,11.467,0,0,0-9.84,1.871c-6.22,4.955-5.991,16.877-5.852,24,.018.905.034,1.73.034,2.442ZM56.217,77.377A18.126,18.126,0,0,1,38.111,59.271V36.618a72.917,72.917,0,0,0,14.2-6.146,38.626,38.626,0,0,0,7.126,6.309A36.9,36.9,0,0,0,74.323,42.9V59.271A18.126,18.126,0,0,1,56.217,77.377Z" transform="translate(20.23 11.141)"/><path class="a" d="M77.33,50H45.141A24.167,24.167,0,0,0,21,74.141a2.012,2.012,0,0,0,2.012,2.012H99.459a2.012,2.012,0,0,0,2.012-2.012A24.167,24.167,0,0,0,77.33,50Z" transform="translate(15.212 48.577)"/><g transform="translate(0 0)"><path class="b" d="M73.412,1H9.035A6.035,6.035,0,0,0,3,7.035V95.553a6.035,6.035,0,0,0,6.035,6.035H73.412a6.035,6.035,0,0,0,6.035-6.035V7.035A6.035,6.035,0,0,0,73.412,1Zm2.012,94.553a2.012,2.012,0,0,1-2.012,2.012H9.035a2.012,2.012,0,0,1-2.012-2.012V7.035A2.012,2.012,0,0,1,9.035,5.024H73.412a2.012,2.012,0,0,1,2.012,2.012Z" transform="translate(-3 -1)"/><path class="b" d="M52.247,8H16.035A6.035,6.035,0,0,0,10,14.035V30.129a6.035,6.035,0,0,0,6.035,6.035H52.247a6.035,6.035,0,0,0,6.035-6.035V14.035A6.035,6.035,0,0,0,52.247,8Zm2.012,22.129a2.012,2.012,0,0,1-2.012,2.012H16.035a2.012,2.012,0,0,1-2.012-2.012V14.035a2.012,2.012,0,0,1,2.012-2.012H52.247a2.012,2.012,0,0,1,2.012,2.012Z" transform="translate(4.082 6.082)"/><path class="b" d="M56.271,29H12.012a2.012,2.012,0,1,0,0,4.024H56.271a2.012,2.012,0,0,0,0-4.024Z" transform="translate(4.082 27.329)"/><path class="b" d="M56.271,35H12.012a2.012,2.012,0,1,0,0,4.024H56.271a2.012,2.012,0,0,0,0-4.024Z" transform="translate(4.082 33.4)"/><path class="b" d="M56.271,41H12.012a2.012,2.012,0,1,0,0,4.024H56.271a2.012,2.012,0,0,0,0-4.024Z" transform="translate(4.082 39.471)"/></g></svg>