<svg xmlns="http://www.w3.org/2000/svg" width="124.73" height="124.729" viewBox="0 0 124.73 124.729"><defs><style>.a{fill:#fff;}.b{fill:#003145;}</style></defs><path class="a" d="M104.218,15.5H46.726a5.847,5.847,0,0,0-5.847,5.847V64.832a20.463,20.463,0,1,0,.035,39.7,5.847,5.847,0,0,0,5.812,5.492h57.493a5.847,5.847,0,0,0,5.847-5.847V21.347A5.847,5.847,0,0,0,104.218,15.5Zm-49.7,12.946H75.472a1.949,1.949,0,1,1,0,3.9H54.521a1.949,1.949,0,0,1,0-3.9Zm-18.515,72.8A16.566,16.566,0,1,1,52.572,84.686a16.566,16.566,0,0,1-16.566,16.566Zm60.416-4.176H66.174a1.949,1.949,0,1,1,0-3.9H96.423a1.949,1.949,0,1,1,0,3.9Zm0-12.947H66.174a1.949,1.949,0,1,1,0-3.9H96.423a1.949,1.949,0,1,1,0,3.9Zm0-12.946H66.174a1.949,1.949,0,1,1,0-3.9H96.423a1.949,1.949,0,1,1,0,3.9Zm0-12.945h-41.9a1.949,1.949,0,0,1,0-3.9h41.9a1.949,1.949,0,1,1,0,3.9Zm0-12.947h-41.9a1.949,1.949,0,0,1,0-3.9h41.9a1.949,1.949,0,1,1,0,3.9Z" transform="translate(14.665 14.708)"/><path class="a" d="M35.532,47.78l-7.423,9.9-3.282-3.284a1.949,1.949,0,1,0-2.756,2.756l4.872,4.872a1.949,1.949,0,0,0,2.937-.209l8.77-11.693a1.949,1.949,0,1,0-3.118-2.339Z" transform="translate(20.401 44.598)"/><g transform="translate(0)"><path class="b" d="M76.982,0H17.54a5.847,5.847,0,0,0-5.847,5.847V78.93H1.949A1.949,1.949,0,0,0,0,80.879,13.658,13.658,0,0,0,13.642,94.521H69.6A14,14,0,0,0,82.828,80.39V5.847A5.847,5.847,0,0,0,76.982,0ZM13.642,90.624a9.76,9.76,0,0,1-9.55-7.8H55.68a13.516,13.516,0,0,0,3.958,7.8ZM78.93,80.39a10.08,10.08,0,0,1-9.444,10.234,9.744,9.744,0,0,1-10.045-9.744,1.949,1.949,0,0,0-1.949-1.949h-41.9V5.847A1.949,1.949,0,0,1,17.54,3.9H76.982A1.949,1.949,0,0,1,78.93,5.847Z" transform="translate(0)"/><path class="b" d="M34.688,6A21.424,21.424,0,0,0,22.508,45.058V63.492a1.949,1.949,0,0,0,2.923,1.692L34.7,59.891l9.249,5.293a1.949,1.949,0,0,0,2.923-1.692V45.058A21.424,21.424,0,0,0,34.688,6Zm8.283,54.134-7.316-4.18a1.949,1.949,0,0,0-1.933,0l-7.316,4.18V47.207a21.4,21.4,0,0,0,16.566,0ZM34.688,44.978a17.54,17.54,0,1,1,17.54-17.54,17.54,17.54,0,0,1-17.54,17.54Z" transform="translate(12.573 5.693)"/><path class="b" d="M30.181,10.75A12.181,12.181,0,1,0,42.361,22.931,12.181,12.181,0,0,0,30.181,10.75Zm0,20.463a8.283,8.283,0,1,1,8.283-8.283A8.283,8.283,0,0,1,30.181,31.213Z" transform="translate(17.08 10.201)"/></g></svg>