<svg xmlns="http://www.w3.org/2000/svg" width="124.726" height="124.729" viewBox="0 0 124.726 124.729"><defs><style>.a{fill:#fff;}.b{fill:#003145;}</style></defs><ellipse class="a" cx="5.5" cy="6" rx="5.5" ry="6" transform="translate(81.172 33)"/><path class="a" d="M94.907,25.083H77.163a14.082,14.082,0,0,0-27.882,0H31.538A6.317,6.317,0,0,0,25,31.118v76.445a6.317,6.317,0,0,0,6.538,6.035H94.907a6.317,6.317,0,0,0,6.538-6.035V31.118A6.317,6.317,0,0,0,94.907,25.083ZM49.14,29.106h2.012a2.012,2.012,0,0,0,2.012-2.012,10.059,10.059,0,0,1,20.117,0,2.012,2.012,0,0,0,2.012,2.012H77.3V33.13a2.012,2.012,0,0,1-2.012,2.012H51.152A2.012,2.012,0,0,1,49.14,33.13ZM93.4,99.516a6.405,6.405,0,0,1-6.705,6.035H39.752a6.405,6.405,0,0,1-6.705-6.035V49.223a6.405,6.405,0,0,1,6.705-6.035H79.316a2.026,2.026,0,0,1,1.422.589l12.07,12.07A2.026,2.026,0,0,1,93.4,57.27Z" transform="translate(23.281 11.128)"/><rect class="a" width="6" height="33" rx="1" transform="translate(72.172 70)"/><rect class="a" width="6" height="24" rx="1" transform="translate(94.172 79)"/><path class="a" d="M73.246,42.07a2.012,2.012,0,0,1-2.012-2.012V30H33.682C32.229,30,31,30.921,31,32.012V82.3c0,1.09,1.229,2.012,2.682,2.012H80.623c1.452,0,2.682-.921,2.682-2.012V42.07ZM53.129,72.246a6.035,6.035,0,0,1-6.035,6.035H45.082a6.035,6.035,0,0,1-6.035-6.035V44.082a6.035,6.035,0,0,1,6.035-6.035h2.012a6.035,6.035,0,0,1,6.035,6.035Zm22.129,0a6.035,6.035,0,0,1-6.035,6.035H67.211a6.035,6.035,0,0,1-6.035-6.035V52.129a6.035,6.035,0,0,1,6.035-6.035h2.012a6.035,6.035,0,0,1,6.035,6.035Z" transform="translate(29.351 28.339)"/><g transform="translate(0 0)"><path class="b" d="M20.206,39.412A19.206,19.206,0,1,0,1,20.206,19.206,19.206,0,0,0,20.206,39.412Zm0-34.144A14.938,14.938,0,1,1,5.268,20.206,14.938,14.938,0,0,1,20.206,5.268Z" transform="translate(-1 -1)"/><path class="b" d="M20.206,59.412A19.206,19.206,0,1,0,1,40.206,19.206,19.206,0,0,0,20.206,59.412Zm0-34.144A14.938,14.938,0,1,1,5.268,40.206,14.938,14.938,0,0,1,20.206,25.268Z" transform="translate(-1 21.679)"/><path class="b" d="M76.483,4H29.536A8.536,8.536,0,0,0,21,12.536v8.536a8.536,8.536,0,0,0,8.536,8.536H76.483a8.536,8.536,0,0,0,8.536-8.536V12.536A8.536,8.536,0,0,0,76.483,4Zm4.268,17.072a4.268,4.268,0,0,1-4.268,4.268H29.536a4.268,4.268,0,0,1-4.268-4.268V12.536a4.268,4.268,0,0,1,4.268-4.268H76.483a4.268,4.268,0,0,1,4.268,4.268Z" transform="translate(21.68 2.402)"/><path class="b" d="M76.483,24H29.536A8.536,8.536,0,0,0,21,32.536v8.536a8.536,8.536,0,0,0,8.536,8.536H76.483a8.536,8.536,0,0,0,8.536-8.536V32.536A8.536,8.536,0,0,0,76.483,24Zm4.268,17.072a4.268,4.268,0,0,1-4.268,4.268H29.536a4.268,4.268,0,0,1-4.268-4.268V32.536a4.268,4.268,0,0,1,4.268-4.268H76.483a4.268,4.268,0,0,1,4.268,4.268Z" transform="translate(21.68 25.081)"/><path class="b" d="M13.027,42.447a2.134,2.134,0,0,0,3.414-.555l6.4-12.8a2.135,2.135,0,1,0-3.82-1.908L13.951,37.336,9.643,33.028a2.134,2.134,0,1,0-3.018,3.018Z" transform="translate(4.67 27.349)"/><path class="b" d="M13.027,22.447a2.134,2.134,0,0,0,3.414-.555l6.4-12.8a2.135,2.135,0,0,0-3.82-1.908L13.951,17.336,9.643,13.028a2.134,2.134,0,1,0-3.018,3.018Z" transform="translate(4.67 4.669)"/><path class="b" d="M101.3,41H7.4a6.4,6.4,0,1,0,0,12.8h93.9a6.4,6.4,0,1,0,0-12.8Zm0,8.536H7.4a2.134,2.134,0,1,1,0-4.268h93.9a2.134,2.134,0,1,1,0,4.268Z" transform="translate(-1 44.359)"/></g></svg>