<svg xmlns="http://www.w3.org/2000/svg" width="135.615" height="124.73" viewBox="0 0 135.615 124.73"><defs><style>.a{fill:#fff;}.b{fill:#003145;}</style></defs><g transform="translate(0 0)"><g transform="translate(26.248 15.357)"><ellipse class="a" cx="37.119" cy="17.512" rx="37.119" ry="17.512" transform="translate(0)"/><path class="a" d="M50.05,34.924c-16.783,0-30.33-4.5-36.992-11.523l.066,5.359c0,9.69,19.124,14.92,37.119,14.92s37.119-5.23,37.119-14.948L87.3,23.115C80.738,30.3,67.059,34.924,50.05,34.924Z" transform="translate(-12.931 4.478)"/><path class="a" d="M29.525,46.277C33.6,53.871,47.9,59.34,65.434,59.34c20.815,0,37.119-7.693,37.119-17.512,0-8.734-12.905-15.771-30.4-17.223l.028,2.305c0,15.333-27.057,19.557-42.653,19.367Z" transform="translate(6.621 6.247)"/><path class="a" d="M103.265,37.088C96.7,44.276,83.03,48.9,66.023,48.9c-16.783,0-30.332-4.5-36.994-11.523l.068,5.394c0,9.67,19.124,14.885,37.119,14.885s37.119-5.219,37.119-14.915Z" transform="translate(6.032 21.069)"/><path class="a" d="M50.119,73.378c17.6,0,31.935-5.506,35.953-13.141-15.355.127-42.312-4.068-42.312-19.248L43.732,38.6C26.071,40,13,47.069,13,55.856,13,65.677,29.307,73.378,50.119,73.378Z" transform="translate(-13 22.864)"/><path class="a" d="M50.051,62.912c-16.783,0-30.332-4.5-36.994-11.523l.068,5.394c0,9.668,19.124,14.885,37.119,14.885s37.119-5.217,37.119-14.913L87.3,51.1C80.74,58.283,67.058,62.912,50.051,62.912Z" transform="translate(-12.932 37.705)"/></g><path class="b" d="M52.181,72.388a36.1,36.1,0,1,0-30.143,0C11.391,73.677,1,76.529,1,82.1V93.66c0,7.637,22.694,9.675,36.1,9.675S73.2,101.3,73.2,93.66V82.1c0-5.57-10.391-8.422-21.024-9.712ZM5.247,39.626A31.855,31.855,0,1,1,37.1,71.481,31.855,31.855,0,0,1,5.247,39.626ZM37.1,75.728c20.691,0,31.855,4.521,31.855,6.371S57.793,88.47,37.1,88.47,5.247,83.949,5.247,82.1,16.411,75.728,37.1,75.728Zm0,23.36c-19.674,0-31.037-3.551-31.855-5.428V87.5c7.371,4,22.638,5.216,31.855,5.216S61.6,91.5,68.958,87.491V93.55C68.14,95.538,56.776,99.088,37.1,99.088Z" transform="translate(-1 -3.479)"/><path class="b" d="M26.187,30.1V18.6a7.522,7.522,0,0,1,2.582,1.3,2.124,2.124,0,0,0,2.865-3.132,11.8,11.8,0,0,0-5.447-2.542V11.624a2.124,2.124,0,0,0-4.247,0v2.559a9.344,9.344,0,0,0-8.2,7.7,8.155,8.155,0,0,0,2.661,8.038,24.019,24.019,0,0,0,5.534,3.06V47.089A9.82,9.82,0,0,1,15.891,45.1a2.124,2.124,0,0,0-2.325,3.555,14.016,14.016,0,0,0,8.374,2.68V54.1a2.124,2.124,0,0,0,4.247,0V50.986a11.238,11.238,0,0,0,8.344-9.066c1.051-6.263-2.463-9.631-8.344-11.82Zm-7.161-3.521a3.963,3.963,0,0,1-1.109-3.91,4.982,4.982,0,0,1,4.022-4.141v9.794a16.121,16.121,0,0,1-2.914-1.744ZM30.341,41.215a7.1,7.1,0,0,1-4.154,5.333V34.617a5.64,5.64,0,0,1,4.154,6.6Z" transform="translate(12.039 3.286)"/></g></svg>