<svg xmlns="http://www.w3.org/2000/svg" width="127.145" height="157.841" viewBox="0 0 127.145 157.841"><defs><style>.a{fill:#a1e2ec;}.b{fill:#003145;}</style></defs><g transform="translate(0 0.001)"><path class="a" d="M102.45,85.33V96.02a17.816,17.816,0,0,1-.535,4.327l-7.1,28.711a2.545,2.545,0,0,1-2.545,1.934H38.817a2.545,2.545,0,0,1-2.265-1.4L22.884,102.256A17.817,17.817,0,0,1,21,94.289V87.264a17.818,17.818,0,0,1,3-9.9L31.181,66.6V90.268a2.545,2.545,0,0,0,5.091,0V33a14,14,0,0,1,28,0V68.633a2.545,2.545,0,0,0,5.091,0v-8.6l21.89,8.756a17.817,17.817,0,0,1,11.2,16.544Z" transform="translate(14.635 26.847)"/><path class="b" d="M124.084,31.563a10.181,10.181,0,0,0-2.545,20.006v4.4L115.4,62.107H103.722A32.885,32.885,0,0,0,96.85,44.29l6.363-8.654a2.545,2.545,0,0,0,.509-1.527V28.662a10.181,10.181,0,1,0-5.091,0v4.607L93.21,40.523a33.089,33.089,0,0,0-20.032-8.832V21.026a10.181,10.181,0,1,0-5.091,0V31.691a33.089,33.089,0,0,0-20.032,8.832l-5.422-7.254V28.662a10.181,10.181,0,1,0-5.091,0v5.447a2.545,2.545,0,0,0,.509,1.527l6.491,8.654a32.885,32.885,0,0,0-6.872,17.817H25.861l-6.134-6.134v-4.4a10.181,10.181,0,1,0-5.091,0v5.447a2.545,2.545,0,0,0,.738,1.807l7.636,7.636a2.545,2.545,0,0,0,1.807.738H37.671a33.089,33.089,0,0,0,66.051,0h12.727a2.545,2.545,0,0,0,1.807-.738l7.636-7.636a2.545,2.545,0,0,0,.738-1.807V51.569a10.181,10.181,0,0,0-2.545-20.006Zm-28-12.726a5.091,5.091,0,1,1,5.091,5.091A5.091,5.091,0,0,1,96.086,18.837ZM35,18.837a5.091,5.091,0,1,1,5.091,5.091A5.091,5.091,0,0,1,35,18.837ZM12.091,41.744a5.091,5.091,0,1,1,5.091,5.091A5.091,5.091,0,0,1,12.091,41.744ZM65.542,11.2a5.091,5.091,0,1,1,5.091,5.091A5.091,5.091,0,0,1,65.542,11.2ZM70.633,92.65a28,28,0,1,1,28-28A28,28,0,0,1,70.633,92.65Zm53.451-45.815a5.091,5.091,0,1,1,5.091-5.091A5.091,5.091,0,0,1,124.084,46.835Z" transform="translate(-7 -0.988)"/></g></svg>