<svg xmlns="http://www.w3.org/2000/svg" width="120.832" height="120.83" viewBox="0 0 120.832 120.83"><defs><style>.a{fill:#fff;}.b{fill:#003145;}</style></defs><path class="a" d="M50.311,58.86c-8.2,0-11.154-8.4-13.036-9.776a24.185,24.185,0,0,0-4.139-1.458l-8.068,17.3a1.949,1.949,0,0,0,2.06,2.75l12.607-1.927,6.626,10.9a1.949,1.949,0,0,0,3.432-.195l9.183-19.7a29.86,29.86,0,0,1-8.665,2.1Z" transform="translate(21.664 43.244)"/><path class="a" d="M55.662,58.338a15.819,15.819,0,0,0,7.8-6.868c2.081-3.011,1.547-2.417,6.008-3.843l8.068,17.3a1.949,1.949,0,0,1-2.06,2.75l-12.6-1.927-6.626,10.9a1.949,1.949,0,0,1-3.432-.195L43.622,56.765c3.142.891,7.336,3.087,12.04,1.573Z" transform="translate(39.444 43.244)"/><path class="a" d="M51.726,23A17.92,17.92,0,1,0,69.644,40.919,17.921,17.921,0,0,0,51.726,23Zm0,31.56a1.949,1.949,0,1,1,0-3.9,9.756,9.756,0,0,0,9.744-9.744,1.949,1.949,0,0,1,3.9,0A13.658,13.658,0,0,1,51.726,54.56Z" transform="translate(30.128 19.876)"/><path class="a" d="M97.6,43.124c-2.5-3.28-2.664-3.7-2.58-8.024a12.261,12.261,0,0,0-1.51-7.642,12.321,12.321,0,0,0-6.846-3.816c-4.093-1.236-4.453-1.51-6.846-4.97a12.339,12.339,0,0,0-5.794-5.381,12,12,0,0,0-7.644.926c-4.126,1.427-4.677,1.432-8.809,0a11.986,11.986,0,0,0-7.644-.926,12.34,12.34,0,0,0-5.792,5.379c-2.4,3.459-2.754,3.734-6.846,4.972a12.3,12.3,0,0,0-6.848,3.816,12.266,12.266,0,0,0-1.51,7.64c.082,4.313-.078,4.746-2.582,8.026A12.409,12.409,0,0,0,23,50.372a12.409,12.409,0,0,0,3.35,7.25c2.5,3.286,2.666,3.713,2.582,8.024a12.262,12.262,0,0,0,1.51,7.642c2.7,3.7,8.254,3.531,10.914,5.469,2.906,2.115,4.787,9.029,10.742,9.029,3.348,0,7.221-2.339,9.879-2.339,3.381,0,7.8,3.375,12.048,2a12.331,12.331,0,0,0,5.792-5.379c4.471-6.464,10.4-4.26,13.695-8.786a12.278,12.278,0,0,0,1.51-7.64c-.082-4.311.074-4.74,2.58-8.024a12.41,12.41,0,0,0,3.352-7.246A12.4,12.4,0,0,0,97.6,43.124ZM61.978,72.189A21.818,21.818,0,1,1,83.794,50.372,21.818,21.818,0,0,1,61.978,72.189Z" transform="translate(19.876 10.422)"/><g transform="translate(0 0)"><path class="b" d="M69.212,1H31.286a5.572,5.572,0,0,0-.824.183c-.207.1-28.567,13.332-28.372,13.235A2.011,2.011,0,0,0,1,16.162V92.6a5.847,5.847,0,0,0,5.847,5.847H69.212A5.847,5.847,0,0,0,75.058,92.6V6.847A5.847,5.847,0,0,0,69.212,1ZM24.141,8.431,12.838,21.91,6.545,16.636ZM71.16,92.6a1.949,1.949,0,0,1-1.949,1.949H6.847A1.949,1.949,0,0,1,4.9,92.6V20.341l6.921,5.8a1.949,1.949,0,0,0,2.746-.234L32.194,4.9H69.212A1.949,1.949,0,0,1,71.16,6.847Z" transform="translate(-1 -1)"/><path class="b" d="M50.08,9H16.949a1.949,1.949,0,1,0,0,3.9H50.08a1.949,1.949,0,1,0,0-3.9Z" transform="translate(12.285 6.591)"/><path class="b" d="M58.62,17H7.949a1.949,1.949,0,1,0,0,3.9H58.62a1.949,1.949,0,1,0,0-3.9Z" transform="translate(3.745 14.182)"/><path class="b" d="M58.62,25H7.949a1.949,1.949,0,1,0,0,3.9H58.62a1.949,1.949,0,1,0,0-3.9Z" transform="translate(3.745 21.773)"/><path class="b" d="M58.62,33H7.949a1.949,1.949,0,1,0,0,3.9H58.62a1.949,1.949,0,1,0,0-3.9Z" transform="translate(3.745 29.365)"/><path class="b" d="M58.62,41H7.949a1.949,1.949,0,1,0,0,3.9H58.62a1.949,1.949,0,1,0,0-3.9Z" transform="translate(3.745 36.956)"/></g></svg>