<svg xmlns="http://www.w3.org/2000/svg" width="142.467" height="144.808" viewBox="0 0 142.467 144.808"><defs><style>.a{fill:#e0dfdf;}.b{fill:#003145;}</style></defs><path class="a" d="M87.563,56.369A18.685,18.685,0,1,1,68.878,37.685,18.685,18.685,0,0,1,87.563,56.369Zm18.685,0A37.369,37.369,0,1,1,68.878,19a37.369,37.369,0,0,1,37.369,37.369Zm-14.014,0A23.356,23.356,0,1,0,68.878,79.725,23.356,23.356,0,0,0,92.234,56.369ZM34.858,80.97,24.619,111.685a2.336,2.336,0,0,0,2.548,3.05l15.347-2.193L53.4,121.254a2.336,2.336,0,0,0,3.548-.78L68.007,98.366a41.954,41.954,0,0,1-33.149-17.4Zm78.272,30.715L102.893,80.972A41.961,41.961,0,0,1,69.744,98.366l11.045,22.109a2.336,2.336,0,0,0,3.55.78l10.888-8.712,15.347,2.193a2.336,2.336,0,0,0,2.555-3.05Z" transform="translate(29.217 23.041)"/><path class="b" d="M101.93,1H38.869A16.368,16.368,0,0,0,22.52,17.349V92.088H8.507A7.007,7.007,0,0,0,1.5,99.095v2.336a16.368,16.368,0,0,0,16.349,16.349H73.9A16.37,16.37,0,0,0,90.252,101.43V26.691h21.02a7.007,7.007,0,0,0,7.007-7.007V17.349A16.368,16.368,0,0,0,101.93,1ZM17.849,113.108A11.692,11.692,0,0,1,6.171,101.43V99.095a2.336,2.336,0,0,1,2.336-2.336H55.218a2.336,2.336,0,0,1,2.336,2.336v2.336a16.3,16.3,0,0,0,4.916,11.678ZM85.581,101.43a11.678,11.678,0,0,1-23.356,0V99.095a7.007,7.007,0,0,0-7.007-7.007H27.191V17.349A11.692,11.692,0,0,1,38.869,5.671H90.486a16.312,16.312,0,0,0-4.9,11.678Zm28.027-81.745a2.336,2.336,0,0,1-2.336,2.336H90.252V17.349a11.678,11.678,0,0,1,23.356,0ZM76.239,17.349A2.336,2.336,0,0,1,73.9,19.685H45.876a2.336,2.336,0,1,1,0-4.671H73.9A2.336,2.336,0,0,1,76.239,17.349Zm0,21.02A2.336,2.336,0,0,1,73.9,40.7H38.869a2.336,2.336,0,1,1,0-4.671H73.9A2.336,2.336,0,0,1,76.239,38.369Zm0,14.014A2.336,2.336,0,0,1,73.9,54.718H38.869a2.336,2.336,0,1,1,0-4.671H73.9A2.336,2.336,0,0,1,76.239,52.383Zm0,14.014A2.336,2.336,0,0,1,73.9,68.732H38.869a2.336,2.336,0,1,1,0-4.671H73.9A2.336,2.336,0,0,1,76.239,66.4Zm0,14.013A2.336,2.336,0,0,1,73.9,82.745H38.869a2.336,2.336,0,1,1,0-4.671H73.9A2.336,2.336,0,0,1,76.239,80.41Z" transform="translate(-1.5 -1)"/></svg>