<svg xmlns="http://www.w3.org/2000/svg" width="2923.008" height="3371.719" viewBox="0 0 2923.008 3371.719">
  <g id="Group_3169" data-name="Group 3169" transform="translate(13211.948 1111.359)">
    <g id="Group_3168" data-name="Group 3168">
      <path id="Path_1751" data-name="Path 1751" d="M2950.756,840.849,1494.337,0,37.919,840.849,34.3,842.93V2528.79l.461.31,1459.579,842.62,1459.5-842.7.461-.231V842.93Z" transform="translate(-13245.797 -1111.359)" fill="#003145" opacity="0.492"/>
      <path id="Path_1752" data-name="Path 1752" d="M1712.424,840.849,256.006,0V3371.719l1459.5-842.7.461-.231V842.93Z" transform="translate(-12007.473 -1111.359)" fill="#def3fc" opacity="0.494"/>
      <path id="Path_1769" data-name="Path 1769" d="M10428.554,5979.453l.864,1685.039L11889,8507.723V6768.833Z" transform="translate(-23640.502 -6247.363)" fill="#acdbf0" opacity="0.494"/>
      <path id="Path_1770" data-name="Path 1770" d="M11891.526,5978.833l-2.427,1688.32L10429,8507.723V6768.833Z" transform="translate(-22180.467 -6247.363)" fill="#def3fc" opacity="0.494"/>
      <path id="Path_1771" data-name="Path 1771" d="M1430.135,402.436,734.475-1.013,36.03,402.436l-1.733,1V1210.3l.221.148,698.565,403.284,698.527-403.322.221-.11V403.432Z" transform="translate(-12487.564 -272.463)" fill="#acdbf0" opacity="0.494"/>
      <path id="Path_1773" data-name="Path 1773" d="M950.042,402.689,256.006,0V1614.742l695.5-403.575.219-.11V403.685Z" transform="translate(-12007.473 -273.477)" fill="#55859a" opacity="0.494"/>
      <path id="Path_1772" data-name="Path 1772" d="M10429,5967.453l-.633,798.207,701.781,404.57-2.379-824.51Z" transform="translate(-22882.27 -5827.551)" fill="#acdbf0" opacity="0.494"/>
      <path id="Path_1774" data-name="Path 1774" d="M11127.758,5977.839v810.685L10429,7186.076l-.062-823.87Z" transform="translate(-22183.5 -5844.812)" fill="#acdbf0" opacity="0.494"/>
    </g>
  </g>
</svg>
