<svg xmlns="http://www.w3.org/2000/svg" width="125.151" height="125.15" viewBox="0 0 125.151 125.15">
  <g id="Group_3177" data-name="Group 3177" transform="translate(-448 -1936.579)">
    <g id="Group_1580" data-name="Group 1580" transform="translate(-3553 -6141.421)">
      <g id="analytics" transform="translate(4001 8078)">
        <g id="Group_1578" data-name="Group 1578" transform="translate(0 0)">
          <g id="Group_1577" data-name="Group 1577">
            <path id="Path_2037" data-name="Path 2037" d="M123.622,116.252,92.5,85.126A52.232,52.232,0,1,0,85.123,92.5l31.126,31.126a5.214,5.214,0,1,0,7.373-7.373ZM52.146,93.866A41.717,41.717,0,1,1,93.863,52.149,41.765,41.765,0,0,1,52.146,93.866Z" transform="translate(0 -0.003)" fill="#003145"/>
          </g>
        </g>
      </g>
      <g id="Group_1579" data-name="Group 1579" transform="translate(4009.31 8110.192)">
        <g id="Group_1544" data-name="Group 1544" transform="translate(2.76 2.759)">
          <path id="Path_2019" data-name="Path 2019" d="M17,29.314l3.705-3.705a53.289,53.289,0,0,1,75.362,0l3.705,3.705-3.705,3.705A53.292,53.292,0,0,1,58.387,48.627,53.292,53.292,0,0,1,20.705,33.019Z" transform="translate(-17 -10)" fill="#fff"/>
        </g>
        <g id="Group_1545" data-name="Group 1545" transform="translate(24.465 2.618)">
          <ellipse id="Ellipse_109" data-name="Ellipse 109" cx="19" cy="20" rx="19" ry="20" transform="translate(0.225 -0.389)" fill="#fff"/>
        </g>
        <g id="Group_1546" data-name="Group 1546" transform="translate(36.231 14.383)">
          <circle id="Ellipse_110" data-name="Ellipse 110" cx="8" cy="8" r="8" transform="translate(0.46 -0.154)" fill="#fff"/>
        </g>
        <g id="Group_1554" data-name="Group 1554" transform="translate(0 0)">
          <path id="Path_2027" data-name="Path 2027" d="M60.146,53.146A55.675,55.675,0,0,1,20.514,36.729l-3.705-3.705a2.756,2.756,0,0,1,0-3.9l3.705-3.705a56.046,56.046,0,0,1,79.264,0l3.705,3.705a2.756,2.756,0,0,1,0,3.9l-3.705,3.705A55.675,55.675,0,0,1,60.146,53.146ZM22.661,31.073l1.755,1.755a50.2,50.2,0,0,0,35.73,14.8,50.2,50.2,0,0,0,35.73-14.8l1.755-1.755-1.755-1.755a50.531,50.531,0,0,0-71.461,0Z" transform="translate(-16 -9)" fill="#003145"/>
        </g>
        <g id="Group_1555" data-name="Group 1555" transform="translate(22.074 0)">
          <path id="Path_2028" data-name="Path 2028" d="M46.073,53.146A22.073,22.073,0,1,1,68.146,31.073,22.1,22.1,0,0,1,46.073,53.146Zm0-38.627A16.555,16.555,0,1,0,62.627,31.073,16.571,16.571,0,0,0,46.073,14.518Z" transform="translate(-24 -9)" fill="#003145"/>
        </g>
        <g id="Group_1556" data-name="Group 1556" transform="translate(33.11 11.037)">
          <path id="Path_2029" data-name="Path 2029" d="M39.036,35.073A11.036,11.036,0,1,1,50.073,24.036,11.048,11.048,0,0,1,39.036,35.073Zm0-16.555a5.518,5.518,0,1,0,5.518,5.518A5.524,5.524,0,0,0,39.036,18.518Z" transform="translate(-28 -13)" fill="#003145"/>
        </g>
      </g>
    </g>
  </g>
</svg>
