<svg xmlns="http://www.w3.org/2000/svg" width="120.836" height="116.946" viewBox="0 0 120.836 116.946"><defs><style>.a{fill:#fff;}.b{fill:#003145;}</style></defs><path class="a" d="M104.6,40H18.847A5.847,5.847,0,0,0,13,45.847V77.029a5.847,5.847,0,0,0,5.847,5.847H104.6a5.847,5.847,0,0,0,5.847-5.847V45.847A5.847,5.847,0,0,0,104.6,40Zm-1.949,29.233A5.847,5.847,0,0,1,96.8,75.08H87.058a1.949,1.949,0,0,1,0-3.9H96.8a1.949,1.949,0,0,0,1.949-1.949V57.54a1.949,1.949,0,0,1,3.9,0Z" transform="translate(10.391 34.07)"/><rect class="a" width="67" height="31" rx="3" transform="translate(39 39)"/><path class="b" d="M96.192,47.6a7.686,7.686,0,0,0-9.3-1.169L54.031,13.563A7.679,7.679,0,0,0,41.97,4.255L17.591,28.635a7.69,7.69,0,0,0,0,10.883A7.612,7.612,0,0,0,26.9,40.7l7.133,7.135-3.927,5.5a5.761,5.761,0,0,0,.618,7.445l.39.39L2.692,89.583a5.78,5.78,0,1,0,8.174,8.174L39.284,69.338l.39.39a5.761,5.761,0,0,0,7.447.618l5.5-3.927,7.133,7.135A7.679,7.679,0,0,0,71.813,82.86L96.192,58.481a7.692,7.692,0,0,0,0-10.885ZM20.347,36.762a3.8,3.8,0,0,1,0-5.371L44.725,7.011A3.8,3.8,0,1,1,50.1,12.382L25.718,36.762A3.9,3.9,0,0,1,20.347,36.762ZM51.478,16.517,83.933,48.974,62.3,70.607,29.846,38.14ZM36.528,66.582,8.11,95a1.927,1.927,0,0,1-2.662,0,1.887,1.887,0,0,1,0-2.662L33.866,63.92Zm8.328.585a1.883,1.883,0,0,1-2.426-.195l-8.953-8.965a1.875,1.875,0,0,1-.195-2.422l3.549-4.968,13,13Zm48.58-11.45L69.057,80.1a3.8,3.8,0,1,1-5.369-5.371L88.067,50.354a3.8,3.8,0,1,1,5.369,5.371Z" transform="translate(-0.998 -1.994)"/></svg>