<svg xmlns="http://www.w3.org/2000/svg" width="125.151" height="125.15" viewBox="0 0 125.151 125.15">
  <g id="Group_3178" data-name="Group 3178" transform="translate(-1347 -2350)">
    <g id="Group_1604" data-name="Group 1604" transform="translate(-2532 -5905.579)">
      <g id="analytics" transform="translate(3879 8255.579)">
        <g id="Group_1578" data-name="Group 1578" transform="translate(0 0)">
          <g id="Group_1577" data-name="Group 1577">
            <path id="Path_2037" data-name="Path 2037" d="M123.622,116.252,92.5,85.126A52.232,52.232,0,1,0,85.123,92.5l31.126,31.126a5.214,5.214,0,1,0,7.373-7.373ZM52.146,93.866A41.717,41.717,0,1,1,93.863,52.149,41.765,41.765,0,0,1,52.146,93.866Z" transform="translate(0 -0.003)" fill="#003145"/>
          </g>
        </g>
      </g>
      <g id="Group_1603" data-name="Group 1603" transform="translate(-306 -11)">
        <g id="Group_1597" data-name="Group 1597" transform="translate(4202.195 8289.942)">
          <g id="Group_1583" data-name="Group 1583" transform="translate(58.107 24.935)">
            <path id="Path_2040" data-name="Path 2040" d="M275.153,192.377a2.449,2.449,0,0,1-1.127-.275l-4.407-2.281a2.457,2.457,0,0,1,2.258-4.363l4.407,2.281a2.457,2.457,0,0,1-1.131,4.639Z" transform="translate(-268.29 -185.182)" fill="#003145"/>
          </g>
          <g id="Group_1584" data-name="Group 1584" transform="translate(50.691 32.952)">
            <path id="Path_2041" data-name="Path 2041" d="M250.9,218.991a2.45,2.45,0,0,1-1.787-.771l-3.472-3.681a2.457,2.457,0,1,1,3.574-3.371l3.472,3.681a2.457,2.457,0,0,1-1.787,4.142Z" transform="translate(-244.967 -210.396)" fill="#003145"/>
          </g>
          <g id="Group_1585" data-name="Group 1585" transform="translate(41.199 40.072)">
            <path id="Path_2042" data-name="Path 2042" d="M220.055,241.666a2.455,2.455,0,0,1-2.084-1.153l-2.482-3.962a2.456,2.456,0,1,1,4.163-2.608l2.482,3.962a2.457,2.457,0,0,1-2.079,3.761Z" transform="translate(-215.114 -232.79)" fill="#003145"/>
          </g>
          <g id="Group_1586" data-name="Group 1586" transform="translate(30.536 45.12)">
            <path id="Path_2043" data-name="Path 2043" d="M185.453,257.773a2.457,2.457,0,0,1-2.326-1.668l-1.422-4.194a2.456,2.456,0,0,1,4.653-1.578l1.422,4.194a2.458,2.458,0,0,1-2.327,3.246Z" transform="translate(-181.574 -248.665)" fill="#003145"/>
          </g>
          <g id="Group_1587" data-name="Group 1587" transform="translate(18.339 46.005)">
            <path id="Path_2044" data-name="Path 2044" d="M145.673,261.621c-.052,0-.1,0-.157,0a2.457,2.457,0,0,1-2.3-2.606l.332-5.257a2.457,2.457,0,0,1,4.9.309l-.332,5.257a2.457,2.457,0,0,1-2.449,2.3Z" transform="translate(-143.213 -251.451)" fill="#003145"/>
          </g>
          <g id="Group_1588" data-name="Group 1588" transform="translate(44.486)">
            <path id="Path_2045" data-name="Path 2045" d="M229.809,116.946a2.458,2.458,0,0,1-2.311-1.625l-1.9-5.277a2.457,2.457,0,0,1,4.622-1.665l1.9,5.277a2.459,2.459,0,0,1-2.311,3.29Z" transform="translate(-225.451 -106.755)" fill="#003145"/>
          </g>
          <g id="Group_1589" data-name="Group 1589" transform="translate(33.709 6.712)">
            <path id="Path_2046" data-name="Path 2046" d="M197.891,137.033a2.451,2.451,0,0,1-1.817-.8l-3.877-4.256a2.457,2.457,0,0,1,3.632-3.309l3.877,4.256a2.457,2.457,0,0,1-1.815,4.111Z" transform="translate(-191.556 -127.864)" fill="#003145"/>
          </g>
          <g id="Group_1590" data-name="Group 1590" transform="translate(21.725 8.678)">
            <path id="Path_2047" data-name="Path 2047" d="M157.351,144.274a2.457,2.457,0,0,1-2.408-1.987l-1.035-5.313a2.457,2.457,0,0,1,4.823-.939l1.035,5.313a2.459,2.459,0,0,1-2.414,2.926Z" transform="translate(-153.862 -134.048)" fill="#003145"/>
          </g>
          <g id="Group_1591" data-name="Group 1591" transform="translate(10.465 11.774)">
            <path id="Path_2048" data-name="Path 2048" d="M123.061,152.841a2.456,2.456,0,0,1-2.181-1.324l-2.154-4.141a2.457,2.457,0,1,1,4.359-2.267l2.154,4.141a2.458,2.458,0,0,1-2.178,3.591Z" transform="translate(-118.448 -143.786)" fill="#003145"/>
          </g>
          <g id="Group_1592" data-name="Group 1592" transform="translate(0.242 22.581)">
            <path id="Path_2049" data-name="Path 2049" d="M93.843,184.776a2.453,2.453,0,0,1-.93-.184l-5.093-2.085a2.456,2.456,0,1,1,1.862-4.546l5.093,2.085a2.457,2.457,0,0,1-.932,4.73Z" transform="translate(-86.294 -177.777)" fill="#003145"/>
          </g>
          <g id="Group_1593" data-name="Group 1593" transform="translate(54.075 2.176)">
            <path id="Path_2050" data-name="Path 2050" d="M258.065,123.059a2.457,2.457,0,0,1-2.1-3.732l2.76-4.545a2.457,2.457,0,1,1,4.2,2.551l-2.76,4.545A2.455,2.455,0,0,1,258.065,123.059Z" transform="translate(-255.61 -113.6)" fill="#003145"/>
          </g>
          <g id="Group_1594" data-name="Group 1594" transform="translate(59.979 13.75)">
            <path id="Path_2051" data-name="Path 2051" d="M276.632,155.674a2.457,2.457,0,0,1-.382-4.883l4.778-.758a2.457,2.457,0,1,1,.77,4.852l-4.778.758a2.483,2.483,0,0,1-.388.031Z" transform="translate(-274.178 -150.002)" fill="#003145"/>
          </g>
          <g id="Group_1595" data-name="Group 1595" transform="translate(0 34.256)">
            <path id="Path_2052" data-name="Path 2052" d="M87.991,221.395a2.457,2.457,0,0,1-.9-4.741l5.014-1.984a2.456,2.456,0,0,1,1.808,4.568l-5.014,1.984a2.452,2.452,0,0,1-.9.173Z" transform="translate(-85.533 -214.496)" fill="#003145"/>
          </g>
          <g id="Group_1596" data-name="Group 1596" transform="translate(7.236 42.314)">
            <path id="Path_2053" data-name="Path 2053" d="M110.746,249.007a2.457,2.457,0,0,1-2-3.883l3.033-4.253a2.457,2.457,0,0,1,4,2.853l-3.033,4.252A2.455,2.455,0,0,1,110.746,249.007Z" transform="translate(-108.291 -239.841)" fill="#003145"/>
          </g>
        </g>
        <g id="Group_1602" data-name="Group 1602" transform="translate(4208.765 8297.116)">
          <path id="Path_2055" data-name="Path 2055" d="M124.8,171.282c-7.332,0-13.328-3.124-16.449-8.57a16.438,16.438,0,0,1,19.993-23.574,12.428,12.428,0,0,0,4.12,1,4.917,4.917,0,0,0,3.576-1.61c3.11-3.006,6.826-6.261,6.846-6.277a12.236,12.236,0,0,1,7.651-2.928,11.618,11.618,0,0,1,8.074,3.51,12.432,12.432,0,0,1,4.055,10.712A16.03,16.03,0,0,1,158.785,152c-11.595,12.935-23.208,17.176-26.491,18.168a25.9,25.9,0,0,1-7.494,1.116h0Z" transform="translate(-106.197 -129.319)" fill="#003145"/>
          <g id="Group_1601" data-name="Group 1601" transform="translate(11.044 9.791)">
            <circle id="Ellipse_115" data-name="Ellipse 115" cx="6.313" cy="6.313" r="6.313" transform="translate(0 9.373)" fill="#f1f1f1"/>
            <circle id="Ellipse_116" data-name="Ellipse 116" cx="4.718" cy="4.718" r="4.718" transform="translate(26.513)" fill="#f1f1f1"/>
          </g>
        </g>
      </g>
    </g>
  </g>
</svg>
