<svg xmlns="http://www.w3.org/2000/svg" width="134" height="69.792" viewBox="0 0 134 69.792"><defs><style>.a{fill:#003145;}</style></defs><g transform="translate(0 -6.5)"><g transform="translate(100.5 14.875)"><path class="a" d="M29.167,30.333A11.167,11.167,0,1,1,40.333,19.167,11.178,11.178,0,0,1,29.167,30.333Zm0-13.958a2.792,2.792,0,1,0,2.792,2.792A2.793,2.793,0,0,0,29.167,16.375Z" transform="translate(-18 -8)"/></g><g transform="translate(100.5 42.792)"><path class="a" d="M47.313,35.333a4.189,4.189,0,0,1-4.188-4.188V28.354a6.989,6.989,0,0,0-6.979-6.979H22.188a4.188,4.188,0,0,1,0-8.375H36.146A15.367,15.367,0,0,1,51.5,28.354v2.792A4.189,4.189,0,0,1,47.313,35.333Z" transform="translate(-18 -13)"/></g><g transform="translate(11.167 14.875)"><path class="a" d="M13.167,30.333A11.167,11.167,0,1,1,24.333,19.167,11.178,11.178,0,0,1,13.167,30.333Zm0-13.958a2.792,2.792,0,1,0,2.792,2.792A2.793,2.793,0,0,0,13.167,16.375Z" transform="translate(-2 -8)"/></g><g transform="translate(0 42.792)"><path class="a" d="M4.188,35.333A4.189,4.189,0,0,1,0,31.146V28.354A15.367,15.367,0,0,1,15.354,13H29.313a4.188,4.188,0,0,1,0,8.375H15.354a6.989,6.989,0,0,0-6.979,6.979v2.792A4.189,4.189,0,0,1,4.188,35.333Z" transform="translate(0 -13)"/></g><g transform="translate(50.25 6.5)"><path class="a" d="M25.75,40A16.75,16.75,0,1,1,42.5,23.25,16.77,16.77,0,0,1,25.75,40Zm0-25.125a8.375,8.375,0,1,0,8.375,8.375A8.385,8.385,0,0,0,25.75,14.875Z" transform="translate(-9 -6.5)"/></g><g transform="translate(36.292 48.375)"><path class="a" d="M63.729,41.917a4.189,4.189,0,0,1-4.188-4.188V29.354a6.989,6.989,0,0,0-6.979-6.979H21.854a6.989,6.989,0,0,0-6.979,6.979v8.375a4.188,4.188,0,1,1-8.375,0V29.354A15.367,15.367,0,0,1,21.854,14H52.563A15.367,15.367,0,0,1,67.917,29.354v8.375A4.189,4.189,0,0,1,63.729,41.917Z" transform="translate(-6.5 -14)"/></g></g></svg>