<svg xmlns="http://www.w3.org/2000/svg" width="127.997" height="128.878" viewBox="0 0 127.997 128.878"><defs><style>.a{fill:#003145;}</style></defs><g transform="translate(0)"><path class="a" d="M126.849,124.181H109.821V48.733h4.4a2.316,2.316,0,0,0,2.349-2.349V19.963a2.316,2.316,0,0,0-2.349-2.349H86.042C84.868,7.926,75.474,0,64.024,0S43.181,7.633,42.006,17.614H13.824a2.316,2.316,0,0,0-2.349,2.349V46.384a2.316,2.316,0,0,0,2.349,2.349h4.4v75.741H3.549A2.316,2.316,0,0,0,1.2,126.823a2.844,2.844,0,0,0,2.349,2.055h123.3a2.349,2.349,0,1,0,0-4.7Zm-76.329,0V104.218H62.85v19.963Zm29.357,0H67.547V104.218h12.33Zm25.541,0H84.281V101.869a2.316,2.316,0,0,0-2.349-2.349H48.465a2.316,2.316,0,0,0-2.349,2.349v22.311H22.337V48.733h83.081v75.448ZM20.282,44.329h-4.4V22.311H43.768a2.316,2.316,0,0,0,2.349-2.349c0-8.514,7.926-15.266,17.908-15.266s17.908,6.752,17.908,15.266a2.316,2.316,0,0,0,2.349,2.349H112.17V44.329H20.282Z" transform="translate(-1.2)"/></g><g transform="translate(51.081 14.385)"><path class="a" d="M161.537,48.594h-7.046V41.549a2.349,2.349,0,0,0-4.7,0v7.046h-7.046a2.316,2.316,0,0,0-2.349,2.349,2.161,2.161,0,0,0,2.349,2.349h7.046v7.046a2.349,2.349,0,0,0,4.7,0V53.291h7.046a2.349,2.349,0,0,0,0-4.7Z" transform="translate(-140.4 -39.2)"/></g><g transform="translate(35.229 59.008)"><path class="a" d="M114.227,160.8H99.549a2.349,2.349,0,0,0,0,4.7h14.679a2.349,2.349,0,1,0,0-4.7Z" transform="translate(-97.2 -160.8)"/></g><g transform="translate(35.229 79.851)"><path class="a" d="M114.227,217.6H99.549a2.349,2.349,0,1,0,0,4.7h14.679a2.349,2.349,0,1,0,0-4.7Z" transform="translate(-97.2 -217.6)"/></g><g transform="translate(70.457 59.008)"><path class="a" d="M210.227,160.8H195.549a2.316,2.316,0,0,0-2.349,2.349c.294,1.468,1.174,2.349,2.349,2.349h14.679a2.349,2.349,0,1,0,0-4.7Z" transform="translate(-193.2 -160.8)"/></g><g transform="translate(70.457 79.851)"><path class="a" d="M210.227,217.6H195.549a2.316,2.316,0,0,0-2.349,2.349c.294,1.468,1.174,2.349,2.349,2.349h14.679a2.349,2.349,0,1,0,0-4.7Z" transform="translate(-193.2 -217.6)"/></g></svg>