<svg xmlns="http://www.w3.org/2000/svg" width="124.734" height="124.73" viewBox="0 0 124.734 124.73"><defs><style>.a{fill:#fff;}.b{fill:#003145;}</style></defs><g transform="translate(-0.999 -1.004)"><path class="a" d="M86.779,45.062H57.588l9.5-10.22a11.709,11.709,0,0,0-6.7-19.635,12.353,12.353,0,0,0-11.729,4.185L27.894,44a6.86,6.86,0,0,0-2.314,5.09v60.475a2.012,2.012,0,0,0,2.012,2.012h51.14a21.868,21.868,0,0,0,22.13-21.506v-31.3A13.922,13.922,0,0,0,86.779,45.062Z" transform="translate(24.871 14.156)"/><path class="a" d="M31.891,29.943h-7.4A11.145,11.145,0,0,0,13,40.706V85.69A11.145,11.145,0,0,0,24.487,96.453h7.4A2.012,2.012,0,0,0,33.9,94.442V31.914A2.012,2.012,0,0,0,31.891,29.943Z" transform="translate(12.143 29.275)"/><g transform="translate(0.999 1.004)"><path class="b" d="M74.01,1.6S65.379,10.25,57.332,10.25,40.754,1.68,40.654,1.6a2.012,2.012,0,0,0-2.857,0c-.1.08-8.631,8.651-16.678,8.651S4.542,1.68,4.441,1.6A2.012,2.012,0,0,0,1,3.008v59.55a38.667,38.667,0,0,0,38.224,39.029A38.667,38.667,0,0,0,77.45,62.557V3.008A2.012,2.012,0,0,0,74.01,1.6Zm-.583,60.958a34.643,34.643,0,0,1-34.2,35.006,34.643,34.643,0,0,1-34.2-35.006V7.454c3.662,2.9,9.8,6.82,16.095,6.82,7.665,0,15.068-5.794,18.106-8.51,3.038,2.716,10.441,8.51,18.106,8.51,6.3,0,12.433-3.923,16.095-6.82Z" transform="translate(-0.999 -1.004)"/><path class="b" d="M6,13.362V51.385a28.165,28.165,0,0,0,56.331,0V13.362a2.012,2.012,0,0,0-2.012-2.012H8.012A2.012,2.012,0,0,0,6,13.362Zm4.024,2.012H58.307V51.385a24.142,24.142,0,0,1-48.284,0Z" transform="translate(4.061 9.464)"/><path class="b" d="M25.922,46.667,46.744,25.844a2.02,2.02,0,1,0-2.857-2.857L24.493,42.4,14.434,32.242A2.02,2.02,0,1,0,11.578,35.1L23.085,46.667a2.012,2.012,0,0,0,2.837,0Z" transform="translate(9.106 20.64)"/></g></g></svg>