<svg xmlns="http://www.w3.org/2000/svg" xmlns:xlink="http://www.w3.org/1999/xlink" width="250.986" height="91.6" viewBox="0 0 250.986 91.6"><defs><style>.a{fill:#021745;}.b,.c,.d{fill-rule:evenodd;}.b{fill:url(#a);}.c{fill:url(#b);}.d{fill:url(#c);}</style><linearGradient id="a" y1="1.059" x2="0.786" y2="0.071" gradientUnits="objectBoundingBox"><stop offset="0" stop-color="#042b7e"/><stop offset="0.33" stop-color="#032365"/><stop offset="0.75" stop-color="#02194a"/><stop offset="1" stop-color="#021640"/></linearGradient><linearGradient id="b" x1="0.014" y1="0.841" x2="0.838" y2="0.194" gradientUnits="objectBoundingBox"><stop offset="0" stop-color="#3d80fa"/><stop offset="0.16" stop-color="#3879f0"/><stop offset="0.44" stop-color="#2a65d6"/><stop offset="0.79" stop-color="#1446ab"/><stop offset="1" stop-color="#05318f"/></linearGradient><linearGradient id="c" x1="0.089" y1="0.82" x2="0.938" y2="0.045" gradientUnits="objectBoundingBox"><stop offset="0" stop-color="#66dffc"/><stop offset="0.21" stop-color="#61dbf9"/><stop offset="0.45" stop-color="#54d0f2"/><stop offset="0.7" stop-color="#3ebde5"/><stop offset="0.95" stop-color="#20a4d3"/><stop offset="1" stop-color="#199ecf"/></linearGradient></defs><g transform="translate(0 0)"><path class="a" d="M473,1575.171V1531.54h5.44V1570.3h20.279v4.842H473Z" transform="translate(-366.888 -1483.571)"/><path class="a" d="M551.044,1575.171l-3.863-9.684H525.468l-3.863,9.684H515.39l17.531-43.631h6.739l17.626,43.631h-6.215Zm-14.716-38.007-9.289,23.481h18.51Z" transform="translate(-380.451 -1483.571)"/><path class="a" d="M579.17,1551.889c0-13.41,9.881-22.57,22.441-22.57a19.517,19.517,0,0,1,16.545,8.623l-4.577,2.55a14.723,14.723,0,0,0-11.968-6.345c-9.521,0-16.81,7.324-16.81,17.728s7.263,17.729,16.81,17.729a14.554,14.554,0,0,0,11.968-6.345l4.645,2.55c-3.665,4.971-8.895,8.636-16.613,8.636C589.051,1574.459,579.17,1565.3,579.17,1551.889Z" transform="translate(-400.859 -1482.859)"/><path class="a" d="M653.978,1513.056v-3.142c11.418-8.99,17.6-14.281,17.6-19.721,0-4.046-3.332-5.8-6.61-5.8a10.608,10.608,0,0,0-8.609,4l-2.428-2.523a13.739,13.739,0,0,1,11.037-5c5.284,0,10.656,3,10.656,9.323,0,6.467-6.562,12.37-15.416,19.36h15.559v3.523H653.978Z" transform="translate(-424.78 -1467.358)"/><path class="b" d="M420.074,1466.328c20.19,0,46.016,2.623,63.541,16.373a68,68,0,0,0-20.312-3.149c-35.491,0-67.459,28.187-89.907,73.266H317c27.031-56.157,59.545-86.491,103.074-86.491l.034.007Z" transform="translate(-316.973 -1461.349)"/><path class="c" d="M483.595,1477.825a85.947,85.947,0,0,0-9.459-1.727c-.639-.082-1.272-.163-1.918-.224-.394-.048-.789-.082-1.17-.116-.775-.068-1.537-.129-2.3-.177-.9-.061-1.816-.1-2.72-.129s-1.816-.048-2.72-.048c-35.491,0-67.466,21.6-89.907,56.15H316.96c26.664-42.468,60.934-62.7,103.755-63.41h3.332C443.66,1468.429,466.519,1467.59,483.595,1477.825Z" transform="translate(-316.96 -1461.47)"/><path class="d" d="M483.595,1472.472a115.584,115.584,0,0,0-11.867-1.408l-1.122-.068c-.544-.034-1.074-.061-1.618-.082q-1.02-.051-2.04-.082l-1.217-.034h-2.421a122.2,122.2,0,0,0-89.907,39.4H316.96A146.791,146.791,0,0,1,424.942,1461h3.046a145.933,145.933,0,0,1,55.606,11.472Z" transform="translate(-316.96 -1461)"/></g></svg>