<svg xmlns="http://www.w3.org/2000/svg" width="120.825" height="120.84" viewBox="0 0 120.825 120.84"><defs><style>.a{fill:#fff;}.b{fill:#003145;}</style></defs><path class="a" d="M88.1,43.821c-.54-2.021.631-5.375-.947-8.1-1.6-2.767-5.108-3.42-6.546-4.872-1.473-1.469-2.093-4.944-4.872-6.548-2.715-1.559-6.114-.417-8.107-.945s-4.247-3.229-7.49-3.229-5.58,2.719-7.49,3.227c-2.029.536-5.385-.631-8.1.947-2.765,1.6-3.43,5.114-4.872,6.546-1.471,1.475-4.954,2.1-6.55,4.872-1.573,2.728-.413,6.106-.947,8.105s-3.227,4.247-3.227,7.492c0,3.292,2.7,5.521,3.227,7.492.54,2.017-.629,5.377.945,8.1s5.124,3.438,6.55,4.872c1.473,1.475,2.091,4.946,4.863,6.548,2.74,1.583,6.1.411,8.105.949,1.972.526,4.247,3.227,7.492,3.227,3.292,0,5.521-2.7,7.49-3.227,2.037-.546,5.363.635,8.1-.947s3.438-5.122,4.872-6.548c1.473-1.475,4.946-2.091,6.548-4.872,1.573-2.728.413-6.11.947-8.105s3.229-4.247,3.229-7.492S88.621,45.74,88.1,43.821Zm-14.722.893L59.737,62.253A1.949,1.949,0,0,1,56.7,62.3L46.956,50.61a1.95,1.95,0,0,1,3-2.5l8.185,9.834L70.3,42.32a1.955,1.955,0,0,1,3.091,2.393Z" transform="translate(25.52 17.149)"/><path class="a" d="M53.512,56.8c-1.405-.117-5.426.739-8.982-1.317-3.732-2.155-4.894-6.236-5.7-7.211-.105-.078-.54-.312-.949-.526L27.67,61.777a3.9,3.9,0,0,0,3.151,6.19h8.411L41.509,74.8A3.9,3.9,0,0,0,48.33,75.9L60.265,59.99a22.362,22.362,0,0,1-6.753-3.19Z" transform="translate(23.6 43.36)"/><path class="a" d="M78.482,61.782,68.276,47.75a8.053,8.053,0,0,0-1.019.6c-.711.93-1.978,5.018-5.634,7.133-3.7,2.134-7.846,1.107-9.078,1.343A21.023,21.023,0,0,1,45.891,60L57.826,75.912A3.9,3.9,0,0,0,64.647,74.8l2.278-6.833h8.411a3.9,3.9,0,0,0,3.146-6.19Z" transform="translate(41.597 43.365)"/><path class="b" d="M98.445,14.644A1.949,1.949,0,0,0,96.5,12.7H53.018L51.654,2.686a1.949,1.949,0,0,0-3.863,0L46.427,12.7H2.949a1.949,1.949,0,1,0,0,3.9H14.7L1.1,53.979c-.019.058-.084.719-.09.78a16.564,16.564,0,1,0,33.127-.016,5.652,5.652,0,0,0-.1-.78L20.1,16.593h25.8l-9.567,70.16H30.234A5.847,5.847,0,0,0,24.387,92.6v1.949H2.949a1.949,1.949,0,1,0,0,3.9H96.5a1.949,1.949,0,0,0,0-3.9H75.058V92.6a5.847,5.847,0,0,0-5.847-5.847H63.117L53.55,16.593h25.8L65.425,53.973a5.7,5.7,0,0,0-.1.78,16.566,16.566,0,0,0,33.116,0c0-.058-.07-.719-.09-.776L84.746,16.593H96.5A1.949,1.949,0,0,0,98.445,14.644ZM17.416,20.8,29.47,52.648H5.644Zm.15,46.466A12.689,12.689,0,0,1,5.048,56.545H30.083A12.689,12.689,0,0,1,17.566,67.264ZM71.16,92.6v1.949H28.285V92.6a1.949,1.949,0,0,1,1.949-1.949H69.212A1.949,1.949,0,0,1,71.16,92.6Zm-30.9-5.847,9.46-69.381,9.46,69.381ZM82.029,20.8,93.8,52.648H69.975Zm-.15,46.466A12.689,12.689,0,0,1,69.362,56.545H94.4A12.689,12.689,0,0,1,81.879,67.264Z" transform="translate(-1 -0.998)"/></svg>