<svg xmlns="http://www.w3.org/2000/svg" xmlns:xlink="http://www.w3.org/1999/xlink" width="58.96" height="73.985" viewBox="0 0 58.96 73.985"><defs><style>.a{fill:url(#a);}.b{fill:url(#b);}.c{fill:url(#c);}</style><linearGradient id="a" x1="0.988" y1="1.216" x2="0.207" y2="0.124" gradientUnits="objectBoundingBox"><stop offset="0" stop-color="#1db7ed"/><stop offset="0.19" stop-color="#1cb4e9"/><stop offset="0.36" stop-color="#17aade"/><stop offset="0.52" stop-color="#109acc"/><stop offset="0.68" stop-color="#0683b2"/><stop offset="0.77" stop-color="#0074a1"/></linearGradient><linearGradient id="b" x1="0.437" y1="0.98" x2="0.503" y2="0.105" gradientUnits="objectBoundingBox"><stop offset="0" stop-color="#1db7ed"/><stop offset="0.34" stop-color="#1cb5ea"/><stop offset="0.54" stop-color="#19ade2"/><stop offset="0.7" stop-color="#13a1d4"/><stop offset="0.85" stop-color="#0c8fc0"/><stop offset="0.98" stop-color="#0278a6"/><stop offset="1" stop-color="#0074a1"/></linearGradient><linearGradient id="c" x1="0.222" y1="0.3" x2="0.967" y2="0.798" gradientUnits="objectBoundingBox"><stop offset="0" stop-color="#1db7ed"/><stop offset="0.24" stop-color="#1cb4e9"/><stop offset="0.47" stop-color="#17aade"/><stop offset="0.68" stop-color="#109acc"/><stop offset="0.89" stop-color="#0683b2"/><stop offset="1" stop-color="#0074a1"/></linearGradient></defs><g transform="translate(0 0)"><g transform="translate(0 0)"><path class="a" d="M54.648,28.437h.092V41.613H37.383c-1.744,0-2.6-2.946-1.36-4.172l12-11.782a3.9,3.9,0,0,1,6.625,2.779Z" transform="translate(-5.984 -4.072)"/><path class="b" d="M53.857,70.078l-7.51,7.593L40.657,83.3a2.912,2.912,0,0,1-5.007-2.061V61.55H49.743a5.474,5.474,0,0,1,5.249,5.24c0,.976.325,1.544-.217,2.353Z" transform="translate(-6.02 -10.199)"/><path class="c" d="M56.714,50.9,47.8,59.872a5.007,5.007,0,0,0,.743-3.6,5.09,5.09,0,0,0-5.073-4.072H8.367A8.344,8.344,0,0,1,2.526,38.01L38.741,1.72a5.841,5.841,0,0,1,9.971,4.122V24.367H48.62a3.9,3.9,0,0,0-6.625-2.779L30,33.379a1.944,1.944,0,0,0,1.36,3.338H50.823A8.344,8.344,0,0,1,56.714,50.9Z" transform="translate(-0.14 -0.009)"/></g></g></svg>