<svg xmlns="http://www.w3.org/2000/svg" xmlns:xlink="http://www.w3.org/1999/xlink" width="22.993" height="28.853" viewBox="0 0 22.993 28.853"><defs><style>.a{fill:url(#a);}.b{fill:url(#b);}.c{fill:url(#c);}</style><linearGradient id="a" x1="0.988" y1="1.216" x2="0.207" y2="0.124" gradientUnits="objectBoundingBox"><stop offset="0" stop-color="#1db7ed"/><stop offset="0.19" stop-color="#1cb4e9"/><stop offset="0.36" stop-color="#17aade"/><stop offset="0.52" stop-color="#109acc"/><stop offset="0.68" stop-color="#0683b2"/><stop offset="0.77" stop-color="#0074a1"/></linearGradient><linearGradient id="b" x1="0.437" y1="0.98" x2="0.503" y2="0.105" gradientUnits="objectBoundingBox"><stop offset="0" stop-color="#1db7ed"/><stop offset="0.34" stop-color="#1cb5ea"/><stop offset="0.54" stop-color="#19ade2"/><stop offset="0.7" stop-color="#13a1d4"/><stop offset="0.85" stop-color="#0c8fc0"/><stop offset="0.98" stop-color="#0278a6"/><stop offset="1" stop-color="#0074a1"/></linearGradient><linearGradient id="c" x1="0.222" y1="0.3" x2="0.967" y2="0.798" gradientUnits="objectBoundingBox"><stop offset="0" stop-color="#1db7ed"/><stop offset="0.24" stop-color="#1cb4e9"/><stop offset="0.47" stop-color="#17aade"/><stop offset="0.68" stop-color="#109acc"/><stop offset="0.89" stop-color="#0683b2"/><stop offset="1" stop-color="#0074a1"/></linearGradient></defs><g transform="translate(0 0)"><g transform="translate(0 0)"><path class="a" d="M42.928,26.062h.036V31.2H36.2c-.68,0-1.015-1.149-.53-1.627l4.679-4.595a1.52,1.52,0,0,1,2.584,1.084Z" transform="translate(-23.95 -16.56)"/><path class="b" d="M42.75,64.876l-2.929,2.961L37.6,70.03a1.136,1.136,0,0,1-1.952-.8V61.55h5.5a2.135,2.135,0,0,1,2.047,2.044c0,.381.127.6-.085.918Z" transform="translate(-24.095 -41.524)"/><path class="c" d="M22.2,19.856l-3.475,3.5a1.952,1.952,0,0,0,.29-1.406,1.985,1.985,0,0,0-1.979-1.588H3.349a3.254,3.254,0,0,1-2.278-5.532L15.194.677a2.278,2.278,0,0,1,3.889,1.608V9.508h-.036a1.52,1.52,0,0,0-2.584-1.084l-4.679,4.6a.758.758,0,0,0,.53,1.3h7.592a3.254,3.254,0,0,1,2.3,5.532Z" transform="translate(-0.14 -0.009)"/></g></g></svg>