<svg xmlns="http://www.w3.org/2000/svg" width="46.438" height="46.438" viewBox="0 0 46.438 46.438"><defs><style>.a{fill:#fff;}</style></defs><path class="a" d="M23.219,0A23.219,23.219,0,1,0,46.438,23.219,23.221,23.221,0,0,0,23.219,0ZM16.472,35.1H10.817V18.088h5.655ZM13.644,15.764h-.037a2.947,2.947,0,1,1,.074-5.878,2.948,2.948,0,1,1-.038,5.878ZM36.862,35.1H31.208V26c0-2.287-.819-3.847-2.865-3.847a3.1,3.1,0,0,0-2.9,2.068,3.872,3.872,0,0,0-.186,1.38v9.5H19.6s.074-15.417,0-17.013h5.654V20.5a5.614,5.614,0,0,1,5.1-2.808c3.72,0,6.51,2.431,6.51,7.657Zm0,0"/></svg>