<svg xmlns="http://www.w3.org/2000/svg" width="128.872" height="128.878" viewBox="0 0 128.872 128.878"><defs><style>.a{fill:#003145;}</style></defs><g transform="translate(0 0)"><path class="a" d="M60.748,22.565l-25.82,25.82L21.259,34.715l-3.037,3.037L33.41,52.94a2.148,2.148,0,0,0,3.037,0L63.785,25.6Z" transform="translate(16.621 21.611)"/><path class="a" d="M124.429,87.918h-2.148V81.474A15.048,15.048,0,0,0,113.024,67.6a52.536,52.536,0,0,0,.666-7.99V21.334a2.12,2.12,0,0,0-1.5-2.04L58.489,2.11a1.9,1.9,0,0,0-1.289,0L3.5,19.293A2.12,2.12,0,0,0,2,21.334V59.609a53.561,53.561,0,0,0,19.159,41.11L56.47,130.381a2.159,2.159,0,0,0,2.749,0l15.808-13.274v7.324a6.463,6.463,0,0,0,6.444,6.444h42.957a6.463,6.463,0,0,0,6.444-6.444V94.361a6.463,6.463,0,0,0-6.444-6.444Zm-6.444-6.444v6.444h-4.3V81.474a6.463,6.463,0,0,0-6.444-6.444H98.654a6.463,6.463,0,0,0-6.444,6.444v6.444h-4.3V81.474A10.739,10.739,0,0,1,98.654,70.735h8.591A10.739,10.739,0,0,1,117.985,81.474Zm-8.591,0v6.444H96.506V81.474a2.148,2.148,0,0,1,2.148-2.148h8.591A2.148,2.148,0,0,1,109.394,81.474ZM75.028,94.361V111.48L57.845,125.914l-33.936-28.5A49.234,49.234,0,0,1,6.3,59.609V22.9l51.549-16.5,51.549,16.5V59.609a49.994,49.994,0,0,1-.537,6.916,13.5,13.5,0,0,0-1.611-.086H98.654A15.052,15.052,0,0,0,83.619,81.474v6.444H81.471a6.463,6.463,0,0,0-6.444,6.444Zm51.549,30.07a2.148,2.148,0,0,1-2.148,2.148H81.471a2.148,2.148,0,0,1-2.148-2.148V94.361a2.148,2.148,0,0,1,2.148-2.148h42.957a2.148,2.148,0,0,1,2.148,2.148Z" transform="translate(-2 -1.997)"/></g></svg>