<svg xmlns="http://www.w3.org/2000/svg" width="125.152" height="125.15" viewBox="0 0 125.152 125.15"><defs><style>.a{fill:#fff;}.b{fill:#003145;}.c{fill:#151a6a;}</style></defs><g transform="translate(-0.999 -1)"><g transform="translate(49.443 25.221)"><path class="a" d="M83.54,25.112a2.019,2.019,0,1,1,0-4.037h18.167V19.056A6.056,6.056,0,0,0,95.651,13H35.544a10.4,10.4,0,0,0-10.5,9.083,10.1,10.1,0,0,0,10.046,11.1h66.612V25.112Z" transform="translate(-24.999 -12.999)"/><path class="a" d="M37.111,27.158H35.093A14.067,14.067,0,0,1,25,22.881v70.89a10.1,10.1,0,0,0,10.093,10.093h2.019Z" transform="translate(-24.997 -2.934)"/><ellipse class="a" cx="14" cy="14.5" rx="14" ry="14.5" transform="translate(32.556 42.2)"/><path class="a" d="M33,25v76.705H87.5a6.056,6.056,0,0,0,6.056-6.056V25ZM79.427,87.575H47.13a2.019,2.019,0,1,1,0-4.037h32.3a2.019,2.019,0,1,1,0,4.037ZM63.278,75.464A18.167,18.167,0,1,1,81.445,57.3,18.167,18.167,0,0,1,63.278,75.464Z" transform="translate(-16.849 -0.776)"/></g><path class="b" d="M105.97,1H7.7A6.7,6.7,0,0,0,1,7.7V63.535a6.7,6.7,0,0,0,6.7,6.7H105.97a6.7,6.7,0,0,0,6.7-6.7V7.7A6.7,6.7,0,0,0,105.97,1ZM5.467,7.7A2.233,2.233,0,0,1,7.7,5.467h8.733A13.418,13.418,0,0,1,5.467,16.433ZM7.7,65.769a2.233,2.233,0,0,1-2.233-2.233V54.8A13.418,13.418,0,0,1,16.433,65.769Zm100.5-2.233a2.233,2.233,0,0,1-2.233,2.233H97.237A13.418,13.418,0,0,1,108.2,54.8Zm0-13.246a17.885,17.885,0,0,0-15.48,15.48H20.946a17.885,17.885,0,0,0-15.48-15.48V20.946a17.885,17.885,0,0,0,15.48-15.48H92.723a17.885,17.885,0,0,0,15.48,15.48Zm0-33.856A13.418,13.418,0,0,1,97.237,5.467h8.733A2.233,2.233,0,0,1,108.2,7.7Z" transform="translate(0.001)"/><path class="c" d="M35.25,9A16.75,16.75,0,1,0,52,25.75,16.75,16.75,0,0,0,35.25,9Zm0,29.034A12.284,12.284,0,1,1,47.534,25.75,12.284,12.284,0,0,1,35.25,38.034Z" transform="translate(21.585 9.867)"/><path class="b" d="M110.437,41.7H8.626l2.888-2.888a2.233,2.233,0,1,0-3.158-3.158l-6.7,6.7a2.233,2.233,0,0,0,0,3.162l6.7,6.7a2.233,2.233,0,1,0,3.158-3.158L8.626,46.167H110.437a2.233,2.233,0,1,0,0-4.467Z" transform="translate(0 41.936)"/><path class="b" d="M112.013,50.354l-6.7-6.7a2.233,2.233,0,1,0-3.158,3.158l2.89,2.89H3.233a2.233,2.233,0,0,0,0,4.467H105.045l-2.888,2.888a2.233,2.233,0,1,0,3.158,3.158l6.7-6.7a2.233,2.233,0,0,0,0-3.16Z" transform="translate(0.001 51.802)"/></g></svg>