<svg xmlns="http://www.w3.org/2000/svg" xmlns:xlink="http://www.w3.org/1999/xlink" width="420.841" height="95.858" viewBox="0 0 420.841 95.858"><defs><style>.a{fill:#fff;}.b{clip-path:url(#a);}.c{fill:#0086b9;}.c,.d,.e,.f{fill-rule:evenodd;}.d{fill:#00b5f8;}.e{fill:#005d96;}.f{fill:#686b73;}</style><clipPath id="a"><rect class="a" width="420.841" height="95.858"/></clipPath></defs><g class="b"><path class="c" d="M50.919,126.866l10.055,5.694V105.229L50.919,99.535Z" transform="translate(-18.807 -36.764)"/><path class="d" d="M50.919,63.206,60.954,68.79l10.035-5.584L60.954,57.623Z" transform="translate(-18.807 -21.283)"/><path class="e" d="M66.831,72.065V83.219l10.034-5.577V66.487Z" transform="translate(-24.684 -24.557)"/><path class="c" d="M50.919,77.642l10.035,5.577V72.065L50.919,66.487Z" transform="translate(-18.807 -24.557)"/><path class="d" d="M8.133,28.566.129,24,42.153,0,80.181,21.713l4,2.283L62.172,36.561h0l-2.008,1.147L42.153,27.424,24.143,37.707l-8-4.571h0l-8-4.571ZM42.153,9.141,12.137,26.281l8,4.571L42.153,18.283,64.17,30.854l8-4.571Z" transform="translate(-0.048)"/><path class="c" d="M24.132,99.655l-24-13.7V38.026l24,13.7Zm-16-52.5V81.394l8,4.565V51.718Z" transform="translate(-0.048 -14.045)"/><path class="e" d="M100.851,42.613l8.005-4.559V85.921L66.831,109.854v-9.118l.011-.006V91.613l-.011.006V82.5L84.841,72.245V51.731l8-4.559v0l8-4.559Zm-8,34.191-22,12.53v9.117l30.006-17.089V47.175l-8,4.559Z" transform="translate(-24.684 -14.055)"/><path class="f" d="M220.126,82.311c13.475,0,23.353-10.168,23.353-23.238a23.353,23.353,0,1,0-46.707,0C196.773,72.12,206.651,82.311,220.126,82.311Zm0-40.207c9.479,0,16.161,7.044,16.161,16.969,0,9.858-6.66,16.836-16.161,16.836-9.479,0-16.162-6.978-16.162-16.836C203.965,49.148,210.625,42.1,220.126,42.1Z" transform="translate(-72.679 -13.186)"/><path class="f" d="M297.157,62.118a11.051,11.051,0,0,0-8.591,3.832h-.022V62.893h-6.549v41.736h6.549v-16.7a11.467,11.467,0,0,0,8.658,4.164c6.682,0,13.675-5.826,13.675-15.108C310.876,67.878,304.527,62.118,297.157,62.118ZM296.2,86.176c-5.262,0-8.014-4.209-8.014-9.016,0-6.026,3.907-9.149,8.014-9.149,3.974,0,7.881,3.123,7.881,9.016C304.083,82.078,301.153,86.176,296.2,86.176Z" transform="translate(-104.156 -22.944)"/><path class="f" d="M343.669,63.276V85.694h-6.548V63.276H334.3V57.383h2.82V47.259h6.548V57.383h5v5.893Z" transform="translate(-123.475 -17.455)"/><path class="f" d="M363.821,33.595h6.548V54.8a9.993,9.993,0,0,1,7.638-3.212c5.194,0,7.635,2.681,8.412,3.832,1.8,2.614,1.8,5.76,1.8,7.864V80.625h-6.55v-16.7c0-1.928.067-3.39-1.288-4.94a4.476,4.476,0,0,0-3.795-1.529A5.749,5.749,0,0,0,371.7,59.89c-1.22,1.795-1.353,4.608-1.353,7.111V80.647H363.8V33.595Z" transform="translate(-134.37 -12.408)"/><path class="f" d="M436.467,88.649a17.361,17.361,0,0,0,3.729-4.807l-5.506-3.057a9.674,9.674,0,0,1-2.885,3.9,7.328,7.328,0,0,1-4.485,1.529,7.476,7.476,0,0,1-7.636-7.555h20.268V77.639c0-3.766-.888-7.731-2.62-10.3-2.062-3.013-5.726-5.184-10.788-5.184-8.347,0-13.674,6.026-13.674,15.108,0,10.3,7.17,14.843,13.718,14.843A15.322,15.322,0,0,0,436.467,88.649Zm-9.812-20.624a6.538,6.538,0,0,1,6.549,5.251H420.039A6.828,6.828,0,0,1,426.655,68.025Z" transform="translate(-152.495 -22.957)"/><path class="f" d="M466.574,62.908h6.55v2.57a8.5,8.5,0,0,1,6.724-3.323,9.788,9.788,0,0,1,5.329,1.661l-2.953,5.959a5.834,5.834,0,0,0-3.73-1.351,4.785,4.785,0,0,0-4.24,2.238c-1.086,1.728-1.153,4.032-1.153,5.826V91.219h-6.55V62.908Z" transform="translate(-172.322 -22.957)"/><path class="f" d="M508.721,42.394a4.24,4.24,0,1,0-4.24,4.231A4.279,4.279,0,0,0,508.721,42.394Zm-.976,39.941V54.046h-6.55V82.335Z" transform="translate(-184.766 -14.096)"/><path class="f" d="M531.3,63.349v16.26c0,1.728,0,3.589,1.221,5.117a5.226,5.226,0,0,0,4.373,1.927,5.292,5.292,0,0,0,4.374-1.927c1.22-1.528,1.22-3.389,1.22-5.117V63.349h6.55V79.742c0,3.323-.2,6.4-3.02,9.282-2.953,3.079-7.259,3.522-9.235,3.522a13.028,13.028,0,0,1-8.991-3.522c-2.818-2.88-3.018-5.959-3.018-9.282V63.349Z" transform="translate(-193.826 -23.398)"/><path class="f" d="M575.813,62.893h6.55v2.614a8.479,8.479,0,0,1,7.06-3.389,7.985,7.985,0,0,1,7.3,4.231,9.711,9.711,0,0,1,8.415-4.231,8.758,8.758,0,0,1,8.079,4.475c.712,1.152,1.465,3.013,1.465,7.111V91.183h-6.547V75.631a14.977,14.977,0,0,0-.579-5.051,3.753,3.753,0,0,0-3.795-2.57,4.562,4.562,0,0,0-3.974,2.171c-.379.576-1.288,2.237-1.288,6.4v14.6H592V75.631a18.324,18.324,0,0,0-.641-5.051,3.662,3.662,0,0,0-3.8-2.57,4.524,4.524,0,0,0-3.974,2.171c-1.088,1.661-1.221,4.1-1.221,6.4v14.6h-6.55Z" transform="translate(-212.678 -22.944)"/><path class="f" d="M650.962,64.5h-1.818v4.9h-1.007V64.5h-1.816v-.865h4.62V64.5Z" transform="translate(-238.721 -23.505)"/><path class="f" d="M661.446,69.407H660.5V64.97l-1.576,4.437h-.812L656.5,64.97v4.437h-.94V63.638h1.4l1.6,4.5,1.533-4.5h1.4v5.768Z" transform="translate(-242.132 -23.505)"/></g></svg>