<svg xmlns="http://www.w3.org/2000/svg" width="122.158" height="125.151" viewBox="0 0 122.158 125.151">
  <g id="blood-pressure-gauge" transform="translate(-6.122)">
    <g id="Group_1902" data-name="Group 1902" transform="translate(45.823 0)">
      <path id="Path_2824" data-name="Path 2824" d="M171.018,36.488a25.7,25.7,0,0,1,5.017-29.215c9.691-9.7,26.6-9.7,36.3,0l-5.185,5.185a18.778,18.778,0,0,0-25.931,0,18.369,18.369,0,0,0-3.585,20.871Z" transform="translate(-168.518 0)" fill="#003145"/>
    </g>
    <g id="Group_1904" data-name="Group 1904" transform="translate(41.498 88.427)">
      <g id="Group_1903" data-name="Group 1903">
        <path id="Path_2825" data-name="Path 2825" d="M150.828,390.926l5.185-5.185a18.34,18.34,0,0,0,29.515-20.874l6.618-3.159a25.673,25.673,0,0,1-41.319,29.218Z" transform="translate(-150.828 -361.708)" fill="#003145"/>
      </g>
    </g>
    <path id="Path_2826" data-name="Path 2826" d="M127.2,161.111l-23.322-23.322-23.4,23.322,23.359,23.359L127.2,207.83l23.322-23.4Z" transform="translate(-56.182 -104.104)" fill="#003145"/>
    <path id="Path_2828" data-name="Path 2828" d="M339.584,7.273c-9.687-9.694-26.6-9.7-36.3,0a25.667,25.667,0,1,0,36.3,0Z" transform="translate(-218.83 0)" fill="#003145"/>
    <path id="Path_2829" data-name="Path 2829" d="M362.843,66.049a25.647,25.647,0,0,0,0-36.3l-36.3,36.3A25.646,25.646,0,0,0,362.843,66.049Z" transform="translate(-242.089 -22.478)" fill="#003145"/>
    <circle id="Ellipse_207" data-name="Ellipse 207" cx="18.333" cy="18.333" r="18.333" transform="translate(84.272 7.089)" fill="#f1f1f1"/>
    <path id="Path_2830" data-name="Path 2830" d="M373.683,76.889a18.32,18.32,0,0,0,0-25.927L347.756,76.889A18.774,18.774,0,0,0,373.683,76.889Z" transform="translate(-258.115 -38.503)" fill="#f1f1f1"/>
    <path id="Path_2831" data-name="Path 2831" d="M385.783,58.989V73.657h7.334V58.989Z" transform="translate(-286.845 -44.568)" fill="#003145"/>
    <path id="Path_2832" data-name="Path 2832" d="M393.117,88.989l-7.334,7.334h7.334Z" transform="translate(-286.845 -67.234)" fill="#003145"/>
    <path id="Path_2833" data-name="Path 2833" d="M190.62,129.312,167.3,105.989l-7.774,7.774a18.325,18.325,0,0,0,0,25.963l10.341,10.341,10.341,10.341a18.243,18.243,0,0,0,25.963,0l7.774-7.774Z" transform="translate(-111.826 -80.078)" fill="#003145"/>
    <path id="Path_2835" data-name="Path 2835" d="M41.5,324.73c-8.53-8.536-22.824-13.494-31.116-5.185-8.243,8.243-3.439,22.491,5.189,31.113,8.544,8.551,22.865,13.437,31.113,5.189S50.108,333.333,41.5,324.73Z" transform="translate(0 -238.201)" fill="#003145"/>
    <path id="Path_2836" data-name="Path 2836" d="M75.886,385.061c8.259-8.259,3.425-22.513-5.185-31.116L44.773,379.872C53.317,388.423,67.638,393.309,75.886,385.061Z" transform="translate(-29.202 -267.416)" fill="#003145"/>
  </g>
</svg>
