<svg xmlns="http://www.w3.org/2000/svg" width="120.832" height="120.829" viewBox="0 0 120.832 120.829"><defs><style>.a{fill:#fff;}.b{fill:#003145;}</style></defs><path class="a" d="M79.263,48.744a1.949,1.949,0,0,1-1.949,1.949H46.131a1.949,1.949,0,0,1-1.949-1.949V39H13V79.927a5.847,5.847,0,0,0,5.847,5.847H104.6a5.847,5.847,0,0,0,5.847-5.847V39H79.263Zm23.387,27.285a1.949,1.949,0,0,1-1.949,1.949H22.745a1.949,1.949,0,1,1,0-3.9H100.7A1.949,1.949,0,0,1,102.649,76.029Z" transform="translate(10.387 35.055)"/><rect class="a" width="28" height="8" transform="translate(58.191 74)"/><path class="a" d="M104.6,32.591H82.416L75.17,18.078A1.949,1.949,0,0,0,73.416,17H50.029a1.949,1.949,0,0,0-1.744,1.078L41.029,32.591H18.847A5.847,5.847,0,0,0,13,38.438v17.54h97.445V38.438a5.847,5.847,0,0,0-5.847-5.847Zm-59.211,0L51.234,20.9H72.211l5.847,11.693Z" transform="translate(10.387 14.179)"/><path class="b" d="M51.671,53.679V49.7A25.323,25.323,0,1,0,16.923,22.411v.027h0a25.79,25.79,0,0,0-.331,3.9A25.377,25.377,0,0,0,32.182,49.7v3.978A33.172,33.172,0,0,0,1,86.75V92.6a5.847,5.847,0,0,0,5.847,5.847h70.16A5.847,5.847,0,0,0,82.854,92.6V86.75A33.172,33.172,0,0,0,51.671,53.679ZM42.81,4.916A21.611,21.611,0,0,1,62.346,19.9a21.438,21.438,0,0,1-10.275-5.749,2,2,0,0,0-2.765,0,21.243,21.243,0,0,1-15.174,6.334H21.311A21.391,21.391,0,0,1,42.81,4.916Zm-2.832,89.63H6.847A1.949,1.949,0,0,1,4.9,92.6V86.75A29.274,29.274,0,0,1,25.821,58.738L39.978,72ZM30.487,57.77a29.192,29.192,0,0,1,3.644-.253,1.949,1.949,0,0,0,1.949-1.949V48.357a1.949,1.949,0,0,0-1.3-1.836A21.469,21.469,0,0,1,20.489,26.334c0-.655.039-1.3.1-1.949H34.131A25.082,25.082,0,0,0,50.7,18.192a25.3,25.3,0,0,0,12.528,5.847c.039.362.094.719.113,1.086a21.3,21.3,0,0,1-14.26,21.395,1.949,1.949,0,0,0-1.3,1.838v7.211a1.949,1.949,0,0,0,1.949,1.949,29.191,29.191,0,0,1,3.644.253L41.927,68.491ZM78.956,92.6a1.949,1.949,0,0,1-1.949,1.949H43.876V72L58.033,58.738A29.274,29.274,0,0,1,78.956,86.75Z" transform="translate(-1 -1.001)"/></svg>