<svg xmlns="http://www.w3.org/2000/svg" width="130.383" height="135" viewBox="0 0 130.383 135"><defs><style>.a{fill:#fff;}.b{fill:#003145;}</style></defs><g transform="translate(21.731 32.596)"><rect class="a" width="108" height="13" rx="1" transform="translate(0.269 89.404)"/><path class="a" d="M68.384,21H57.519A6.519,6.519,0,0,0,51,27.519V92.711a2.173,2.173,0,0,0,2.173,2.173H72.731A2.173,2.173,0,0,0,74.9,92.711V27.519A6.519,6.519,0,0,0,68.384,21Z" transform="translate(33.749 -10.135)"/><path class="a" d="M38,100.749H61.9V22.519A6.519,6.519,0,0,0,55.384,16H44.519A6.519,6.519,0,0,0,38,22.519Z" transform="translate(18.499 -16)"/><path class="a" d="M14.173,85.5H33.731A2.173,2.173,0,0,0,35.9,83.326V35.519A6.519,6.519,0,0,0,29.384,29H18.519A6.519,6.519,0,0,0,12,35.519V83.326A2.173,2.173,0,0,0,14.173,85.5Z" transform="translate(-12 -0.75)"/><path class="a" d="M27.173,76.115H46.731A2.173,2.173,0,0,0,48.9,73.942V43.519A6.519,6.519,0,0,0,42.384,37H31.519A6.519,6.519,0,0,0,25,43.519V73.942A2.173,2.173,0,0,0,27.173,76.115Z" transform="translate(3.25 8.634)"/></g><path class="b" d="M54.153,1a52.153,52.153,0,1,0,52.153,52.153A52.153,52.153,0,0,0,54.153,1Zm0,99.96a47.807,47.807,0,1,1,47.807-47.807A47.807,47.807,0,0,1,54.153,100.96Z" transform="translate(-2 -1)"/><path class="b" d="M48.288,6A41.288,41.288,0,1,0,89.576,47.288,41.288,41.288,0,0,0,48.288,6Zm0,78.23A36.942,36.942,0,1,1,85.23,47.288,36.942,36.942,0,0,1,48.288,84.23Z" transform="translate(3.865 4.865)"/><path class="b" d="M38.877,39.119c-1.241-.435-2.343-.847-3.375-1.247V21.383a10.6,10.6,0,0,1,5.385,2.264,2.173,2.173,0,0,0,2.934-3.2A15.211,15.211,0,0,0,35.5,17.015V13.173a2.173,2.173,0,0,0-4.346,0V17.2a18,18,0,0,0-2.077.482,11.734,11.734,0,0,0-8.04,9.218,10.235,10.235,0,0,0,3.31,10.085,30.347,30.347,0,0,0,6.8,3.814V61.058a13.772,13.772,0,0,1-8.256-2.75,2.175,2.175,0,0,0-2.392,3.635,17.871,17.871,0,0,0,10.633,3.464v4.266a2.173,2.173,0,0,0,4.346,0V65.25A14.283,14.283,0,0,0,47.452,53.4a12.48,12.48,0,0,0-8.575-14.277Zm-7.721-3.1a22.328,22.328,0,0,1-4.116-2.458A5.935,5.935,0,0,1,25.319,27.7a7.388,7.388,0,0,1,5.837-6.071ZM43.195,52.677a10.009,10.009,0,0,1-7.693,8.16V42.509c.619.23,1.25.461,1.927.7a8.205,8.205,0,0,1,5.765,9.468Z" transform="translate(18.546 10.731)"/></svg>