<svg xmlns="http://www.w3.org/2000/svg" width="127.265" height="157.807" viewBox="0 0 127.265 157.807"><defs><style>.a{fill:#a1e2ec;}.b{fill:#003145;}</style></defs><g transform="translate(0 0)"><path class="a" d="M50.453,85.1a5.091,5.091,0,1,1-5.091,5.091A5.091,5.091,0,0,1,50.453,85.1ZM76.212,86.9A16.722,16.722,0,0,0,79.7,100.725a16.519,16.519,0,0,0,19.573,4.531,5.091,5.091,0,0,1,7.178,4.607v13.414a7.636,7.636,0,0,1-7.636,7.636H68.27A43.27,43.27,0,0,1,25,87.643V57.1a7.636,7.636,0,0,1,7.636-7.636H46.05a21.049,21.049,0,0,1-1.96-8.908,21.558,21.558,0,0,1,7.84-16.544,21.864,21.864,0,0,1,18.046-4.556A21.635,21.635,0,0,1,85.451,49.464H98.814A7.636,7.636,0,0,1,106.45,57.1V70.488a5.091,5.091,0,0,1-7.229,4.607A16.545,16.545,0,0,0,76.313,86.9Zm-.305-23.442a6.363,6.363,0,0,0-12.192-2.545H58.089a2.545,2.545,0,0,0-1.807.738l-7.458,7.483a2.545,2.545,0,0,0-.738,1.782v9.392a10.181,10.181,0,1,0,5.091,0V71.989l5.956-5.981h4.582a6.363,6.363,0,0,0,12.192-2.545Z" transform="translate(20.815 26.894)"/><path class="b" d="M14.636,97.72H37.544v28a2.545,2.545,0,0,0,5.091,0V95.175a2.545,2.545,0,0,0-2.545-2.545H14.636a2.545,2.545,0,0,1-2.545-2.545V82.449H27.362a2.545,2.545,0,1,0,0-5.091H12.091V59.541H24.817a10.181,10.181,0,1,0,0-20.362h-12.6A35.634,35.634,0,0,1,46.452,6.091V24.824a5.091,5.091,0,0,0,6.9,4.734,8.756,8.756,0,0,1,5.091-.484,8.908,8.908,0,1,1-4.912,17.053,5.091,5.091,0,0,0-6.974,4.709V67.177a7.636,7.636,0,0,0,7.636,7.636h4.352a14.177,14.177,0,0,0-.331,6.21A14,14,0,0,0,85.9,78.631a14.253,14.253,0,0,0-.535-3.818H91v50.905a2.545,2.545,0,0,0,5.091,0V41.724A40.725,40.725,0,0,0,55.361,1H47.725A40.725,40.725,0,0,0,7,41.724v48.36A7.636,7.636,0,0,0,14.636,97.72ZM91,41.724v28H85.37a5.091,5.091,0,0,0-4.887,6.516,8.476,8.476,0,0,1,.331,2.393,8.909,8.909,0,0,1-17.69,1.527,9.036,9.036,0,0,1,.2-3.971,5.091,5.091,0,0,0-5.091-6.465H54.088a2.545,2.545,0,0,1-2.545-2.545V50.938a14,14,0,1,0,7.636-26.776,13.465,13.465,0,0,0-7.636.738V6.091h3.818A35.634,35.634,0,0,1,91,41.724ZM29.908,49.36a5.091,5.091,0,0,1-5.091,5.091H12.091V44.27H24.817A5.091,5.091,0,0,1,29.908,49.36Z" transform="translate(-7 -1)"/></g></svg>