<svg xmlns="http://www.w3.org/2000/svg" width="119.599" height="134.73" viewBox="0 0 119.599 134.73"><defs><style>.a{fill:#fff;}.b{fill:#003145;}.c{fill:#151a6a;}</style></defs><g transform="translate(-1.497 -1.037)"><g transform="translate(47.162 27.022)"><path class="a" d="M64.65,67.7H47.255A10.872,10.872,0,0,1,36.6,59l38.7,0A10.872,10.872,0,0,1,64.65,67.7Z" transform="translate(-18.985 41.047)"/><rect class="a" width="39.139" height="13.046" rx="1" transform="translate(17.398 82.653)"/><path class="a" d="M45.9,81.311v7.806a2.174,2.174,0,0,0,2.174,2.174h34.79a2.174,2.174,0,0,0,2.174-2.174V81.311a36.964,36.964,0,1,0-39.139,0ZM87.21,40a23.918,23.918,0,0,0-13.7-12.459,2.176,2.176,0,0,1,1.435-4.11A28.506,28.506,0,0,1,91.167,38.15,2.184,2.184,0,1,1,87.21,40Z" transform="translate(-28.499 -12.988)"/></g><path class="b" d="M83.89,54.337,66.5,19.547a2.174,2.174,0,0,0-1.935-1.2h-2.3a19.569,19.569,0,0,0-38.878,0h-2.3a2.174,2.174,0,0,0-.978.239A36.377,36.377,0,0,0,1.5,50.967,36.486,36.486,0,0,0,18.9,82.669V98.8a2.174,2.174,0,0,0,2.174,2.174h34.79A2.174,2.174,0,0,0,58.037,98.8V83.582H73.257a2.174,2.174,0,0,0,2.174-2.174V57.49h6.523a2.174,2.174,0,0,0,1.935-3.153ZM42.816,5.3A15.221,15.221,0,0,1,57.863,18.351H27.769A15.221,15.221,0,0,1,42.816,5.3ZM73.257,53.141a2.174,2.174,0,0,0-2.174,2.174V79.233H55.862a2.174,2.174,0,0,0-2.174,2.174V96.628H23.247V81.408a2.174,2.174,0,0,0-1.2-1.935,32.616,32.616,0,0,1-16.2-28.506A32.181,32.181,0,0,1,21.616,22.7h41.6L78.432,53.141Z" transform="translate(0 0)"/><path class="c" d="M20.164,5.361a2.174,2.174,0,1,0,1.109,4.2,6.654,6.654,0,0,1,6.175,1.566,2.176,2.176,0,1,0,3.066-3.088,11,11,0,0,0-10.35-2.674Z" transform="translate(19.868 4.662)"/></g></svg>