<svg xmlns="http://www.w3.org/2000/svg" width="128.729" height="124.729" viewBox="0 0 128.729 124.729"><defs><style>.a{fill:#fff;}.b{fill:#003145;}</style></defs><g transform="translate(-1 -1)"><path class="a" d="M63.294,69.282H51.224V23.012A2.012,2.012,0,0,0,49.212,21H29.094a2.012,2.012,0,0,0-2.012,2.012V69.282H15.012A2.012,2.012,0,0,0,13.4,72.5l24.141,32.188a2.012,2.012,0,0,0,3.219,0L64.9,72.5a2.012,2.012,0,0,0-1.609-3.219Z" transform="translate(12.141 20.235)"/><path class="a" d="M88.9,53.97,64.762,21.782a2.084,2.084,0,0,0-3.219,0L37.4,53.97a2.012,2.012,0,0,0,1.609,3.219H51.082V103.46a2.012,2.012,0,0,0,2.012,2.012H73.212a2.012,2.012,0,0,0,2.012-2.012V57.189H87.294A2.012,2.012,0,0,0,88.9,53.97Z" transform="translate(40.424 20.258)"/><g transform="translate(1 1)"><path class="b" d="M53.086,1a52.086,52.086,0,1,0,52.086,52.086A52.086,52.086,0,0,0,53.086,1Zm0,4.167A47.888,47.888,0,0,1,99.153,66.245L63.378,54.319a10.01,10.01,0,0,0,.125-1.233,10.369,10.369,0,0,0-.208-2l15.588-6.494a2.084,2.084,0,0,0-1.6-3.846L61.695,47.24a10.417,10.417,0,0,0-19.026,5.846,10.009,10.009,0,0,0,.125,1.233L7.019,66.245A47.888,47.888,0,0,1,53.086,5.167Zm-6.25,47.919a6.25,6.25,0,1,1,6.25,6.25A6.25,6.25,0,0,1,46.836,53.086ZM53.086,101A47.99,47.99,0,0,1,8.338,70.2L44.106,58.276a10.326,10.326,0,0,0,17.959,0L97.834,70.2A47.99,47.99,0,0,1,53.086,101Z" transform="translate(-1 -1)"/><path class="b" d="M9.083,48.669h8.334a2.083,2.083,0,0,0,0-4.167H11.273a35.21,35.21,0,0,1,8.875-21.407l4.34,4.34a2.083,2.083,0,1,0,2.946-2.946l-4.34-4.34A35.21,35.21,0,0,1,44.5,11.273v6.144a2.083,2.083,0,1,0,4.167,0V11.273a35.21,35.21,0,0,1,21.407,8.875l-4.34,4.34a2.083,2.083,0,1,0,2.946,2.946l4.34-4.34A35.21,35.21,0,0,1,81.9,44.5H75.753a2.083,2.083,0,0,0,0,4.167h8.334a2.083,2.083,0,0,0,2.083-2.083A39.585,39.585,0,1,0,7,46.585,2.083,2.083,0,0,0,9.083,48.669Z" transform="translate(5.501 5.501)"/></g></g></svg>