<svg xmlns="http://www.w3.org/2000/svg" width="130.383" height="134.511" viewBox="0 0 130.383 134.511"><defs><style>.a{fill:#fff;}.b{fill:#003145;}</style></defs><path class="a" d="M103.674,18.5H27.617a7.367,7.367,0,0,0-7.627,7.084v4.737H85.9A12.3,12.3,0,0,1,98.589,42.145V88.258l8.345,7.78a2.564,2.564,0,0,0,4.346-1.673V25.587a7.367,7.367,0,0,0-7.606-7.084Z" transform="translate(19.103 19.274)"/><path class="a" d="M95.576,26H19.519A7.454,7.454,0,0,0,12,33.282v70.689a2.542,2.542,0,0,0,4.346,1.717L35.9,86.978H95.576a7.475,7.475,0,0,0,7.693-7.3V33.282A7.454,7.454,0,0,0,95.576,26ZM77.822,72.4A2.477,2.477,0,0,1,75.3,74.831H39.793A2.477,2.477,0,0,1,37.273,72.4V40.562a2.477,2.477,0,0,1,2.521-2.412h8.192v9.779a2.477,2.477,0,0,0,2.542,2.434H55.57a2.477,2.477,0,0,0,2.542-2.434V38.149H75.3a2.477,2.477,0,0,1,2.521,2.412Z" transform="translate(9.731 28.072)"/><path class="b" d="M2,39.979v8.692a10.866,10.866,0,0,0,8.694,10.648l0,20.8c0,15.689,10.865,23.4,26.468,23.9a6.519,6.519,0,0,0,6.128,4.346H56.326a6.519,6.519,0,1,0,0-13.038H43.288a6.519,6.519,0,0,0-6.106,4.346c-10.5-.413-22.143-4.259-22.143-19.557V59.536H17.32a32.6,32.6,0,0,0,65.083,0h4.346A10.865,10.865,0,0,0,97.614,48.671V39.979A10.865,10.865,0,0,0,86.749,29.114H82.077a32.6,32.6,0,0,0-64.54,0H12.865A10.865,10.865,0,0,0,2,39.979Zm39.115,61.867a2.173,2.173,0,0,1,2.173-2.173H56.326a2.173,2.173,0,1,1,0,4.346H43.288A2.173,2.173,0,0,1,41.115,101.846ZM76.818,25.2C68.278,21.421,48.96,14.793,41.4,28.027a11.148,11.148,0,0,1-7.606,6.15c-4.933.847-10.018-2.347-12.06-3.825A28.25,28.25,0,0,1,76.818,25.2ZM86.749,55.19H82.4V33.46h4.346a6.519,6.519,0,0,1,6.519,6.519v8.692A6.519,6.519,0,0,1,86.749,55.19ZM21.558,57.363V35.415A19.558,19.558,0,0,0,34.6,38.458,15.211,15.211,0,0,0,45.244,30.2c6.715-11.756,27.946-2.064,32.726.326.261,2.608,0,2.173.152,26.837a28.25,28.25,0,0,1-56.5,0ZM6.346,39.979a6.519,6.519,0,0,1,6.519-6.519h4.346V55.19H12.865a6.519,6.519,0,0,1-6.519-6.519Z" transform="translate(-2 -1.116)"/></svg>