<svg xmlns="http://www.w3.org/2000/svg" width="122.718" height="124.729" viewBox="0 0 122.718 124.729"><defs><style>.a{fill:#fff;}.b{fill:#003145;}</style></defs><path class="a" d="M62.771,17a46.271,46.271,0,1,0,46.271,46.271A46.271,46.271,0,0,0,62.771,17ZM38.629,49.188A11.612,11.612,0,0,1,49.694,37.118,11.612,11.612,0,0,1,60.759,49.188,11.612,11.612,0,0,1,49.694,61.259,11.612,11.612,0,0,1,38.629,49.188Zm16.44,39.8a2.012,2.012,0,0,1-3.71-1.559L71.289,39.948A2.012,2.012,0,0,1,75,41.507Zm20.778,4.462a12.117,12.117,0,0,1,0-24.141,12.117,12.117,0,0,1,0,24.141Z" transform="translate(13.677 15.188)"/><g transform="translate(0 0)"><path class="b" d="M82.751,8.169A7.169,7.169,0,0,0,75.582,1H8.669A7.169,7.169,0,0,0,1.5,8.169V113.318a7.169,7.169,0,0,0,7.169,7.169H44.515a11.884,11.884,0,0,0,8.641-3.742.959.959,0,0,0,.081-.053l28.8-27.948a2.868,2.868,0,0,0,.717-1.713ZM51.8,99.07l19.39-6.452-14.828,14.4A11.949,11.949,0,0,0,51.8,99.07ZM6.279,113.318V8.169a2.39,2.39,0,0,1,2.39-2.39H75.582a2.39,2.39,0,0,1,2.39,2.39V85.308L43.76,96.711a2.39,2.39,0,0,0,.755,4.658,7.169,7.169,0,1,1,0,14.338H8.669A2.39,2.39,0,0,1,6.279,113.318Z" transform="translate(-1.5 -1)"/><path class="b" d="M22.752,33.568V16.412a10.754,10.754,0,0,1,4.66,2.179,2.389,2.389,0,1,0,3.227-3.525,15.827,15.827,0,0,0-7.887-3.51V8.39a2.39,2.39,0,0,0-4.779,0v3.157A12.494,12.494,0,0,0,6.654,21.877a10.8,10.8,0,0,0,3.5,10.649,33.5,33.5,0,0,0,7.817,4.285V57.468a14.286,14.286,0,0,1-9.2-2.868,2.39,2.39,0,0,0-2.617,4,18.986,18.986,0,0,0,11.812,3.644v3.5a2.39,2.39,0,0,0,4.779,0V61.937A15.074,15.074,0,0,0,34.5,49.591c1.472-8.763-3.554-12.938-11.746-16.023ZM13.1,28.762a6.082,6.082,0,0,1-1.754-6,7.556,7.556,0,0,1,6.622-6.34V31.6A24.55,24.55,0,0,1,13.1,28.762ZM29.782,48.8a10.379,10.379,0,0,1-7.031,8.149V38.661C27.77,40.472,30.674,43.519,29.782,48.8Z" transform="translate(3.535 5.949)"/><path class="b" d="M23.89,13.779H38.228a2.39,2.39,0,1,0,0-4.779H23.89a2.39,2.39,0,1,0,0,4.779Z" transform="translate(26.295 10.118)"/><path class="b" d="M23.89,19.779H38.228a2.39,2.39,0,1,0,0-4.779H23.89a2.39,2.39,0,1,0,0,4.779Z" transform="translate(26.295 18.456)"/><path class="b" d="M23.89,25.779H38.228a2.39,2.39,0,1,0,0-4.779H23.89a2.39,2.39,0,1,0,0,4.779Z" transform="translate(26.295 26.795)"/></g></svg>