<svg xmlns="http://www.w3.org/2000/svg" width="42.159" height="42.159" viewBox="0 0 42.159 42.159"><defs><style>.a{fill:#fff;}</style></defs><path class="a" d="M21.079,0A21.079,21.079,0,1,0,42.159,21.079,21.082,21.082,0,0,0,21.079,0ZM30.7,16.435q.014.311.014.625A13.673,13.673,0,0,1,16.952,30.827h0a13.7,13.7,0,0,1-7.416-2.173,9.842,9.842,0,0,0,1.154.067A9.708,9.708,0,0,0,16.7,26.649a4.844,4.844,0,0,1-4.52-3.361,4.822,4.822,0,0,0,2.185-.083,4.84,4.84,0,0,1-3.882-4.743c0-.022,0-.041,0-.062a4.8,4.8,0,0,0,2.191.605,4.842,4.842,0,0,1-1.5-6.459A13.737,13.737,0,0,0,21.15,17.6a4.841,4.841,0,0,1,8.245-4.412,9.7,9.7,0,0,0,3.072-1.174,4.857,4.857,0,0,1-2.128,2.676,9.65,9.65,0,0,0,2.778-.762A9.833,9.833,0,0,1,30.7,16.435Zm0,0"/></svg>