<svg xmlns="http://www.w3.org/2000/svg" width="162.037" height="164.932" viewBox="0 0 162.037 164.932">
  <g id="Group_3200" data-name="Group 3200" transform="translate(-424.939 -2150.83)">
    <g id="Group_1881" data-name="Group 1881" transform="translate(426 2151.33)">
      <path id="Path_2813" data-name="Path 2813" d="M0,4.133V0H136.808L138.6,2.342l-8.4,1.791Z" transform="translate(21.277 23.707)" fill="#003145"/>
      <rect id="Rectangle_568" data-name="Rectangle 568" width="138.639" height="138.64" transform="translate(21.277 25.792)" fill="#003845"/>
      <path id="Path_2811" data-name="Path 2811" d="M21.277,164.432,0,138.639V0L21.277,25.792Z" transform="translate(0 0)" fill="#018a9f"/>
      <path id="Path_2812" data-name="Path 2812" d="M21.277,25.792H159.916L138.638,0H0Z" fill="#1bb9d2" stroke="rgba(0,0,0,0)" stroke-width="1"/>
    </g>
    <g id="_10" data-name="10" transform="translate(474 2201.614)">
      <path id="Path_1731" data-name="Path 1731" d="M2929.187,1103H2856.24a9.12,9.12,0,0,0-9.12,9.12v72.947a9.12,9.12,0,0,0,9.12,9.12h72.947a9.12,9.12,0,0,0,9.12-9.12V1112.12a9.12,9.12,0,0,0-9.12-9.12m5.477,82.067a5.477,5.477,0,0,1-5.477,5.477H2856.24a5.464,5.464,0,0,1-5.477-5.477V1112.12a5.464,5.464,0,0,1,5.477-5.464h72.947a5.477,5.477,0,0,1,5.477,5.464Z" transform="translate(-2847.12 -1103)" fill="#fff"/>
      <path id="Path_1732" data-name="Path 1732" d="M2864.76,1134.369v27.006l23.388,13.51,23.388-13.51v-27.006l-23.388-13.509Zm40.249,1.265-16.861,9.727-16.861-9.727,16.861-9.727Zm-35.885,3.795,16.861,9.727v19.467l-16.861-9.727Zm21.238,29.169v-19.467l16.862-9.727v19.467Z" transform="translate(-2842.447 -1098.269)" fill="#fff"/>
      <path id="Path_1733" data-name="Path 1733" d="M2903.031,1152.5a5.65,5.65,0,0,0-1.467.215l-5.136-5.135a2.884,2.884,0,0,0-4.073,4.073l5.135,5.136a5.636,5.636,0,0,0-.214,1.467,5.755,5.755,0,1,0,5.755-5.756Z" transform="translate(-2835.333 -1091.387)" fill="#fff"/>
      <path id="Path_1734" data-name="Path 1734" d="M2875.634,1146.82a2.872,2.872,0,0,0-2.037.848l-5.135,5.136a5.637,5.637,0,0,0-1.467-.215,5.755,5.755,0,1,0,5.755,5.755,5.694,5.694,0,0,0-.215-1.467l1.48-1.48,3.655-3.656a2.884,2.884,0,0,0-2.037-4.921h0Z" transform="translate(-2843.379 -1091.391)" fill="#fff"/>
      <path id="Path_1735" data-name="Path 1735" d="M2884.454,1114.44a5.742,5.742,0,0,0-2.884,10.714v9.436a2.884,2.884,0,1,0,5.755,0v-9.436a5.743,5.743,0,0,0-2.872-10.714Z" transform="translate(-2838.753 -1099.969)" fill="#fff"/>
    </g>
  </g>
</svg>
