<svg xmlns="http://www.w3.org/2000/svg" width="162.037" height="164.932" viewBox="0 0 162.037 164.932">
  <g id="Group_3201" data-name="Group 3201" transform="translate(-424.939 -2338.158)">
    <g id="Group_1882" data-name="Group 1882" transform="translate(426 2338.658)">
      <path id="Path_2813" data-name="Path 2813" d="M0,4.133V0H136.808L138.6,2.342l-8.4,1.791Z" transform="translate(21.277 23.707)" fill="#003145"/>
      <rect id="Rectangle_568" data-name="Rectangle 568" width="138.639" height="138.64" transform="translate(21.277 25.792)" fill="#003845"/>
      <path id="Path_2811" data-name="Path 2811" d="M21.277,164.432,0,138.639V0L21.277,25.792Z" transform="translate(0 0)" fill="#018a9f"/>
      <path id="Path_2812" data-name="Path 2812" d="M21.277,25.792H159.916L138.638,0H0Z" fill="#1bb9d2" stroke="rgba(0,0,0,0)" stroke-width="1"/>
    </g>
    <g id="_3" data-name="3" transform="translate(474.188 2390)">
      <path id="Path_4363" data-name="Path 4363" d="M2866.79,452a1.8,1.8,0,0,0-1.8,1.8v1.8a1.8,1.8,0,1,0,3.6,0v-1.8a1.8,1.8,0,0,0-1.8-1.8" transform="translate(-2843.366 -437.576)" fill="#fff"/>
      <path id="Path_4364" data-name="Path 4364" d="M2866.79,462.08a1.8,1.8,0,0,0-1.8,1.8v1.85a1.8,1.8,0,1,0,3.6,0v-1.8a1.8,1.8,0,0,0-1.8-1.8" transform="translate(-2843.366 -435.057)" fill="#fff"/>
      <path id="Path_4365" data-name="Path 4365" d="M2862.83,457.76h-1.8a1.8,1.8,0,0,0,0,3.6h1.8a1.8,1.8,0,0,0,0-3.6" transform="translate(-2844.806 -436.137)" fill="#fff"/>
      <path id="Path_4366" data-name="Path 4366" d="M2872.92,457.76h-1.8a1.8,1.8,0,0,0,0,3.6h1.8a1.8,1.8,0,0,0,0-3.6" transform="translate(-2842.284 -436.137)" fill="#fff"/>
      <path id="Path_4367" data-name="Path 4367" d="M2884.1,452a1.8,1.8,0,0,0-1.8,1.8v1.8a1.8,1.8,0,1,0,3.6,0v-1.8a1.8,1.8,0,0,0-1.8-1.8" transform="translate(-2839.041 -437.576)" fill="#fff"/>
      <path id="Path_4368" data-name="Path 4368" d="M2884.1,462.08a1.8,1.8,0,0,0-1.8,1.8v1.85a1.8,1.8,0,1,0,3.6,0v-1.8a1.8,1.8,0,0,0-1.8-1.8" transform="translate(-2839.041 -435.057)" fill="#fff"/>
      <path id="Path_4369" data-name="Path 4369" d="M2880.122,457.76h-1.762a1.8,1.8,0,0,0,0,3.6h1.8a1.8,1.8,0,1,0,0-3.6" transform="translate(-2840.475 -436.137)" fill="#fff"/>
      <path id="Path_4370" data-name="Path 4370" d="M2890.22,457.76h-1.8a1.8,1.8,0,0,0,0,3.6h1.8a1.8,1.8,0,0,0,0-3.6" transform="translate(-2837.961 -436.137)" fill="#fff"/>
      <path id="Path_4371" data-name="Path 4371" d="M2901.36,452a1.8,1.8,0,0,0-1.8,1.8v1.8a1.8,1.8,0,1,0,3.6,0v-1.8a1.8,1.8,0,0,0-1.8-1.8" transform="translate(-2834.727 -437.576)" fill="#fff"/>
      <path id="Path_4372" data-name="Path 4372" d="M2901.36,462.08a1.8,1.8,0,0,0-1.8,1.8v1.85a1.8,1.8,0,1,0,3.6,0v-1.8a1.8,1.8,0,0,0-1.8-1.8" transform="translate(-2834.727 -435.057)" fill="#fff"/>
      <path id="Path_4373" data-name="Path 4373" d="M2897.43,457.76h-1.8a1.8,1.8,0,0,0,0,3.6h1.8a1.8,1.8,0,1,0,0-3.6" transform="translate(-2836.159 -436.137)" fill="#fff"/>
      <path id="Path_4374" data-name="Path 4374" d="M2907.52,457.76h-1.8a1.8,1.8,0,0,0,0,3.6h1.8a1.8,1.8,0,0,0,0-3.6" transform="translate(-2833.637 -436.137)" fill="#fff"/>
      <path id="Path_4375" data-name="Path 4375" d="M2866.79,469.29a1.8,1.8,0,0,0-1.8,1.8v1.8a1.8,1.8,0,1,0,3.6,0v-1.8a1.8,1.8,0,0,0-1.8-1.8" transform="translate(-2843.366 -433.255)" fill="#fff"/>
      <path id="Path_4376" data-name="Path 4376" d="M2866.79,479.38a1.8,1.8,0,0,0-1.8,1.8v1.8a1.8,1.8,0,1,0,3.6,0v-1.8a1.8,1.8,0,0,0-1.8-1.8" transform="translate(-2843.366 -430.733)" fill="#fff"/>
      <path id="Path_4377" data-name="Path 4377" d="M2862.83,475.06h-1.8a1.8,1.8,0,0,0,0,3.6h1.8a1.8,1.8,0,0,0,0-3.6" transform="translate(-2844.806 -431.813)" fill="#fff"/>
      <path id="Path_4378" data-name="Path 4378" d="M2872.92,475.06h-1.8a1.8,1.8,0,0,0,0,3.6h1.8a1.8,1.8,0,0,0,0-3.6" transform="translate(-2842.284 -431.813)" fill="#fff"/>
      <path id="Path_4379" data-name="Path 4379" d="M2884.1,469.29a1.8,1.8,0,0,0-1.8,1.8v1.8a1.8,1.8,0,1,0,3.6,0v-1.8a1.8,1.8,0,0,0-1.8-1.8" transform="translate(-2839.041 -433.255)" fill="#fff"/>
      <path id="Path_4380" data-name="Path 4380" d="M2884.1,479.38a1.8,1.8,0,0,0-1.8,1.8v1.8a1.8,1.8,0,1,0,3.6,0v-1.8a1.8,1.8,0,0,0-1.8-1.8" transform="translate(-2839.041 -430.733)" fill="#fff"/>
      <path id="Path_4381" data-name="Path 4381" d="M2880.122,475.06h-1.762a1.8,1.8,0,0,0,0,3.6h1.8a1.8,1.8,0,1,0,0-3.6" transform="translate(-2840.475 -431.813)" fill="#fff"/>
      <path id="Path_4382" data-name="Path 4382" d="M2890.22,475.06h-1.8a1.8,1.8,0,0,0,0,3.6h1.8a1.8,1.8,0,0,0,0-3.6" transform="translate(-2837.961 -431.813)" fill="#fff"/>
      <path id="Path_4383" data-name="Path 4383" d="M2901.36,469.29a1.8,1.8,0,0,0-1.8,1.8v1.8a1.8,1.8,0,1,0,3.6,0v-1.8a1.8,1.8,0,0,0-1.8-1.8" transform="translate(-2834.727 -433.255)" fill="#fff"/>
      <path id="Path_4384" data-name="Path 4384" d="M2901.36,479.38a1.8,1.8,0,0,0-1.8,1.8v1.8a1.8,1.8,0,1,0,3.6,0v-1.8a1.8,1.8,0,0,0-1.8-1.8" transform="translate(-2834.727 -430.733)" fill="#fff"/>
      <path id="Path_4385" data-name="Path 4385" d="M2897.43,475.06h-1.8a1.8,1.8,0,0,0,0,3.6h1.8a1.8,1.8,0,1,0,0-3.6" transform="translate(-2836.159 -431.813)" fill="#fff"/>
      <path id="Path_4386" data-name="Path 4386" d="M2907.52,475.06h-1.8a1.8,1.8,0,0,0,0,3.6h1.8a1.8,1.8,0,0,0,0-3.6" transform="translate(-2833.637 -431.813)" fill="#fff"/>
      <path id="Path_4387" data-name="Path 4387" d="M2866.787,486.6A1.8,1.8,0,0,0,2865,488.36v1.8a1.8,1.8,0,1,0,3.6,0v-1.8a1.8,1.8,0,0,0-1.8-1.8" transform="translate(-2843.364 -428.939)" fill="#fff"/>
      <path id="Path_4388" data-name="Path 4388" d="M2866.79,496.68a1.8,1.8,0,0,0-1.8,1.8v1.8a1.8,1.8,0,1,0,3.6,0v-1.8a1.8,1.8,0,0,0-1.8-1.8" transform="translate(-2843.366 -426.41)" fill="#fff"/>
      <path id="Path_4389" data-name="Path 4389" d="M2862.83,492.36h-1.8a1.8,1.8,0,0,0,0,3.6h1.8a1.8,1.8,0,0,0,0-3.6" transform="translate(-2844.806 -427.489)" fill="#fff"/>
      <path id="Path_4390" data-name="Path 4390" d="M2872.92,492.36h-1.8a1.8,1.8,0,0,0,0,3.6h1.8a1.8,1.8,0,0,0,0-3.6" transform="translate(-2842.284 -427.489)" fill="#fff"/>
      <path id="Path_4391" data-name="Path 4391" d="M2884.1,486.6a1.8,1.8,0,0,0-1.8,1.8v1.8a1.8,1.8,0,1,0,3.6,0V488.36a1.8,1.8,0,0,0-1.8-1.8" transform="translate(-2839.041 -428.939)" fill="#fff"/>
      <path id="Path_4392" data-name="Path 4392" d="M2884.1,496.68a1.8,1.8,0,0,0-1.8,1.8v1.8a1.8,1.8,0,1,0,3.6,0v-1.8a1.8,1.8,0,0,0-1.8-1.8" transform="translate(-2839.041 -426.41)" fill="#fff"/>
      <path id="Path_4393" data-name="Path 4393" d="M2880.122,492.36h-1.762a1.8,1.8,0,0,0,0,3.6h1.8a1.8,1.8,0,1,0,0-3.6" transform="translate(-2840.475 -427.489)" fill="#fff"/>
      <path id="Path_4394" data-name="Path 4394" d="M2890.22,492.36h-1.8a1.8,1.8,0,0,0,0,3.6h1.8a1.8,1.8,0,0,0,0-3.6" transform="translate(-2837.961 -427.489)" fill="#fff"/>
      <path id="Path_4395" data-name="Path 4395" d="M2901.36,486.6a1.8,1.8,0,0,0-1.8,1.8v1.8a1.8,1.8,0,1,0,3.6,0V488.36a1.8,1.8,0,0,0-1.8-1.8" transform="translate(-2834.727 -428.939)" fill="#fff"/>
      <path id="Path_4396" data-name="Path 4396" d="M2901.36,496.68a1.8,1.8,0,0,0-1.8,1.8v1.8a1.8,1.8,0,1,0,3.6,0v-1.8a1.8,1.8,0,0,0-1.8-1.8" transform="translate(-2834.727 -426.41)" fill="#fff"/>
      <path id="Path_4397" data-name="Path 4397" d="M2897.43,492.36h-1.8a1.8,1.8,0,0,0,0,3.6h1.8a1.8,1.8,0,1,0,0-3.6" transform="translate(-2836.159 -427.489)" fill="#fff"/>
      <path id="Path_4398" data-name="Path 4398" d="M2907.52,492.36h-1.8a1.8,1.8,0,0,0,0,3.6h1.8a1.8,1.8,0,0,0,0-3.6" transform="translate(-2833.637 -427.489)" fill="#fff"/>
      <path id="Path_4399" data-name="Path 4399" d="M2928.785,440.46H2856.7a9.012,9.012,0,0,0-9.012,9.012v72.083a9.012,9.012,0,0,0,9.012,9.012h72.083a9.012,9.012,0,0,0,9.012-9.012V449.472a9.012,9.012,0,0,0-9.012-9.012m5.413,81.094a5.412,5.412,0,0,1-5.413,5.412H2856.7a5.4,5.4,0,0,1-5.412-5.412V449.472a5.4,5.4,0,0,1,5.412-5.4h72.083a5.413,5.413,0,0,1,5.413,5.4Z" transform="translate(-2847.69 -440.46)" fill="#fff"/>
    </g>
  </g>
</svg>
