<svg xmlns="http://www.w3.org/2000/svg" width="162.037" height="164.932" viewBox="0 0 162.037 164.932">
  <g id="Group_3205" data-name="Group 3205" transform="translate(-424.939 -2525.067)">
    <path id="Path_2813" data-name="Path 2813" d="M0,4.133V0H136.808L138.6,2.342l-8.4,1.791Z" transform="translate(447.276 2549.274)" fill="#003145"/>
    <g id="Group_3204" data-name="Group 3204">
      <path id="Path_2812" data-name="Path 2812" d="M21.277,25.792H159.916L138.638,0H0Z" transform="translate(426 2525.567)" fill="#1bb9d2" stroke="rgba(0,0,0,0)" stroke-width="1"/>
      <g id="Group_3202" data-name="Group 3202">
        <rect id="Rectangle_568" data-name="Rectangle 568" width="138.639" height="138.64" transform="translate(447.276 2551.359)" fill="#003845"/>
        <path id="Path_2811" data-name="Path 2811" d="M21.277,164.432,0,138.639V0L21.277,25.792Z" transform="translate(426 2525.567)" fill="#018a9f"/>
        <g id="_12" data-name="12" transform="translate(474 2575.519)">
          <path id="Path_1738" data-name="Path 1738" d="M2929.9,1292.21h-73.078a9.136,9.136,0,0,0-9.136,9.136v73.078a9.136,9.136,0,0,0,9.136,9.136H2929.9a9.136,9.136,0,0,0,9.136-9.136v-73.078a9.136,9.136,0,0,0-9.136-9.136m5.487,82.214a5.486,5.486,0,0,1-5.487,5.487h-73.077a5.475,5.475,0,0,1-5.487-5.487v-73.078a5.473,5.473,0,0,1,5.487-5.474H2929.9a5.487,5.487,0,0,1,5.487,5.474Z" transform="translate(-2847.69 -1292.21)" fill="#fff"/>
          <path id="Path_1739" data-name="Path 1739" d="M2897.6,1351.406a8.008,8.008,0,1,1-8-8,8.008,8.008,0,0,1,8,8" transform="translate(-2838.635 -1278.531)" fill="#fff"/>
          <path id="Path_1740" data-name="Path 1740" d="M2914.627,1338.486a8,8,0,1,1-2.346-5.658,8.009,8.009,0,0,1,2.346,5.658" transform="translate(-2834.085 -1281.982)" fill="#fff"/>
          <path id="Path_1741" data-name="Path 1741" d="M2889.187,1333.216a8.008,8.008,0,1,1-8-8,8.009,8.009,0,0,1,8,8" transform="translate(-2840.883 -1283.39)" fill="#fff"/>
          <path id="Path_1742" data-name="Path 1742" d="M2870.247,1338.336a8.008,8.008,0,1,1-8-8,8.008,8.008,0,0,1,8,8" transform="translate(-2845.943 -1282.022)" fill="#fff"/>
          <path id="Path_1743" data-name="Path 1743" d="M2885.4,1336.843l-26.509,7.147,6.336-24,.393-1.457.393-1.483a6.333,6.333,0,0,0,2.864.748l-.393,1.483-.368,1.457-4.979,19.007,21.541-5.816Z" transform="translate(-2844.697 -1285.573)" fill="#fff"/>
          <path id="Path_1744" data-name="Path 1744" d="M2898.228,1314l.215-1.267h-.76L2875,1314.16l-1.507.1-1.533.076a5.335,5.335,0,0,0,.1-1.09,5.914,5.914,0,0,0-.292-1.875l1.533-.1,1.508-.1,22.3-1.406,1.509-.1,1.457-.1a6.338,6.338,0,0,0,1.267,3.725l-.291,1.9-.292,1.723-6.488,40.03,18.6-14.1,1.8,2.382-24.558,18.627,8.1-49.876h0Z" transform="translate(-2841.256 -1287.574)" fill="#fff"/>
          <path id="Path_1745" data-name="Path 1745" d="M2876.319,1312.268a8,8,0,1,0-11.164,9.212,8.087,8.087,0,0,0,2.877.748,4.285,4.285,0,0,0,.557,0,8,8,0,0,0,7.932-7.006,7.209,7.209,0,0,0,.077-1.028,7.58,7.58,0,0,0-.266-1.964m-7.73,8.49h-.177a6.335,6.335,0,0,1-2.863-.747,6.5,6.5,0,1,1,9.238-7.6,5.933,5.933,0,0,1,.292,1.875,5.442,5.442,0,0,1-.1,1.09,6.488,6.488,0,0,1-6.335,5.423" transform="translate(-2844.247 -1288.457)" fill="#fff"/>
          <path id="Path_1746" data-name="Path 1746" d="M2878.124,1312.445a9.491,9.491,0,1,0-13.052,10.771,9.609,9.609,0,0,0,2.888.748h.926a9.5,9.5,0,0,0,9.428-8.579v-.925a8.248,8.248,0,0,0-.241-2.066m-9.238,8.579h-.178a6.329,6.329,0,0,1-2.863-.747,6.5,6.5,0,1,1,9.238-7.6,5.943,5.943,0,0,1,.291,1.875,5.5,5.5,0,0,1-.1,1.09,6.488,6.488,0,0,1-6.336,5.423" transform="translate(-2844.57 -1288.787)" fill="#fff"/>
          <path id="Path_1747" data-name="Path 1747" d="M2900.937,1303.18a8,8,0,0,0-8,8,.8.8,0,0,0,0,.241,7.741,7.741,0,0,0,2.458,5.525,7.921,7.921,0,0,0,5.525,2.243,8,8,0,0,0,0-16m0,14.5a6.551,6.551,0,0,1-5.233-2.623,6.327,6.327,0,0,1-1.267-3.725v-.14a6.5,6.5,0,1,1,6.513,6.488" transform="translate(-2835.602 -1289.279)" fill="#fff"/>
          <path id="Path_1748" data-name="Path 1748" d="M2901.255,1302a9.5,9.5,0,0,0-9.5,9.5,1.6,1.6,0,0,0,0,.342,8.5,8.5,0,0,0,.583,2.965,10.961,10.961,0,0,0,.532,1.267h0a9.9,9.9,0,0,0,2.534,2.94,9.491,9.491,0,1,0,5.816-16.993m0,16a6.551,6.551,0,0,1-5.233-2.623,6.331,6.331,0,0,1-1.267-3.725v-.139a6.5,6.5,0,1,1,6.513,6.488" transform="translate(-2835.92 -1289.594)" fill="#fff"/>
        </g>
      </g>
    </g>
  </g>
</svg>
