<svg xmlns="http://www.w3.org/2000/svg" width="162.037" height="164.932" viewBox="0 0 162.037 164.932">
  <g id="Group_3203" data-name="Group 3203" transform="translate(-424.939 -2712.067)">
    <g id="Group_1883" data-name="Group 1883" transform="translate(426 2712.567)">
      <path id="Path_2813" data-name="Path 2813" d="M0,4.133V0H136.808L138.6,2.342l-8.4,1.791Z" transform="translate(21.277 23.707)" fill="#003145"/>
      <rect id="Rectangle_568" data-name="Rectangle 568" width="138.639" height="138.64" transform="translate(21.277 25.792)" fill="#003845"/>
      <path id="Path_2811" data-name="Path 2811" d="M21.277,164.432,0,138.639V0L21.277,25.792Z" transform="translate(0 0)" fill="#018a9f"/>
      <path id="Path_2812" data-name="Path 2812" d="M21.277,25.792H159.916L138.638,0H0Z" fill="#1bb9d2" stroke="rgba(0,0,0,0)" stroke-width="1"/>
    </g>
    <g id="_16" data-name="16" transform="translate(474.01 2764)">
      <path id="Path_4353" data-name="Path 4353" d="M2849.226,1704.553a1.814,1.814,0,0,0,1.813-1.813V1677.3a1.813,1.813,0,0,1,1.813-1.813h25.438a1.82,1.82,0,1,0,0-3.639h-25.437a5.453,5.453,0,0,0-5.453,5.453v25.438a1.813,1.813,0,0,0,1.813,1.813" transform="translate(-2847.41 -1671.812)" fill="#fff"/>
      <path id="Path_4354" data-name="Path 4354" d="M2921.162,1671.82h-25.437a1.82,1.82,0,1,0,0,3.639h25.438a1.813,1.813,0,0,1,1.813,1.813v25.437a1.82,1.82,0,0,0,3.64,0v-25.437a5.453,5.453,0,0,0-5.453-5.452" transform="translate(-2835.755 -1671.82)" fill="#fff"/>
      <path id="Path_4355" data-name="Path 4355" d="M2878.3,1747.4h-25.437a1.813,1.813,0,0,1-1.814-1.813v-25.437a1.82,1.82,0,1,0-3.639,0v25.437a5.452,5.452,0,0,0,5.453,5.453H2878.3a1.82,1.82,0,0,0,0-3.639" transform="translate(-2847.407 -1660.165)" fill="#fff"/>
      <path id="Path_4356" data-name="Path 4356" d="M2924.8,1718.32a1.813,1.813,0,0,0-1.813,1.813v25.438a1.814,1.814,0,0,1-1.814,1.813h-25.437a1.82,1.82,0,1,0,0,3.639h25.438a5.453,5.453,0,0,0,5.453-5.453v-25.437a1.814,1.814,0,0,0-1.814-1.813" transform="translate(-2835.753 -1660.167)" fill="#fff"/>
      <path id="Path_4357" data-name="Path 4357" d="M2856.62,1710.2h67.808V1680.19H2856.62Zm8.754-23.4H2909.4c1.5,0,2.726.7,2.726,1.563s-1.25,1.563-2.726,1.563h-44.021c-1.5,0-2.726-.7-2.726-1.563s1.25-1.563,2.726-1.563m50.712,6.866a1.563,1.563,0,1,1,0,3.114h-5.64a1.563,1.563,0,0,1,0-3.114Zm-27.513,10h-23.186c-1.5,0-2.726-.7-2.726-1.563s1.251-1.563,2.726-1.563h23.186c1.5,0,2.726.7,2.726,1.563s-1.251,1.563-2.726,1.563m7.391-6.866h-30.577c-1.5,0-2.726-.7-2.726-1.563s1.251-1.563,2.726-1.563h30.577c1.5,0,2.726.7,2.726,1.563s-1.251,1.563-2.726,1.563m10,6.416a1.563,1.563,0,1,1,.45-1.1,1.563,1.563,0,0,1-.45,1.1m5.64,0a1.563,1.563,0,1,1,.463-1.1,1.563,1.563,0,0,1-.463,1.1m5.64,0a1.563,1.563,0,1,1,.463-1.1,1.563,1.563,0,0,1-.463,1.1m.075-13.757a1.563,1.563,0,1,1,.45-1.1,1.562,1.562,0,0,1-.45,1.1" transform="translate(-2845.099 -1669.722)" fill="#fff"/>
      <path id="Path_4358" data-name="Path 4358" d="M2856.62,1741.745h67.808V1711.73H2856.62Zm24.9-6.553H2864.6a1.6,1.6,0,1,1,0-3.126h16.883a1.6,1.6,0,1,1,0,3.126m5.39-6.866H2864.6a1.6,1.6,0,1,1,0-3.114h22.274a1.6,1.6,0,1,1,0,3.114m9.792-6.866H2864.6a1.6,1.6,0,1,1,0-3.114h32.053a1.6,1.6,0,1,1,0,3.114" transform="translate(-2845.099 -1661.818)" fill="#fff"/>
    </g>
  </g>
</svg>
