<svg xmlns="http://www.w3.org/2000/svg" width="162.037" height="164.932" viewBox="0 0 162.037 164.932">
  <g id="Group_3196" data-name="Group 3196" transform="translate(-424.939 -2150.83)">
    <g id="Group_1881" data-name="Group 1881" transform="translate(426 2151.33)">
      <path id="Path_2813" data-name="Path 2813" d="M0,4.133V0H136.808L138.6,2.342l-8.4,1.791Z" transform="translate(21.277 23.707)" fill="#003145"/>
      <rect id="Rectangle_568" data-name="Rectangle 568" width="138.639" height="138.64" transform="translate(21.277 25.792)" fill="#003845"/>
      <path id="Path_2811" data-name="Path 2811" d="M21.277,164.432,0,138.639V0L21.277,25.792Z" transform="translate(0 0)" fill="#018a9f"/>
      <path id="Path_2812" data-name="Path 2812" d="M21.277,25.792H159.916L138.638,0H0Z" fill="#1bb9d2" stroke="rgba(0,0,0,0)" stroke-width="1"/>
    </g>
    <g id="_1" data-name="1" transform="translate(472 2202)">
      <path id="Path_4279" data-name="Path 4279" d="M2849.225,284.725a1.812,1.812,0,0,0,1.812-1.812V257.49a1.812,1.812,0,0,1,1.812-1.812h25.423a1.819,1.819,0,1,0,0-3.637H2852.85a5.45,5.45,0,0,0-5.45,5.45v25.423a1.812,1.812,0,0,0,1.812,1.812" transform="translate(-2847.4 -251.99)" fill="#fff"/>
      <path id="Path_4280" data-name="Path 4280" d="M2921.147,252h-25.423a1.819,1.819,0,1,0,0,3.637h25.423a1.812,1.812,0,0,1,1.812,1.812v25.423a1.819,1.819,0,0,0,3.637,0V257.5a5.45,5.45,0,0,0-5.45-5.45" transform="translate(-2835.778 -252)" fill="#fff"/>
      <path id="Path_4281" data-name="Path 4281" d="M2878.283,327.6H2852.86a1.812,1.812,0,0,1-1.812-1.812V300.364a1.819,1.819,0,0,0-3.637,0v25.423a5.449,5.449,0,0,0,5.45,5.45h25.423a1.819,1.819,0,0,0,0-3.637" transform="translate(-2847.397 -240.368)" fill="#fff"/>
      <path id="Path_4282" data-name="Path 4282" d="M2924.782,298.54a1.812,1.812,0,0,0-1.812,1.812v25.423a1.813,1.813,0,0,1-1.812,1.812h-25.423a1.819,1.819,0,1,0,0,3.637h25.423a5.45,5.45,0,0,0,5.45-5.45V300.365a1.813,1.813,0,0,0-1.812-1.812" transform="translate(-2835.775 -240.369)" fill="#fff"/>
      <path id="Path_4283" data-name="Path 4283" d="M2861.235,285.994a1.25,1.25,0,0,0,1.187-1.187V268.232a1.25,1.25,0,0,1,1.188-1.187h16.574a1.187,1.187,0,1,0,0-2.375H2863.61a3.55,3.55,0,0,0-3.55,3.55v16.574a1.25,1.25,0,0,0,1.188,1.187" transform="translate(-2844.236 -248.834)" fill="#fff"/>
      <path id="Path_4284" data-name="Path 4284" d="M2908.134,264.68h-16.586a1.187,1.187,0,1,0,0,2.375h16.586a1.25,1.25,0,0,1,1.187,1.187v16.574a1.187,1.187,0,1,0,2.375,0V268.23a3.55,3.55,0,0,0-3.55-3.55" transform="translate(-2836.664 -248.831)" fill="#fff"/>
      <path id="Path_4285" data-name="Path 4285" d="M2880.188,313.949H2863.6a1.25,1.25,0,0,1-1.187-1.187V296.187a1.187,1.187,0,1,0-2.375,0v16.586a3.55,3.55,0,0,0,3.55,3.55h16.586a1.187,1.187,0,1,0,0-2.375" transform="translate(-2844.241 -241.254)" fill="#fff"/>
      <path id="Path_4286" data-name="Path 4286" d="M2910.5,295a1.25,1.25,0,0,0-1.187,1.187v16.574a1.25,1.25,0,0,1-1.187,1.187h-16.574a1.187,1.187,0,1,0,0,2.375h16.574a3.55,3.55,0,0,0,3.55-3.55V296.187a1.251,1.251,0,0,0-1.187-1.187" transform="translate(-2836.664 -241.254)" fill="#fff"/>
      <path id="Path_4287" data-name="Path 4287" d="M2895.339,284.344a9.674,9.674,0,1,1-9.674-9.674,9.674,9.674,0,0,1,9.674,9.674" transform="translate(-2840.255 -246.334)" fill="#fff"/>
      <path id="Path_4288" data-name="Path 4288" d="M2901.636,304.37a1.95,1.95,0,0,0,1.45-3.15,19.549,19.549,0,0,0-32.123,0,1.95,1.95,0,0,0,1.45,3.15h29.211Z" transform="translate(-2841.615 -241.8)" fill="#fff"/>
    </g>
  </g>
</svg>
