<svg xmlns="http://www.w3.org/2000/svg" width="162.037" height="164.932" viewBox="0 0 162.037 164.932">
  <g id="Group_3194" data-name="Group 3194" transform="translate(-424.939 -1963.5)">
    <g id="Group_1880" data-name="Group 1880" transform="translate(426 1964)">
      <path id="Path_2813" data-name="Path 2813" d="M0,4.133V0H136.808L138.6,2.342l-8.4,1.791Z" transform="translate(21.277 23.707)" fill="#003145"/>
      <rect id="Rectangle_568" data-name="Rectangle 568" width="138.639" height="138.64" transform="translate(21.277 25.792)" fill="#003845"/>
      <path id="Path_2811" data-name="Path 2811" d="M21.277,164.432,0,138.639V0L21.277,25.792Z" transform="translate(0 0)" fill="#018a9f"/>
      <path id="Path_2812" data-name="Path 2812" d="M21.277,25.792H159.916L138.638,0H0Z" fill="#1bb9d2" stroke="rgba(0,0,0,0)" stroke-width="1"/>
    </g>
    <g id="_8" data-name="8" transform="translate(472 2015)">
      <path id="Path_4436" data-name="Path 4436" d="M2864.54,921.69a1.8,1.8,0,0,0-1.8,1.8v1.8a1.8,1.8,0,1,0,3.6,0v-1.8a1.8,1.8,0,0,0-1.8-1.8" transform="translate(-2845.454 -913.116)" fill="#fff"/>
      <path id="Path_4437" data-name="Path 4437" d="M2864.54,931.78a1.8,1.8,0,0,0-1.8,1.8v1.8a1.8,1.8,0,1,0,3.6,0v-1.8a1.8,1.8,0,0,0-1.8-1.8" transform="translate(-2845.454 -910.594)" fill="#fff"/>
      <path id="Path_4438" data-name="Path 4438" d="M2860.57,927.46h-1.8a1.8,1.8,0,0,0,0,3.6h1.8a1.8,1.8,0,0,0,0-3.6" transform="translate(-2846.896 -911.674)" fill="#fff"/>
      <path id="Path_4439" data-name="Path 4439" d="M2870.66,927.46h-1.8a1.8,1.8,0,0,0,0,3.6h1.8a1.8,1.8,0,0,0,0-3.6" transform="translate(-2844.374 -911.674)" fill="#fff"/>
      <path id="Path_4440" data-name="Path 4440" d="M2885.36,921.69a1.8,1.8,0,0,0-1.8,1.8v1.8a1.8,1.8,0,1,0,3.6,0v-1.8a1.8,1.8,0,0,0-1.8-1.8" transform="translate(-2840.25 -913.116)" fill="#fff"/>
      <path id="Path_4441" data-name="Path 4441" d="M2885.36,931.78a1.8,1.8,0,0,0-1.8,1.8v1.8a1.8,1.8,0,1,0,3.6,0v-1.8a1.8,1.8,0,0,0-1.8-1.8" transform="translate(-2840.25 -910.594)" fill="#fff"/>
      <path id="Path_4442" data-name="Path 4442" d="M2881.35,927.46h-1.8a1.8,1.8,0,0,0,0,3.6h1.8a1.8,1.8,0,0,0,0-3.6" transform="translate(-2841.703 -911.674)" fill="#fff"/>
      <path id="Path_4443" data-name="Path 4443" d="M2891.45,927.46h-1.8a1.8,1.8,0,0,0,0,3.6h1.8a1.8,1.8,0,0,0,0-3.6" transform="translate(-2839.178 -911.674)" fill="#fff"/>
      <path id="Path_4444" data-name="Path 4444" d="M2885.36,940.43a1.8,1.8,0,0,0-1.8,1.8v1.8a1.8,1.8,0,0,0,3.6,0v-1.8a1.8,1.8,0,0,0-1.8-1.8" transform="translate(-2840.25 -908.432)" fill="#fff"/>
      <path id="Path_4445" data-name="Path 4445" d="M2885.36,950.52a1.8,1.8,0,0,0-1.8,1.8v1.8a1.8,1.8,0,0,0,3.6,0v-1.75a1.8,1.8,0,0,0-1.8-1.8" transform="translate(-2840.25 -905.911)" fill="#fff"/>
      <path id="Path_4446" data-name="Path 4446" d="M2881.35,946.2h-1.8a1.8,1.8,0,0,0,0,3.6h1.8a1.8,1.8,0,0,0,0-3.6" transform="translate(-2841.703 -906.99)" fill="#fff"/>
      <path id="Path_4447" data-name="Path 4447" d="M2891.45,946.2h-1.8a1.8,1.8,0,0,0,0,3.6h1.8a1.8,1.8,0,0,0,0-3.6" transform="translate(-2839.178 -906.99)" fill="#fff"/>
      <path id="Path_4448" data-name="Path 4448" d="M2906.1,940.43a1.8,1.8,0,0,0-1.8,1.8v1.8a1.8,1.8,0,0,0,3.6,0v-1.8a1.8,1.8,0,0,0-1.8-1.8" transform="translate(-2835.067 -908.432)" fill="#fff"/>
      <path id="Path_4449" data-name="Path 4449" d="M2906.1,950.52a1.8,1.8,0,0,0-1.8,1.8v1.8a1.8,1.8,0,0,0,3.6,0v-1.75a1.8,1.8,0,0,0-1.8-1.8" transform="translate(-2835.067 -905.911)" fill="#fff"/>
      <path id="Path_4450" data-name="Path 4450" d="M2902.135,946.2h-1.775a1.8,1.8,0,0,0,0,3.6h1.8a1.8,1.8,0,0,0,0-3.6" transform="translate(-2836.502 -906.99)" fill="#fff"/>
      <path id="Path_4451" data-name="Path 4451" d="M2912.23,946.2h-1.8a1.8,1.8,0,0,0,0,3.6h1.8a1.8,1.8,0,0,0,0-3.6" transform="translate(-2833.985 -906.99)" fill="#fff"/>
      <path id="Path_4452" data-name="Path 4452" d="M1.65,73.263l2.275,4.512L1.65,67.376,1.912,41.39" transform="translate(0.412 10.344)" fill="#fff"/>
      <path id="Path_4453" data-name="Path 4453" d="M2906.1,921.69a1.8,1.8,0,0,0-1.8,1.8v1.8a1.8,1.8,0,1,0,3.6,0v-1.8a1.8,1.8,0,0,0-1.8-1.8" transform="translate(-2835.067 -913.116)" fill="#fff"/>
      <path id="Path_4454" data-name="Path 4454" d="M2906.1,931.78a1.8,1.8,0,0,0-1.8,1.8v1.8a1.8,1.8,0,1,0,3.6,0v-1.8a1.8,1.8,0,0,0-1.8-1.8" transform="translate(-2835.067 -910.594)" fill="#fff"/>
      <path id="Path_4455" data-name="Path 4455" d="M2902.135,927.46h-1.775a1.8,1.8,0,0,0,0,3.6h1.8a1.8,1.8,0,0,0,0-3.6" transform="translate(-2836.502 -911.674)" fill="#fff"/>
      <path id="Path_4456" data-name="Path 4456" d="M2912.23,927.46h-1.8a1.8,1.8,0,0,0,0,3.6h1.8a1.8,1.8,0,0,0,0-3.6" transform="translate(-2833.985 -911.674)" fill="#fff"/>
      <path id="Path_4457" data-name="Path 4457" d="M2930,914.83h-72.083a9.012,9.012,0,0,0-9.012,9.012v72.083a9.012,9.012,0,0,0,9.012,9.012H2930a9.012,9.012,0,0,0,9.012-9.012V923.792A9.012,9.012,0,0,0,2930,914.83Zm-67.42,75.207h-1.8a1.8,1.8,0,0,1,0-3.6h1.8a1.8,1.8,0,0,1,0,3.6Zm7.212,5.4a1.813,1.813,0,1,1-3.612,0v-1.8a1.812,1.812,0,0,1,3.612,0Zm0-12.612a1.813,1.813,0,0,1-3.612,0v-1.8a1.812,1.812,0,0,1,3.612,0Zm5.4,7.212h-1.8a1.8,1.8,0,0,1,0-3.6h1.8a1.8,1.8,0,0,1,0,3.6Zm13.362,0h-1.8a1.8,1.8,0,0,1,0-3.6h1.8a1.8,1.8,0,0,1,0,3.6Zm7.212,5.4a1.8,1.8,0,1,1-3.6,0v-1.8a1.8,1.8,0,0,1,3.6,0Zm0-12.612a1.8,1.8,0,1,1-3.6,0v-1.8a1.8,1.8,0,1,1,3.6,0Zm5.4,7.212h-1.8a1.8,1.8,0,0,1,0-3.6h1.8a1.8,1.8,0,0,1,0,3.6Zm13.374,0h-1.775a1.8,1.8,0,0,1,0-3.6h1.8a1.8,1.8,0,1,1-.025,3.6Zm7.212,5.412a1.8,1.8,0,0,1-3.6,0v-1.8a1.8,1.8,0,1,1,3.6,0Zm0-12.612a1.8,1.8,0,0,1-3.6,0v-1.8a1.8,1.8,0,1,1,3.6,0Zm5.412,7.212h-1.8a1.8,1.8,0,0,1,0-3.6h1.8a1.8,1.8,0,1,1-.013,3.587ZM2935.43,979l-23.749-16.386a3.062,3.062,0,0,0-3.549,0l-14.725,10.6-22.5-18.611a3.325,3.325,0,0,0-4.075-.113l-14.312,10.549V923.792a5.4,5.4,0,0,1,5.4-5.4H2930a5.413,5.413,0,0,1,5.412,5.4V978.9Z" transform="translate(-2848.91 -914.83)" fill="#fff"/>
    </g>
  </g>
</svg>
