<svg xmlns="http://www.w3.org/2000/svg" width="162.037" height="164.932" viewBox="0 0 162.037 164.932">
  <g id="Group_3193" data-name="Group 3193" transform="translate(-424.939 -2150.829)">
    <g id="Group_1881" data-name="Group 1881" transform="translate(426 2151.329)">
      <path id="Path_2813" data-name="Path 2813" d="M0,4.133V0H136.808L138.6,2.342l-8.4,1.791Z" transform="translate(21.277 23.707)" fill="#003145"/>
      <rect id="Rectangle_568" data-name="Rectangle 568" width="138.639" height="138.64" transform="translate(21.277 25.792)" fill="#003845"/>
      <path id="Path_2811" data-name="Path 2811" d="M21.277,164.432,0,138.639V0L21.277,25.792Z" transform="translate(0 0)" fill="#018a9f"/>
      <path id="Path_2812" data-name="Path 2812" d="M21.277,25.792H159.916L138.638,0H0Z" fill="#1bb9d2" stroke="rgba(0,0,0,0)" stroke-width="1"/>
    </g>
    <g id="_15" data-name="15" transform="translate(471 2204)">
      <path id="Path_4317" data-name="Path 4317" d="M2863.842,1583a2.112,2.112,0,0,0-2.112,2.112v2.112a2.119,2.119,0,0,0,4.237,0v-2.112a2.112,2.112,0,0,0-2.112-2.113" transform="translate(-2843.819 -1574.863)" fill="#fff"/>
      <path id="Path_4318" data-name="Path 4318" d="M2863.842,1594.89a2.112,2.112,0,0,0-2.112,2.112v2.112a2.119,2.119,0,0,0,4.237,0V1597a2.112,2.112,0,0,0-2.112-2.112" transform="translate(-2843.819 -1571.892)" fill="#fff"/>
      <path id="Path_4319" data-name="Path 4319" d="M2859.186,1589.81h-2.112a2.119,2.119,0,1,0,0,4.237h2.112a2.119,2.119,0,0,0,0-4.237" transform="translate(-2845.512 -1573.161)" fill="#fff"/>
      <path id="Path_4320" data-name="Path 4320" d="M2871.036,1589.81h-2.112a2.119,2.119,0,1,0,0,4.237h2.112a2.119,2.119,0,0,0,0-4.237" transform="translate(-2842.55 -1573.161)" fill="#fff"/>
      <path id="Path_4321" data-name="Path 4321" d="M2871.036,1611.12h-2.112a2.119,2.119,0,1,0,0,4.237h2.112a2.119,2.119,0,0,0,0-4.237" transform="translate(-2842.55 -1567.836)" fill="#fff"/>
      <path id="Path_4322" data-name="Path 4322" d="M2884.152,1583a2.112,2.112,0,0,0-2.112,2.112v2.112a2.119,2.119,0,0,0,4.237,0v-2.112a2.113,2.113,0,0,0-2.113-2.113" transform="translate(-2838.743 -1574.863)" fill="#fff"/>
      <path id="Path_4323" data-name="Path 4323" d="M2879.486,1589.81h-2.062a2.119,2.119,0,1,0,0,4.237h2.112a2.119,2.119,0,0,0,0-4.237" transform="translate(-2840.426 -1573.161)" fill="#fff"/>
      <path id="Path_4324" data-name="Path 4324" d="M2891.356,1589.81h-2.112a2.119,2.119,0,1,0,0,4.237h2.112a2.119,2.119,0,0,0,0-4.237" transform="translate(-2837.472 -1573.161)" fill="#fff"/>
      <path id="Path_4325" data-name="Path 4325" d="M2884.155,1643.868a2.112,2.112,0,0,0,2.112-2.112v-2.113a2.119,2.119,0,0,0-4.237,0v2.112a2.112,2.112,0,0,0,2.112,2.112" transform="translate(-2838.745 -1561.237)" fill="#fff"/>
      <path id="Path_4326" data-name="Path 4326" d="M2889.234,1636.677h2.112a2.119,2.119,0,0,0,0-4.237h-2.112a2.119,2.119,0,1,0,0,4.237" transform="translate(-2837.474 -1562.507)" fill="#fff"/>
      <path id="Path_4327" data-name="Path 4327" d="M2898.364,1636.677h2.112a2.119,2.119,0,1,0,0-4.237h-2.112a2.119,2.119,0,1,0,0,4.237" transform="translate(-2835.193 -1562.507)" fill="#fff"/>
      <path id="Path_4328" data-name="Path 4328" d="M2877.424,1636.677h2.112a2.119,2.119,0,0,0,0-4.237h-2.112a2.119,2.119,0,0,0,0,4.237" transform="translate(-2840.426 -1562.507)" fill="#fff"/>
      <path id="Path_4329" data-name="Path 4329" d="M2869.014,1636.677h2.112a2.119,2.119,0,0,0,0-4.237h-2.112a2.119,2.119,0,0,0,0,4.237" transform="translate(-2842.528 -1562.507)" fill="#fff"/>
      <path id="Path_4330" data-name="Path 4330" d="M2904.472,1583a2.112,2.112,0,0,0-2.112,2.112v2.112a2.119,2.119,0,1,0,4.237,0v-2.112a2.112,2.112,0,0,0-2.112-2.113" transform="translate(-2833.665 -1574.863)" fill="#fff"/>
      <path id="Path_4331" data-name="Path 4331" d="M2904.472,1594.89a2.112,2.112,0,0,0-2.112,2.112v2.112a2.119,2.119,0,0,0,4.237,0V1597a2.112,2.112,0,0,0-2.112-2.112" transform="translate(-2833.665 -1571.892)" fill="#fff"/>
      <path id="Path_4332" data-name="Path 4332" d="M2899.846,1589.81h-2.112a2.119,2.119,0,1,0,0,4.237h2.112a2.119,2.119,0,0,0,0-4.237" transform="translate(-2835.35 -1573.161)" fill="#fff"/>
      <path id="Path_4333" data-name="Path 4333" d="M2899.846,1611.12h-2.112a2.119,2.119,0,1,0,0,4.237h2.112a2.119,2.119,0,0,0,0-4.237" transform="translate(-2835.35 -1567.836)" fill="#fff"/>
      <path id="Path_4334" data-name="Path 4334" d="M2911.666,1589.81h-2.112a2.119,2.119,0,1,0,0,4.237h2.112a2.119,2.119,0,0,0,0-4.237" transform="translate(-2832.396 -1573.161)" fill="#fff"/>
      <path id="Path_4335" data-name="Path 4335" d="M2863.842,1604.36a2.112,2.112,0,0,0-2.112,2.112v2.112a2.119,2.119,0,0,0,4.237,0v-2.162a2.112,2.112,0,0,0-2.112-2.112" transform="translate(-2843.819 -1569.537)" fill="#fff"/>
      <path id="Path_4336" data-name="Path 4336" d="M2863.842,1616.2a2.112,2.112,0,0,0-2.112,2.112v2.112a2.119,2.119,0,0,0,4.237,0v-2.112a2.112,2.112,0,0,0-2.112-2.112" transform="translate(-2843.819 -1566.566)" fill="#fff"/>
      <path id="Path_4337" data-name="Path 4337" d="M2859.186,1611.12h-2.112a2.119,2.119,0,1,0,0,4.237h2.112a2.119,2.119,0,0,0,0-4.237" transform="translate(-2845.512 -1567.836)" fill="#fff"/>
      <path id="Path_4338" data-name="Path 4338" d="M2904.472,1604.36a2.112,2.112,0,0,0-2.112,2.112v2.112a2.119,2.119,0,1,0,4.237,0v-2.162a2.112,2.112,0,0,0-2.112-2.112" transform="translate(-2833.665 -1569.537)" fill="#fff"/>
      <path id="Path_4339" data-name="Path 4339" d="M2904.472,1616.2a2.112,2.112,0,0,0-2.112,2.112v2.112a2.119,2.119,0,1,0,4.237,0v-2.112a2.112,2.112,0,0,0-2.112-2.112" transform="translate(-2833.665 -1566.566)" fill="#fff"/>
      <path id="Path_4340" data-name="Path 4340" d="M2911.666,1611.12h-2.112a2.119,2.119,0,1,0,0,4.237h2.112a2.119,2.119,0,0,0,0-4.237" transform="translate(-2832.396 -1567.836)" fill="#fff"/>
      <path id="Path_4341" data-name="Path 4341" d="M2863.842,1625.67a2.112,2.112,0,0,0-2.112,2.112v2.113a2.119,2.119,0,0,0,4.237,0v-2.112a2.112,2.112,0,0,0-2.112-2.113" transform="translate(-2843.819 -1564.199)" fill="#fff"/>
      <path id="Path_4342" data-name="Path 4342" d="M2863.842,1637.52a2.112,2.112,0,0,0-2.112,2.112v2.112a2.119,2.119,0,0,0,4.237,0v-2.112a2.112,2.112,0,0,0-2.112-2.112" transform="translate(-2843.819 -1561.238)" fill="#fff"/>
      <path id="Path_4343" data-name="Path 4343" d="M2859.186,1632.44h-2.112a2.119,2.119,0,0,0,0,4.237h2.112a2.119,2.119,0,0,0,0-4.237" transform="translate(-2845.512 -1562.507)" fill="#fff"/>
      <path id="Path_4344" data-name="Path 4344" d="M2904.472,1625.67a2.112,2.112,0,0,0-2.112,2.112v2.113a2.119,2.119,0,0,0,4.237,0v-2.112a2.112,2.112,0,0,0-2.112-2.113" transform="translate(-2833.665 -1564.199)" fill="#fff"/>
      <path id="Path_4345" data-name="Path 4345" d="M2904.472,1637.52a2.112,2.112,0,0,0-2.112,2.112v2.112a2.119,2.119,0,0,0,4.237,0v-2.112a2.112,2.112,0,0,0-2.112-2.112" transform="translate(-2833.665 -1561.238)" fill="#fff"/>
      <path id="Path_4346" data-name="Path 4346" d="M2911.666,1632.44h-2.112a2.119,2.119,0,0,0,0,4.237h2.112a2.119,2.119,0,0,0,0-4.237" transform="translate(-2832.396 -1562.507)" fill="#fff"/>
      <path id="Path_4347" data-name="Path 4347" d="M2849.225,1609.185a1.812,1.812,0,0,0,1.812-1.812V1581.95a1.812,1.812,0,0,1,1.812-1.812h25.423a1.819,1.819,0,1,0,0-3.637H2852.85a5.45,5.45,0,0,0-5.45,5.45v25.423a1.812,1.812,0,0,0,1.812,1.812" transform="translate(-2847.4 -1576.488)" fill="#fff"/>
      <path id="Path_4348" data-name="Path 4348" d="M2921.147,1576.49h-25.423a1.819,1.819,0,1,0,0,3.637h25.423a1.812,1.812,0,0,1,1.812,1.812v25.423a1.819,1.819,0,1,0,3.637,0V1581.94a5.45,5.45,0,0,0-5.45-5.45" transform="translate(-2835.778 -1576.49)" fill="#fff"/>
      <path id="Path_4349" data-name="Path 4349" d="M2878.283,1652.049H2852.86a1.812,1.812,0,0,1-1.812-1.812v-25.423a1.819,1.819,0,0,0-3.637,0v25.423a5.449,5.449,0,0,0,5.45,5.449h25.423a1.819,1.819,0,0,0,0-3.637" transform="translate(-2847.397 -1564.868)" fill="#fff"/>
      <path id="Path_4350" data-name="Path 4350" d="M2924.782,1623a1.812,1.812,0,0,0-1.812,1.812v25.423a1.813,1.813,0,0,1-1.812,1.812h-25.423a1.819,1.819,0,1,0,0,3.637h25.424a5.45,5.45,0,0,0,5.45-5.45v-25.423a1.812,1.812,0,0,0-1.812-1.812" transform="translate(-2835.775 -1564.867)" fill="#fff"/>
      <path id="Path_4351" data-name="Path 4351" d="M2897.419,1608.489a11.4,11.4,0,1,1-11.4-11.4,11.4,11.4,0,0,1,11.4,11.4" transform="translate(-2840.597 -1571.342)" fill="#fff"/>
      <path id="Path_4352" data-name="Path 4352" d="M2904.843,1631.1a2.3,2.3,0,0,0,1.713-3.75,23.035,23.035,0,0,0-37.872,0,2.3,2.3,0,0,0,1.712,3.75h34.435Z" transform="translate(-2842.21 -1566.257)" fill="#fff"/>
    </g>
  </g>
</svg>
