<svg xmlns="http://www.w3.org/2000/svg" width="162.037" height="164.932" viewBox="0 0 162.037 164.932">
  <g id="Group_3192" data-name="Group 3192" transform="translate(-424.939 -2338.158)">
    <g id="Group_1882" data-name="Group 1882" transform="translate(426 2338.658)">
      <path id="Path_2813" data-name="Path 2813" d="M0,4.133V0H136.808L138.6,2.342l-8.4,1.791Z" transform="translate(21.277 23.707)" fill="#003145"/>
      <rect id="Rectangle_568" data-name="Rectangle 568" width="138.639" height="138.64" transform="translate(21.277 25.792)" fill="#003845"/>
      <path id="Path_2811" data-name="Path 2811" d="M21.277,164.432,0,138.639V0L21.277,25.792Z" transform="translate(0 0)" fill="#018a9f"/>
      <path id="Path_2812" data-name="Path 2812" d="M21.277,25.792H159.916L138.638,0H0Z" fill="#1bb9d2" stroke="rgba(0,0,0,0)" stroke-width="1"/>
    </g>
    <g id="_5" data-name="5" transform="translate(472 2391)">
      <path id="Path_4404" data-name="Path 4404" d="M2928.785,630.55H2856.7a9.012,9.012,0,0,0-9.012,9.012v72.083a9.012,9.012,0,0,0,9.012,9.012h72.083a9.012,9.012,0,0,0,9.012-9.012V639.562a9.012,9.012,0,0,0-9.012-9.012m5.413,81.094a5.412,5.412,0,0,1-5.413,5.412H2856.7a5.4,5.4,0,0,1-5.412-5.412V639.562a5.4,5.4,0,0,1,5.412-5.4h72.083a5.413,5.413,0,0,1,5.413,5.4Z" transform="translate(-2847.69 -630.55)" fill="#fff"/>
      <path id="Path_4405" data-name="Path 4405" d="M2860.37,688.989h30a4.512,4.512,0,0,0,4.5-4.5V652.742h-10.512a4.512,4.512,0,0,1-4.512-4.5V637.73H2860.32a4.512,4.512,0,0,0-4.5,4.512V684.5a4.512,4.512,0,0,0,4.5,4.5m6.012-30.135h18.023a1.5,1.5,0,1,1,0,3h-18.023a1.5,1.5,0,1,1,0-3m0,6.012h18.023a1.5,1.5,0,1,1,0,3h-18.023a1.5,1.5,0,1,1,0-3m0,6.012h18.023a1.5,1.5,0,1,1,0,3h-18.023a1.5,1.5,0,1,1,0-3m0,6.012h12.012a1.5,1.5,0,1,1,0,3h-12.012a1.5,1.5,0,1,1,0-3" transform="translate(-2845.658 -628.756)" fill="#fff"/>
      <path id="Path_4406" data-name="Path 4406" d="M2878.99,649.557h9.637L2877.49,638.42v9.637a1.5,1.5,0,0,0,1.5,1.5" transform="translate(-2840.243 -628.583)" fill="#fff"/>
      <path id="Path_4407" data-name="Path 4407" d="M2884.9,705.709h30a4.512,4.512,0,0,0,4.5-4.5V669.462h-10.512a4.513,4.513,0,0,1-4.512-4.5V654.45H2884.9a4.512,4.512,0,0,0-4.5,4.512v42.26a4.512,4.512,0,0,0,4.5,4.5m6.012-30.135h18.024a1.5,1.5,0,0,1,0,3h-18.024a1.5,1.5,0,1,1,0-3m0,6.012h18.024a1.5,1.5,0,0,1,0,3h-18.024a1.5,1.5,0,1,1,0-3m0,6.012h18.024a1.5,1.5,0,0,1,0,3h-18.024a1.5,1.5,0,1,1,0-3m0,6.012h12.012a1.5,1.5,0,0,1,0,3h-12.011a1.5,1.5,0,1,1,0-3" transform="translate(-2839.515 -624.577)" fill="#fff"/>
      <path id="Path_4408" data-name="Path 4408" d="M2903.5,666.287h9.637L2902,655.15v9.637a1.5,1.5,0,0,0,1.5,1.5" transform="translate(-2834.117 -624.402)" fill="#fff"/>
    </g>
  </g>
</svg>
