<svg xmlns="http://www.w3.org/2000/svg" width="162.037" height="164.932" viewBox="0 0 162.037 164.932">
  <g id="Group_3185" data-name="Group 3185" transform="translate(-424.939 -2472.829)">
    <g id="Group_1881" data-name="Group 1881" transform="translate(426 2473.329)">
      <path id="Path_2813" data-name="Path 2813" d="M0,4.133V0H136.808L138.6,2.342l-8.4,1.791Z" transform="translate(21.277 23.707)" fill="#003145"/>
      <rect id="Rectangle_568" data-name="Rectangle 568" width="138.639" height="138.64" transform="translate(21.277 25.792)" fill="#003845"/>
      <path id="Path_2811" data-name="Path 2811" d="M21.277,164.432,0,138.639V0L21.277,25.792Z" transform="translate(0 0)" fill="#018a9f"/>
      <path id="Path_2812" data-name="Path 2812" d="M21.277,25.792H159.916L138.638,0H0Z" fill="#1bb9d2" stroke="rgba(0,0,0,0)" stroke-width="1"/>
    </g>
    <g id="_12" data-name="12" transform="translate(474 2525)">
      <path id="Path_4296" data-name="Path 4296" d="M2928.785,1292.21H2856.7a9.012,9.012,0,0,0-9.012,9.012V1373.3a9.012,9.012,0,0,0,9.012,9.012h72.083a9.012,9.012,0,0,0,9.012-9.012v-72.083a9.012,9.012,0,0,0-9.012-9.012m5.413,81.094a5.412,5.412,0,0,1-5.413,5.412H2856.7a5.4,5.4,0,0,1-5.412-5.412v-72.083a5.4,5.4,0,0,1,5.412-5.4h72.083a5.413,5.413,0,0,1,5.413,5.4Z" transform="translate(-2847.69 -1292.21)" fill="#fff"/>
      <path id="Path_4297" data-name="Path 4297" d="M2897.379,1351.3a7.9,7.9,0,1,1-7.887-7.887,7.9,7.9,0,0,1,7.887,7.887" transform="translate(-2839.22 -1279.414)" fill="#fff"/>
      <path id="Path_4298" data-name="Path 4298" d="M2914.409,1338.377a7.887,7.887,0,1,1-2.314-5.581,7.9,7.9,0,0,1,2.314,5.581" transform="translate(-2834.964 -1282.643)" fill="#fff"/>
      <path id="Path_4299" data-name="Path 4299" d="M2888.969,1333.107a7.9,7.9,0,1,1-7.887-7.887,7.9,7.9,0,0,1,7.887,7.887" transform="translate(-2841.323 -1283.96)" fill="#fff"/>
      <path id="Path_4300" data-name="Path 4300" d="M2870.029,1338.227a7.9,7.9,0,1,1-7.887-7.887,7.9,7.9,0,0,1,7.887,7.887" transform="translate(-2846.056 -1282.681)" fill="#fff"/>
      <path id="Path_4301" data-name="Path 4301" d="M2885.038,1336.574l-26.148,7.05,6.25-23.673.388-1.437.387-1.462a6.251,6.251,0,0,0,2.825.738l-.387,1.462-.363,1.438-4.912,18.749,21.249-5.737Z" transform="translate(-2844.891 -1286.002)" fill="#fff"/>
      <path id="Path_4302" data-name="Path 4302" d="M2897.868,1313.935l.212-1.25h-.75l-22.373,1.412-1.487.1-1.512.075a5.244,5.244,0,0,0,.1-1.075,5.853,5.853,0,0,0-.288-1.85l1.512-.1,1.487-.1,22-1.387,1.487-.1,1.437-.1a6.248,6.248,0,0,0,1.25,3.675l-.287,1.875-.287,1.7-6.4,39.485,18.349-13.912,1.775,2.35-24.223,18.374,7.987-49.2h0Z" transform="translate(-2841.672 -1287.874)" fill="#fff"/>
      <path id="Path_4303" data-name="Path 4303" d="M2876.1,1312.186a7.887,7.887,0,1,0-11.012,9.087,7.985,7.985,0,0,0,2.838.737,4.256,4.256,0,0,0,.55,0,7.886,7.886,0,0,0,7.824-6.911,7.192,7.192,0,0,0,.075-1.014,7.482,7.482,0,0,0-.262-1.937m-7.625,8.374h-.175a6.25,6.25,0,0,1-2.824-.737,6.412,6.412,0,1,1,9.112-7.5,5.846,5.846,0,0,1,.288,1.85,5.382,5.382,0,0,1-.1,1.075,6.4,6.4,0,0,1-6.249,5.35" transform="translate(-2844.469 -1288.7)" fill="#fff"/>
      <path id="Path_4304" data-name="Path 4304" d="M2877.869,1312.344a9.362,9.362,0,1,0-12.874,10.624,9.49,9.49,0,0,0,2.85.738h.913a9.374,9.374,0,0,0,9.3-8.462c0-.287,0-.6,0-.912a8.127,8.127,0,0,0-.237-2.037m-9.112,8.462h-.175a6.248,6.248,0,0,1-2.825-.737,6.412,6.412,0,1,1,9.112-7.5,5.866,5.866,0,0,1,.287,1.85,5.385,5.385,0,0,1-.1,1.075,6.4,6.4,0,0,1-6.249,5.35" transform="translate(-2844.771 -1289.008)" fill="#fff"/>
      <path id="Path_4305" data-name="Path 4305" d="M2900.829,1303.18a7.887,7.887,0,0,0-7.887,7.887.8.8,0,0,0,0,.237,7.635,7.635,0,0,0,2.425,5.45,7.814,7.814,0,0,0,5.45,2.212,7.893,7.893,0,1,0,0-15.786m0,14.3a6.461,6.461,0,0,1-5.162-2.587,6.244,6.244,0,0,1-1.25-3.675v-.138a6.412,6.412,0,1,1,6.425,6.4" transform="translate(-2836.383 -1289.469)" fill="#fff"/>
      <path id="Path_4306" data-name="Path 4306" d="M2901.126,1302a9.375,9.375,0,0,0-9.375,9.375,1.541,1.541,0,0,0,0,.337,8.4,8.4,0,0,0,.574,2.925,10.879,10.879,0,0,0,.525,1.25h0a9.764,9.764,0,0,0,2.5,2.9,9.362,9.362,0,1,0,5.737-16.761m0,15.787a6.462,6.462,0,0,1-5.162-2.587,6.248,6.248,0,0,1-1.25-3.675v-.138a6.412,6.412,0,1,1,6.424,6.4" transform="translate(-2836.681 -1289.763)" fill="#fff"/>
    </g>
  </g>
</svg>
