<svg xmlns="http://www.w3.org/2000/svg" width="162.037" height="164.932" viewBox="0 0 162.037 164.932">
  <g id="Group_3206" data-name="Group 3206" transform="translate(-424.939 -2660.158)">
    <g id="Group_1882" data-name="Group 1882" transform="translate(426 2660.658)">
      <path id="Path_2813" data-name="Path 2813" d="M0,4.133V0H136.808L138.6,2.342l-8.4,1.791Z" transform="translate(21.277 23.707)" fill="#003145"/>
      <rect id="Rectangle_568" data-name="Rectangle 568" width="138.639" height="138.64" transform="translate(21.277 25.792)" fill="#003845"/>
      <path id="Path_2811" data-name="Path 2811" d="M21.277,164.432,0,138.639V0L21.277,25.792Z" transform="translate(0 0)" fill="#018a9f"/>
      <path id="Path_2812" data-name="Path 2812" d="M21.277,25.792H159.916L138.638,0H0Z" fill="#1bb9d2" stroke="rgba(0,0,0,0)" stroke-width="1"/>
    </g>
    <g id="_10" data-name="10" transform="translate(474 2712)">
      <path id="Path_4289" data-name="Path 4289" d="M2928.215,1103h-72.083a9.012,9.012,0,0,0-9.012,9.012v72.083a9.012,9.012,0,0,0,9.012,9.012h72.083a9.012,9.012,0,0,0,9.012-9.012v-72.083a9.012,9.012,0,0,0-9.012-9.012m5.412,81.094a5.412,5.412,0,0,1-5.412,5.412h-72.083a5.4,5.4,0,0,1-5.412-5.412v-72.083a5.4,5.4,0,0,1,5.412-5.4h72.083a5.413,5.413,0,0,1,5.412,5.4Z" transform="translate(-2847.12 -1103)" fill="#fff"/>
      <path id="Path_4290" data-name="Path 4290" d="M2864.76,1134.209v26.686l23.111,13.349,23.111-13.349v-26.686l-23.111-13.349Zm39.772,1.25-16.661,9.612-16.662-9.612,16.662-9.612Zm-35.46,3.75,16.662,9.612v19.236l-16.662-9.612Zm20.986,28.823V1148.8l16.662-9.612v19.236Z" transform="translate(-2842.712 -1098.537)" fill="#fff"/>
      <path id="Path_4291" data-name="Path 4291" d="M2902.9,1152.428a5.576,5.576,0,0,0-1.45.213l-5.075-5.075a2.85,2.85,0,0,0-4.025,4.025l5.075,5.074a5.562,5.562,0,0,0-.212,1.45,5.687,5.687,0,1,0,5.688-5.687Z" transform="translate(-2836 -1092.045)" fill="#fff"/>
      <path id="Path_4292" data-name="Path 4292" d="M2875.464,1146.82a2.839,2.839,0,0,0-2.013.838l-5.074,5.075a5.574,5.574,0,0,0-1.45-.213,5.687,5.687,0,1,0,5.687,5.687,5.593,5.593,0,0,0-.212-1.45l1.462-1.462,3.612-3.612a2.85,2.85,0,0,0-2.013-4.862h0Z" transform="translate(-2843.591 -1092.049)" fill="#fff"/>
      <path id="Path_4293" data-name="Path 4293" d="M2884.387,1114.44a5.674,5.674,0,0,0-2.85,10.587v9.324a2.85,2.85,0,1,0,5.688,0v-9.324a5.675,5.675,0,0,0-2.838-10.587Z" transform="translate(-2839.228 -1100.141)" fill="#fff"/>
    </g>
  </g>
</svg>
