<svg xmlns="http://www.w3.org/2000/svg" width="162.037" height="164.932" viewBox="0 0 162.037 164.932">
  <g id="Group_3208" data-name="Group 3208" transform="translate(-424.939 -2847.067)">
    <g id="Group_3207" data-name="Group 3207">
      <g id="Group_1883" data-name="Group 1883" transform="translate(426 2847.567)">
        <path id="Path_2813" data-name="Path 2813" d="M0,4.133V0H136.808L138.6,2.342l-8.4,1.791Z" transform="translate(21.277 23.707)" fill="#003145"/>
        <rect id="Rectangle_568" data-name="Rectangle 568" width="138.639" height="138.64" transform="translate(21.277 25.792)" fill="#003845"/>
        <path id="Path_2811" data-name="Path 2811" d="M21.277,164.432,0,138.639V0L21.277,25.792Z" transform="translate(0 0)" fill="#018a9f"/>
        <path id="Path_2812" data-name="Path 2812" d="M21.277,25.792H159.916L138.638,0H0Z" fill="#1bb9d2" stroke="rgba(0,0,0,0)" stroke-width="1"/>
      </g>
      <path id="Path_4409" data-name="Path 4409" d="M2928.785,725.31H2856.7a9.012,9.012,0,0,0-9.012,9.012V806.4a9.012,9.012,0,0,0,9.012,9.012h72.083a9.012,9.012,0,0,0,9.012-9.012V734.322a9.012,9.012,0,0,0-9.012-9.012M2934.2,806.4a5.412,5.412,0,0,1-5.413,5.412H2856.7a5.4,5.4,0,0,1-5.412-5.412V734.322a5.4,5.4,0,0,1,5.412-5.4h72.083a5.413,5.413,0,0,1,5.413,5.4Z" transform="translate(-2373.69 2173.689)" fill="#fff"/>
    </g>
    <path id="Path_4410" data-name="Path 4410" d="M2884.1,734.84a1.8,1.8,0,0,0-1.8,1.8v1.8a1.8,1.8,0,1,0,3.6,0v-1.8a1.8,1.8,0,0,0-1.8-1.8" transform="translate(-2365.041 2176.072)" fill="#fff"/>
    <path id="Path_4411" data-name="Path 4411" d="M2884.1,744.94a1.8,1.8,0,0,0-1.8,1.8v1.8a1.8,1.8,0,1,0,3.6,0v-1.8a1.8,1.8,0,0,0-1.8-1.8" transform="translate(-2365.041 2178.596)" fill="#fff"/>
    <path id="Path_4412" data-name="Path 4412" d="M2880.122,740.61h-1.762a1.8,1.8,0,0,0,0,3.6h1.8a1.8,1.8,0,1,0,0-3.6" transform="translate(-2366.475 2177.514)" fill="#fff"/>
    <path id="Path_4413" data-name="Path 4413" d="M2890.22,740.61h-1.8a1.8,1.8,0,0,0,0,3.6h1.8a1.8,1.8,0,0,0,0-3.6" transform="translate(-2363.961 2177.514)" fill="#fff"/>
    <path id="Path_4414" data-name="Path 4414" d="M2902.36,734.84a1.8,1.8,0,0,0-1.8,1.8v1.8a1.8,1.8,0,1,0,3.6,0v-1.8a1.8,1.8,0,0,0-1.8-1.8" transform="translate(-2360.477 2176.072)" fill="#fff"/>
    <path id="Path_4415" data-name="Path 4415" d="M2902.36,744.94a1.8,1.8,0,0,0-1.8,1.8v1.8a1.8,1.8,0,1,0,3.6,0v-1.8a1.8,1.8,0,0,0-1.8-1.8" transform="translate(-2360.477 2178.596)" fill="#fff"/>
    <path id="Path_4416" data-name="Path 4416" d="M2898.43,740.61h-1.8a1.8,1.8,0,0,0,0,3.6h1.8a1.8,1.8,0,0,0,0-3.6" transform="translate(-2361.909 2177.514)" fill="#fff"/>
    <path id="Path_4417" data-name="Path 4417" d="M2908.52,740.61h-1.8a1.8,1.8,0,0,0,0,3.6h1.8a1.8,1.8,0,0,0,0-3.6" transform="translate(-2359.388 2177.514)" fill="#fff"/>
    <path id="Path_4418" data-name="Path 4418" d="M2865.79,754.158a1.8,1.8,0,0,0-1.8,1.8v1.762a1.8,1.8,0,1,0,3.6,0v-1.8a1.8,1.8,0,0,0-1.8-1.8" transform="translate(-2369.616 2180.891)" fill="#fff"/>
    <path id="Path_4419" data-name="Path 4419" d="M2865.79,764.24a1.8,1.8,0,0,0-1.8,1.8v1.8a1.8,1.8,0,1,0,3.6,0v-1.8a1.8,1.8,0,0,0-1.8-1.8" transform="translate(-2369.616 2183.419)" fill="#fff"/>
    <path id="Path_4420" data-name="Path 4420" d="M2861.83,759.91h-1.8a1.8,1.8,0,0,0,0,3.6h1.8a1.8,1.8,0,0,0,0-3.6" transform="translate(-2371.056 2182.337)" fill="#fff"/>
    <path id="Path_4421" data-name="Path 4421" d="M2871.92,759.91h-1.8a1.8,1.8,0,0,0,0,3.6h1.8a1.8,1.8,0,0,0,0-3.6" transform="translate(-2368.534 2182.337)" fill="#fff"/>
    <path id="Path_4422" data-name="Path 4422" d="M2884.1,773.45a1.8,1.8,0,0,0-1.8,1.8v1.8a1.8,1.8,0,1,0,3.6,0v-1.8a1.8,1.8,0,0,0-1.8-1.8" transform="translate(-2365.041 2185.721)" fill="#fff"/>
    <path id="Path_4423" data-name="Path 4423" d="M2884.1,783.54a1.8,1.8,0,0,0-1.8,1.8v1.8a1.8,1.8,0,1,0,3.6,0v-1.775a1.8,1.8,0,0,0-1.8-1.8" transform="translate(-2365.041 2188.242)" fill="#fff"/>
    <path id="Path_4424" data-name="Path 4424" d="M2880.122,779.21h-1.762a1.8,1.8,0,0,0,0,3.6h1.8a1.8,1.8,0,1,0,0-3.6" transform="translate(-2366.475 2187.16)" fill="#fff"/>
    <path id="Path_4425" data-name="Path 4425" d="M2890.22,779.21h-1.8a1.8,1.8,0,0,0,0,3.6h1.8a1.8,1.8,0,0,0,0-3.6" transform="translate(-2363.961 2187.16)" fill="#fff"/>
    <path id="Path_4426" data-name="Path 4426" d="M2902.36,773.45a1.8,1.8,0,0,0-1.8,1.8v1.8a1.8,1.8,0,1,0,3.6,0v-1.8a1.8,1.8,0,0,0-1.8-1.8" transform="translate(-2360.477 2185.721)" fill="#fff"/>
    <path id="Path_4427" data-name="Path 4427" d="M2902.36,783.54a1.8,1.8,0,0,0-1.8,1.8v1.8a1.8,1.8,0,1,0,3.6,0v-1.775a1.8,1.8,0,0,0-1.8-1.8" transform="translate(-2360.477 2188.242)" fill="#fff"/>
    <path id="Path_4428" data-name="Path 4428" d="M2898.43,779.21h-1.8a1.8,1.8,0,0,0,0,3.6h1.8a1.8,1.8,0,0,0,0-3.6" transform="translate(-2361.909 2187.16)" fill="#fff"/>
    <path id="Path_4429" data-name="Path 4429" d="M2908.52,779.21h-1.8a1.8,1.8,0,0,0,0,3.6h1.8a1.8,1.8,0,0,0,0-3.6" transform="translate(-2359.388 2187.16)" fill="#fff"/>
    <path id="Path_4430" data-name="Path 4430" d="M2872.264,743.182a5.662,5.662,0,1,1-5.662-5.662,5.662,5.662,0,0,1,5.662,5.662" transform="translate(-2370.379 2176.741)" fill="#fff"/>
    <path id="Path_4431" data-name="Path 4431" d="M2890.524,762.482a5.662,5.662,0,1,1-5.662-5.662,5.662,5.662,0,0,1,5.662,5.662" transform="translate(-2365.815 2181.564)" fill="#fff"/>
    <path id="Path_4432" data-name="Path 4432" d="M2908.824,762.442a5.662,5.662,0,1,1-5.662-5.662,5.662,5.662,0,0,1,5.662,5.662" transform="translate(-2361.242 2181.555)" fill="#fff"/>
    <path id="Path_4433" data-name="Path 4433" d="M2872.264,781.792a5.662,5.662,0,1,1-5.662-5.662,5.662,5.662,0,0,1,5.662,5.662" transform="translate(-2370.379 2186.391)" fill="#fff"/>
  </g>
</svg>
