<svg xmlns="http://www.w3.org/2000/svg" width="162.037" height="164.932" viewBox="0 0 162.037 164.932">
  <g id="Group_3187" data-name="Group 3187" transform="translate(-424.939 -3034.067)">
    <g id="Group_1883" data-name="Group 1883" transform="translate(426 3034.567)">
      <path id="Path_2813" data-name="Path 2813" d="M0,4.133V0H136.808L138.6,2.342l-8.4,1.791Z" transform="translate(21.277 23.707)" fill="#003145"/>
      <rect id="Rectangle_568" data-name="Rectangle 568" width="138.639" height="138.64" transform="translate(21.277 25.792)" fill="#003845"/>
      <path id="Path_2811" data-name="Path 2811" d="M21.277,164.432,0,138.639V0L21.277,25.792Z" transform="translate(0 0)" fill="#018a9f"/>
      <path id="Path_2812" data-name="Path 2812" d="M21.277,25.792H159.916L138.638,0H0Z" fill="#1bb9d2" stroke="rgba(0,0,0,0)" stroke-width="1"/>
    </g>
    <g id="_9" data-name="9" transform="translate(474 3086)">
      <path id="Path_4458" data-name="Path 4458" d="M2928.785,1009.6H2856.7a9.012,9.012,0,0,0-9.012,9.012v72.083a9.012,9.012,0,0,0,9.012,9.011h72.083a9.012,9.012,0,0,0,9.012-9.012v-72.083a9.012,9.012,0,0,0-9.012-9.012m5.413,81.095a5.412,5.412,0,0,1-5.413,5.412H2856.7a5.4,5.4,0,0,1-5.412-5.412v-72.083a5.4,5.4,0,0,1,5.412-5.4h72.083a5.413,5.413,0,0,1,5.413,5.4Z" transform="translate(-2847.69 -1009.6)" fill="#fff"/>
      <path id="Path_4459" data-name="Path 4459" d="M2874.273,1067.031l-4.825-11.437a1.363,1.363,0,0,0-2.5,0l-4.825,11.437a1.362,1.362,0,0,0,2.5,1.062l.688-1.612h5.787l.688,1.613a1.362,1.362,0,0,0,2.5-1.062m-7.824-3.275,1.737-4.125,1.737,4.125h-3.487Z" transform="translate(-2844.1 -998.311)" fill="#fff"/>
      <path id="Path_4460" data-name="Path 4460" d="M2924.18,1022.1h-66.958a1.363,1.363,0,0,0-1.363,1.362V1049.6a1.362,1.362,0,0,0,1.363,1.362h66.958a1.362,1.362,0,0,0,1.363-1.362v-26.136a1.362,1.362,0,0,0-1.362-1.362m-43.285,26.123h-22.361v-23.411h22.323v23.411Zm41.922,0h-39.2v-23.411h39.2Z" transform="translate(-2845.648 -1006.476)" fill="#fff"/>
      <path id="Path_4461" data-name="Path 4461" d="M2899.332,1032.55h-15.3a1.362,1.362,0,1,0,0,2.725h15.3a1.362,1.362,0,1,0,0-2.725" transform="translate(-2838.948 -1003.865)" fill="#fff"/>
      <path id="Path_4462" data-name="Path 4462" d="M2905.845,1032.55h-4.912a1.362,1.362,0,1,0,0,2.725h4.912a1.362,1.362,0,1,0,0-2.725" transform="translate(-2834.724 -1003.865)" fill="#fff"/>
      <path id="Path_4463" data-name="Path 4463" d="M2906.036,1027.76h-22.023a1.362,1.362,0,1,0,0,2.725h22.023a1.362,1.362,0,0,0,0-2.725" transform="translate(-2838.953 -1005.062)" fill="#fff"/>
      <path id="Path_4464" data-name="Path 4464" d="M2905.875,1028.16a1.362,1.362,0,1,0,.4.962,1.362,1.362,0,0,0-.4-.962" transform="translate(-2833.73 -1005.061)" fill="#fff"/>
      <path id="Path_4465" data-name="Path 4465" d="M2895.592,1037.34h-11.6a1.362,1.362,0,1,0,0,2.725h11.6a1.362,1.362,0,1,0,0-2.725" transform="translate(-2838.958 -1002.667)" fill="#fff"/>
      <path id="Path_4466" data-name="Path 4466" d="M2897.955,1037.74a1.362,1.362,0,1,0,.4.963,1.362,1.362,0,0,0-.4-.963" transform="translate(-2835.709 -1002.667)" fill="#fff"/>
      <path id="Path_4467" data-name="Path 4467" d="M2901.895,1037.74a1.362,1.362,0,1,0,.4.963,1.362,1.362,0,0,0-.4-.963" transform="translate(-2834.724 -1002.667)" fill="#fff"/>
      <path id="Path_4468" data-name="Path 4468" d="M2905.825,1037.74a1.362,1.362,0,1,0,.4.963,1.362,1.362,0,0,0-.4-.963" transform="translate(-2833.742 -1002.667)" fill="#fff"/>
      <path id="Path_4469" data-name="Path 4469" d="M2924.18,1048.89h-66.958a1.363,1.363,0,0,0-1.363,1.362v26.136a1.362,1.362,0,0,0,1.363,1.362h66.958a1.362,1.362,0,0,0,1.363-1.362v-26.111a1.362,1.362,0,0,0-1.362-1.362m-43.285,26.136h-22.361V1051.64h22.323v23.411Zm41.922,0h-39.2V1051.64h39.2Z" transform="translate(-2845.648 -999.781)" fill="#fff"/>
      <path id="Path_4470" data-name="Path 4470" d="M2899.332,1059.34h-15.3a1.362,1.362,0,1,0,0,2.725h15.3a1.362,1.362,0,1,0,0-2.725" transform="translate(-2838.948 -997.169)" fill="#fff"/>
      <path id="Path_4471" data-name="Path 4471" d="M2905.845,1059.34h-4.912a1.362,1.362,0,1,0,0,2.725h4.912a1.362,1.362,0,1,0,0-2.725" transform="translate(-2834.724 -997.169)" fill="#fff"/>
      <path id="Path_4472" data-name="Path 4472" d="M2906.036,1054.55h-22.023a1.362,1.362,0,1,0,0,2.725h22.023a1.362,1.362,0,0,0,0-2.725" transform="translate(-2838.953 -998.366)" fill="#fff"/>
      <path id="Path_4473" data-name="Path 4473" d="M2905.875,1054.95a1.362,1.362,0,1,0,.4.963,1.362,1.362,0,0,0-.4-.963" transform="translate(-2833.73 -998.366)" fill="#fff"/>
      <path id="Path_4474" data-name="Path 4474" d="M2910.071,1064.13h-26.048a1.362,1.362,0,1,0,0,2.725h26.048a1.362,1.362,0,1,0,0-2.725" transform="translate(-2838.95 -995.972)" fill="#fff"/>
      <path id="Path_4475" data-name="Path 4475" d="M2874.914,1039.317l-1.25-.95a6.246,6.246,0,0,0,.625-2.712v-2.175a6.25,6.25,0,0,0-12.5,0v2.212a6.25,6.25,0,0,0,10.212,4.85l1.363,1a1.362,1.362,0,1,0,1.612-2.187m-3.387-3.662a3.521,3.521,0,0,1-.163,1.05l-1.437-1.062a1.362,1.362,0,1,0-1.612,2.187l1.25.963a3.537,3.537,0,0,1-5.162-3.137v-2.175a3.537,3.537,0,0,1,7.075,0v2.175Z" transform="translate(-2844.166 -1005.194)" fill="#fff"/>
    </g>
  </g>
</svg>
