<svg xmlns="http://www.w3.org/2000/svg" width="162.037" height="164.932" viewBox="0 0 162.037 164.932">
  <g id="Group_3189" data-name="Group 3189" transform="translate(-424.939 -3218.067)">
    <g id="Group_1883" data-name="Group 1883" transform="translate(426 3218.567)">
      <path id="Path_2813" data-name="Path 2813" d="M0,4.133V0H136.808L138.6,2.342l-8.4,1.791Z" transform="translate(21.277 23.707)" fill="#003145"/>
      <rect id="Rectangle_568" data-name="Rectangle 568" width="138.639" height="138.64" transform="translate(21.277 25.792)" fill="#003845"/>
      <path id="Path_2811" data-name="Path 2811" d="M21.277,164.432,0,138.639V0L21.277,25.792Z" transform="translate(0 0)" fill="#018a9f"/>
      <path id="Path_2812" data-name="Path 2812" d="M21.277,25.792H159.916L138.638,0H0Z" fill="#1bb9d2" stroke="rgba(0,0,0,0)" stroke-width="1"/>
    </g>
    <g id="Group_3188" data-name="Group 3188">
      <g id="_4" data-name="4" transform="translate(473 3272)">
        <path id="Path_4400" data-name="Path 4400" d="M2849.225,567.408a1.812,1.812,0,0,0,1.812-1.812V540.16a1.812,1.812,0,0,1,1.812-1.812h25.423a1.819,1.819,0,1,0,0-3.637H2852.85a5.45,5.45,0,0,0-5.45,5.45v25.423a1.812,1.812,0,0,0,1.812,1.812" transform="translate(-2847.4 -534.71)" fill="#fff"/>
        <path id="Path_4401" data-name="Path 4401" d="M2921.147,534.71h-25.423a1.819,1.819,0,1,0,0,3.637h25.423a1.812,1.812,0,0,1,1.812,1.812v25.423a1.819,1.819,0,1,0,3.637,0V540.16a5.45,5.45,0,0,0-5.45-5.45" transform="translate(-2835.778 -534.71)" fill="#fff"/>
        <path id="Path_4402" data-name="Path 4402" d="M2878.283,610.272H2852.86a1.812,1.812,0,0,1-1.812-1.812V583.024a1.819,1.819,0,0,0-3.637,0v25.423a5.449,5.449,0,0,0,5.45,5.45h25.423a1.819,1.819,0,0,0,0-3.637" transform="translate(-2847.397 -523.09)" fill="#fff"/>
        <path id="Path_4403" data-name="Path 4403" d="M2924.782,581.21a1.812,1.812,0,0,0-1.812,1.812v25.423a1.813,1.813,0,0,1-1.812,1.812h-25.423a1.819,1.819,0,1,0,0,3.637h25.423a5.45,5.45,0,0,0,5.45-5.45V583.022a1.813,1.813,0,0,0-1.812-1.812" transform="translate(-2835.775 -523.089)" fill="#fff"/>
        <rect id="Rectangle_727" data-name="Rectangle 727" width="53.746" height="1.8" transform="translate(18.549 22.174)" fill="#fff"/>
        <rect id="Rectangle_728" data-name="Rectangle 728" width="53.746" height="1.8" transform="translate(18.549 29.786)" fill="#fff"/>
        <rect id="Rectangle_729" data-name="Rectangle 729" width="53.746" height="6.712" transform="translate(18.549 39.21)" fill="#fff"/>
        <rect id="Rectangle_730" data-name="Rectangle 730" width="53.746" height="6.712" transform="translate(18.549 61.921)" fill="#fff"/>
        <rect id="Rectangle_731" data-name="Rectangle 731" width="53.746" height="1.8" transform="translate(18.549 52.634)" fill="#fff"/>
      </g>
    </g>
  </g>
</svg>
