<svg xmlns="http://www.w3.org/2000/svg" width="162.037" height="164.932" viewBox="0 0 162.037 164.932">
  <g id="Group_3182" data-name="Group 3182" transform="translate(-424.939 -2338.158)">
    <g id="Group_1882" data-name="Group 1882" transform="translate(426 2338.658)">
      <path id="Path_2813" data-name="Path 2813" d="M0,4.133V0H136.808L138.6,2.342l-8.4,1.791Z" transform="translate(21.277 23.707)" fill="#003145"/>
      <rect id="Rectangle_568" data-name="Rectangle 568" width="138.639" height="138.64" transform="translate(21.277 25.792)" fill="#003845"/>
      <path id="Path_2811" data-name="Path 2811" d="M21.277,164.432,0,138.639V0L21.277,25.792Z" transform="translate(0 0)" fill="#018a9f"/>
      <path id="Path_2812" data-name="Path 2812" d="M21.277,25.792H159.916L138.638,0H0Z" fill="#1bb9d2" stroke="rgba(0,0,0,0)" stroke-width="1"/>
    </g>
    <g id="_7" data-name="7" transform="translate(473 2388.486)">
      <path id="Path_1736" data-name="Path 1736" d="M2930.209,820.07H2856.86a9.17,9.17,0,0,0-9.17,9.17v73.35a9.17,9.17,0,0,0,9.17,9.17h73.349a9.17,9.17,0,0,0,9.17-9.17V829.24a9.17,9.17,0,0,0-9.17-9.17m5.508,82.52a5.508,5.508,0,0,1-5.508,5.507H2856.86a5.5,5.5,0,0,1-5.508-5.507V829.24a5.495,5.495,0,0,1,5.508-5.494h73.349a5.508,5.508,0,0,1,5.508,5.494Z" transform="translate(-2847.689 -820.07)" fill="#fff"/>
      <path id="Path_1737" data-name="Path 1737" d="M2915.636,881.6h0l-24.56-49.12a1.971,1.971,0,0,0-3.383,0l-24.56,49.12a1.882,1.882,0,0,0,1.678,2.734h49.082a1.882,1.882,0,0,0,1.692-2.735m-24.37-6.716a1.908,1.908,0,1,1-3.816,0v-1.9a1.908,1.908,0,1,1,3.816,0Zm0-9.45a1.908,1.908,0,0,1-3.816,0V852.2a1.908,1.908,0,1,1,3.816,0Z" transform="translate(-2843.546 -816.958)" fill="#fff"/>
      <rect id="Rectangle_291" data-name="Rectangle 291" width="86.45" height="1.832" transform="translate(3.027 19.651)" fill="#fff"/>
      <rect id="Rectangle_292" data-name="Rectangle 292" width="86.45" height="1.832" transform="translate(3.027 27.409)" fill="#fff"/>
      <rect id="Rectangle_293" data-name="Rectangle 293" width="88.739" height="1.832" transform="translate(3.027 51.143)" fill="#fff"/>
      <rect id="Rectangle_294" data-name="Rectangle 294" width="88.739" height="1.832" transform="translate(3.027 58.901)" fill="#fff"/>
      <rect id="Rectangle_295" data-name="Rectangle 295" width="88.739" height="1.832" transform="translate(3.027 66.647)" fill="#fff"/>
    </g>
  </g>
</svg>
