<svg xmlns="http://www.w3.org/2000/svg" width="167.67" height="170.419" viewBox="0 0 167.67 170.419"><defs><style>.a{fill:#c4a2fc;}.b{fill:#a1e2ec;}.c{fill:#003145;}</style></defs><circle class="a" cx="11" cy="11" r="11" transform="translate(96 99.064)"/><path class="b" d="M78.972,19a60.471,60.471,0,1,0,60.472,60.471A60.472,60.472,0,0,0,78.972,19ZM51.76,110.559a2.749,2.749,0,0,1-3.876,0A43.979,43.979,0,0,1,78.972,35.492a2.749,2.749,0,0,1,2.446,3.986L73.172,55.97A2.749,2.749,0,1,1,68.279,53.5l6.1-12.232A38.482,38.482,0,0,0,51.76,106.683a2.749,2.749,0,0,1,0,3.876ZM62.48,79.471A16.492,16.492,0,1,1,78.972,95.963,16.492,16.492,0,0,1,62.48,79.471Zm47.58,31.088A43.6,43.6,0,0,1,78.972,123.45a2.749,2.749,0,0,1-2.446-3.986l8.246-16.492a2.749,2.749,0,0,1,4.893,2.474l-6.1,12.232a38.482,38.482,0,0,0,22.622-65.419,2.749,2.749,0,0,1,3.876-3.876,43.979,43.979,0,0,1,0,62.175Z" transform="translate(28.226 30.477)"/><path class="c" d="M75.714,138.435H57.683a8.851,8.851,0,0,1-8.823-8.713v-9.153l-17.125-9.9-7.971,4.48a8.823,8.823,0,0,1-11.957-3.271L2.681,96.27A8.851,8.851,0,0,1,5.814,84.258l7.861-4.645V59.822L5.814,55.177A8.851,8.851,0,0,1,2.681,43.165L11.7,27.553a8.823,8.823,0,0,1,11.957-3.271l7.971,4.48,17.125-9.9V9.714A8.851,8.851,0,0,1,57.683,1H75.714a8.851,8.851,0,0,1,8.823,8.713v9.153l17.289,9.9,7.971-4.48a8.851,8.851,0,0,1,11.984,3.271L130.8,43.165a8.878,8.878,0,0,1-3.161,12.012l-7.944,4.645V79.613l7.861,4.645a8.878,8.878,0,0,1,3.161,12.012L121.7,111.883a8.851,8.851,0,0,1-11.984,3.271l-7.889-4.48-17.1,9.9v9.153a8.851,8.851,0,0,1-9.016,8.713ZM33.109,105.148l19.818,11.435a2.749,2.749,0,0,1,1.374,2.364l.137,10.692a3.326,3.326,0,0,0,3.243,3.3H75.714a3.353,3.353,0,0,0,3.326-3.3V118.947a2.749,2.749,0,0,1,1.374-2.364l19.846-11.435a2.749,2.749,0,0,1,2.749,0l9.318,5.25a3.353,3.353,0,0,0,4.535-1.237l9.016-15.613a3.353,3.353,0,0,0-1.127-4.59l-9.181-5.5a2.749,2.749,0,0,1-1.347-2.364V58.256a2.749,2.749,0,0,1,1.347-2.281l9.208-5.5a3.353,3.353,0,0,0,1.209-4.535L116.945,30.3a3.353,3.353,0,0,0-4.535-1.237l-9.318,5.25a2.749,2.749,0,0,1-2.749,0L80.525,22.99a2.749,2.749,0,0,1-1.374-2.364V9.933A3.353,3.353,0,0,0,75.714,6.5H57.683a3.326,3.326,0,0,0-3.326,3.3l-.137,10.692a2.749,2.749,0,0,1-1.374,2.364L33.109,34.287a2.749,2.749,0,0,1-2.749,0l-9.346-5.25a3.326,3.326,0,0,0-4.508,1.237L7.436,45.914a3.353,3.353,0,0,0,1.182,4.563l9.208,5.5a2.749,2.749,0,0,1,1.347,2.364V81.262a2.749,2.749,0,0,1-1.346,2.364L8.618,88.958a3.353,3.353,0,0,0-1.182,4.535l9.016,15.613a3.326,3.326,0,0,0,4.508,1.237l9.4-5.223a2.749,2.749,0,0,1,2.749.027ZM66.7,94.456A24.738,24.738,0,1,1,91.437,69.718,24.738,24.738,0,0,1,66.7,94.456Zm0-43.979A19.241,19.241,0,1,0,85.94,69.718,19.241,19.241,0,0,0,66.7,50.477Z" transform="translate(-1.501 -1)"/></svg>